<svg width="16" height="16" viewBox="0 0 16 16" xmlns="http://www.w3.org/2000/svg">
    <path d="M5.18164 2.57637C5.18164 2.25387 5.15305 1.95293 5.1868 1.65949C5.27493 0.894961 5.88993 0.346992 6.66993 0.339023C7.54118 0.328398 8.41243 0.328398 9.28368 0.339023C10.1462 0.349336 10.7804 1.0009 10.7874 1.86293C10.7898 2.0973 10.7874 2.32746 10.7874 2.57637H10.9932C12.1973 2.57887 13.4018 2.58168 14.6068 2.5848C14.7118 2.58218 14.8165 2.5961 14.9171 2.62605C15.0358 2.67066 15.1357 2.75421 15.2007 2.86304C15.2657 2.97186 15.2918 3.09952 15.2748 3.22512C15.2578 3.35087 15.1979 3.4669 15.1052 3.5536C15.0125 3.64029 14.8928 3.69232 14.7662 3.7009C14.4802 3.71215 14.1934 3.70934 13.907 3.70418C13.793 3.70418 13.7429 3.72809 13.7354 3.85559C13.6195 5.78184 13.5007 7.70777 13.3791 9.6334C13.2981 10.9346 13.2198 12.2364 13.1331 13.5371C13.0524 14.7498 12.0924 15.6789 10.8727 15.6873C8.95461 15.7026 7.03664 15.7026 5.11883 15.6873C3.87524 15.6784 2.92274 14.7114 2.85149 13.4654C2.76524 11.9481 2.65274 10.4317 2.55289 8.91481C2.46539 7.59231 2.37914 6.26871 2.29414 4.94402C2.27024 4.57652 2.24258 4.20902 2.22524 3.84105C2.22008 3.73184 2.17836 3.70043 2.07618 3.70465C1.81883 3.7098 1.56055 3.70793 1.30414 3.70465C0.931488 3.70184 0.678363 3.47027 0.681176 3.14215C0.683988 2.81402 0.936176 2.58434 1.31211 2.58293C2.52274 2.57949 3.73321 2.57715 4.94352 2.5759L5.18164 2.57637ZM12.6207 3.73934H3.38164C3.38164 3.80074 3.37883 3.8584 3.38164 3.91559C3.44414 4.98996 3.50664 6.06418 3.56914 7.13824C3.69196 9.21074 3.81555 11.2831 3.93993 13.3553C3.98446 14.1221 4.44524 14.5693 5.21164 14.5703C5.96633 14.5703 6.72086 14.5703 7.47524 14.5703C8.58055 14.5703 9.68586 14.5726 10.7912 14.5703C11.4563 14.5703 11.9715 14.1259 12.0127 13.5057C12.114 11.9945 12.2035 10.4823 12.2982 8.97059C12.3754 7.73309 12.4535 6.49574 12.5326 5.25855C12.5602 4.76215 12.5893 4.26668 12.6207 3.73934ZM9.64414 2.57168C9.65207 2.55688 9.65806 2.54113 9.66196 2.5248C9.66196 2.32559 9.66524 2.12684 9.66477 1.92809C9.66477 1.61965 9.54899 1.50012 9.24289 1.49824C8.85711 1.49824 8.47086 1.49824 8.08508 1.49824C7.62289 1.49824 7.16118 1.49824 6.69899 1.49824C6.4843 1.49824 6.32399 1.58684 6.31227 1.75371C6.29071 2.02324 6.30664 2.29652 6.30664 2.57121L9.64414 2.57168Z" />
    <path d="M6.29602 9.1212C6.29602 10.1154 6.29602 11.1101 6.29602 12.1048C6.29602 12.4076 6.09024 12.6504 5.81649 12.686C5.67888 12.7051 5.53911 12.6725 5.42409 12.5946C5.30907 12.5167 5.22694 12.399 5.19352 12.2642C5.1788 12.1957 5.1725 12.1256 5.17477 12.0556C5.17477 10.1074 5.17477 8.15932 5.17477 6.2112C5.17477 5.83385 5.39696 5.58588 5.73258 5.58448C6.06821 5.58307 6.29508 5.83338 6.29508 6.20604C6.29633 7.17823 6.29664 8.14995 6.29602 9.1212Z" />
    <path d="M7.41901 9.13842C7.41901 8.14373 7.41901 7.14951 7.41901 6.15483C7.41901 5.85248 7.63182 5.61623 7.9112 5.58905C8.04899 5.57127 8.18844 5.60572 8.30209 5.68562C8.41574 5.76553 8.49536 5.88509 8.52526 6.02076C8.53897 6.1014 8.544 6.18328 8.54026 6.26498C8.54026 8.17811 8.54026 10.0912 8.54026 12.0044C8.54026 12.0451 8.54026 12.0859 8.54026 12.1272C8.52854 12.452 8.28104 12.6958 7.96745 12.6897C7.81965 12.686 7.67925 12.6243 7.57662 12.5179C7.47398 12.4114 7.41736 12.2689 7.41901 12.1211C7.41667 11.1278 7.41901 10.1331 7.41901 9.13842Z" />
    <path d="M9.6651 9.12113C9.6651 8.13207 9.6651 7.14347 9.6651 6.15488C9.6651 5.85207 9.87745 5.61629 10.1573 5.5891C10.2951 5.57121 10.4346 5.60562 10.5483 5.68554C10.662 5.76546 10.7416 5.88509 10.7714 6.02082C10.7851 6.10145 10.7901 6.18333 10.7864 6.26504C10.7864 8.17816 10.7864 10.0913 10.7864 12.0044C10.7864 12.0452 10.7864 12.0864 10.7864 12.1272C10.7751 12.4521 10.5271 12.6958 10.214 12.6897C10.0661 12.6862 9.92561 12.6245 9.82288 12.5181C9.72014 12.4116 9.66346 12.269 9.6651 12.1211C9.66276 11.1218 9.6651 10.1214 9.6651 9.12113Z" />
</svg>
