<svg viewBox="0 0 20 20" xmlns="http://www.w3.org/2000/svg">
    <path d="M4.02047 6.98016C4.0137 7.01269 4.00695 7.04516 4 7.07751V10.9999V13.9224C4.0084 13.9589 4.01643 13.9954 4.02447 14.0319C4.04054 14.105 4.05661 14.1781 4.07561 14.2512C4.1903 14.6969 4.43456 15.0986 4.7775 15.4055C5.12045 15.7124 5.5467 15.9108 6.00232 15.9755C6.0282 15.9814 6.05351 15.9895 6.07793 15.9999L9.50038 15.9999L12.9228 15.9999C12.9472 15.9895 12.9725 15.9814 12.9984 15.9755C13.9681 15.837 14.7615 15.117 14.9415 14.1566C14.9978 13.8557 14.9984 13.5435 14.9992 13.2333C14.9993 13.169 14.9994 13.1049 15 13.0408C15.0062 12.2115 15.0032 13.3819 14.9999 12.5526C15.001 12.3685 14.9359 12.1902 14.8165 12.0503C14.697 11.9102 14.5313 11.8178 14.3494 11.7899C13.8519 11.7186 13.4458 12.0726 13.4458 12.5888L13.4459 13.5969C13.4454 14.1302 13.131 14.443 12.5945 14.443L6.40593 14.443C5.87156 14.443 5.55671 14.1277 5.55671 13.594C5.55671 12.9288 5.55713 13.2636 5.55755 12.5984C5.55874 10.7204 5.55995 9.28418 5.55158 7.4063C5.54939 6.92042 5.9088 6.53939 6.41577 6.5489C7.25438 6.5651 6.09325 6.56032 6.93216 6.55555C7.09585 6.55462 7.25956 6.55368 7.42326 6.55291C7.88055 6.55072 8.22097 6.21134 8.21951 5.77405C8.21804 5.33677 7.87471 4.99994 7.41779 4.99994C6.379 4.99593 7.33985 4.99263 6.30108 4.99994C5.7823 5.00496 5.2801 5.18344 4.87449 5.50698C4.46886 5.83052 4.18314 6.2805 4.06282 6.78525C4.04749 6.85021 4.03395 6.91532 4.02047 6.98016Z"/>
    <path d="M13.1568 5.55577H13.303L13.3277 5.59888C13.2831 5.6303 13.2403 5.66434 13.1996 5.70081C11.1278 7.77315 11.0565 7.84439 8.9855 9.9145C8.97625 9.92385 8.96693 9.93319 8.95762 9.94243C8.9217 9.97824 8.88575 10.014 8.85327 10.0526C8.76762 10.1525 8.70886 10.2726 8.68255 10.4015C8.65624 10.5304 8.66325 10.664 8.70294 10.7894C8.74261 10.9148 8.81364 11.0281 8.9093 11.1184C9.00495 11.2088 9.12207 11.2732 9.24958 11.3056C9.56661 11.3864 9.82595 11.2779 10.0531 11.05C12.1365 8.96494 12.2202 8.88018 14.3041 6.79567C14.3288 6.77118 14.3538 6.74727 14.3841 6.7184C14.4016 6.70163 14.4209 6.68318 14.4428 6.66196V6.85011C14.4428 7.13727 14.4425 7.4244 14.4421 7.7115C14.4413 8.28562 14.4404 8.85964 14.4428 9.43365C14.4425 9.53573 14.4622 9.63691 14.5009 9.73138C14.5395 9.82586 14.5964 9.91179 14.6683 9.98426C14.7403 10.0567 14.8257 10.1143 14.9199 10.1538C15.0139 10.1932 15.1149 10.2138 15.2171 10.2141C15.3191 10.2146 15.4203 10.1949 15.5147 10.1562C15.6092 10.1175 15.6951 10.0606 15.7676 9.98865C15.84 9.91676 15.8977 9.83129 15.9371 9.73712C15.9765 9.64296 15.997 9.54195 15.9974 9.43986C16.0009 7.88627 16.0009 6.33256 15.9974 4.77874C15.9964 4.33634 15.6581 4.00645 15.2136 4.00097C15.0587 3.99951 14.9038 4 14.749 4.00049C14.6715 4.00073 14.5941 4.00097 14.5167 4.00097H10.5811C10.2234 4.00134 9.93305 4.20227 9.82167 4.51972C9.64204 5.03118 10.0167 5.55248 10.5738 5.55577C11.1477 5.55748 11.7218 5.55692 12.2959 5.55635C12.5829 5.55606 12.8699 5.55577 13.1568 5.55577Z"/>
</svg>
