<svg viewBox="0 0 20 20" xmlns="http://www.w3.org/2000/svg">
    <path d="M4.02047 6.98022C4.0137 7.01275 4.00695 7.04522 4 7.07757V11V13.9225C4.0084 13.959 4.01643 13.9954 4.02447 14.032C4.04054 14.1051 4.05661 14.1781 4.07561 14.2512C4.1903 14.6969 4.43456 15.0987 4.7775 15.4056C5.12045 15.7125 5.5467 15.9109 6.00232 15.9755C6.0282 15.9814 6.05351 15.9896 6.07793 16L9.50038 16L12.9228 16C12.9472 15.9896 12.9725 15.9814 12.9984 15.9755C13.9681 15.837 14.7615 15.1171 14.9415 14.1566C14.9978 13.8558 14.9984 13.5435 14.9992 13.2334C14.9993 13.1691 14.9994 13.1049 15 13.0409C15.0062 12.2116 15.0032 13.382 14.9999 12.5527C15.001 12.3686 14.9359 12.1903 14.8165 12.0503C14.697 11.9103 14.5313 11.8179 14.3494 11.7899C13.8519 11.7186 13.4458 12.0727 13.4458 12.5889L13.4459 13.597C13.4454 14.1303 13.131 14.4431 12.5945 14.4431L6.40593 14.4431C5.87156 14.4431 5.55671 14.1277 5.55671 13.594C5.55671 12.9288 5.55713 13.2636 5.55755 12.5985C5.55874 10.7204 5.55995 9.28424 5.55158 7.40636C5.54939 6.92048 5.9088 6.53946 6.41577 6.54896C7.25438 6.56516 6.09325 6.56038 6.93216 6.55562C7.09585 6.55468 7.25956 6.55375 7.42326 6.55297C7.88055 6.55078 8.22097 6.2114 8.21951 5.77411C8.21804 5.33683 7.87471 5 7.41779 5C6.379 4.99599 7.33985 4.99269 6.30108 5C5.7823 5.00502 5.2801 5.18351 4.87449 5.50704C4.46886 5.83058 4.18314 6.28056 4.06282 6.78531C4.04749 6.85027 4.03395 6.91538 4.02047 6.98022Z"/>
    <path d="M13.1568 5.55577H13.3029L13.3277 5.59888C13.2831 5.6303 13.2403 5.66434 13.1995 5.70081C11.1278 7.77315 11.0564 7.84439 8.98548 9.9145C8.97623 9.92385 8.96692 9.93319 8.95761 9.94243C8.92168 9.97824 8.88574 10.014 8.85325 10.0526C8.7676 10.1525 8.70884 10.2726 8.68253 10.4015C8.65623 10.5304 8.66324 10.664 8.70292 10.7894C8.74259 10.9148 8.81362 11.0281 8.90928 11.1184C9.00493 11.2088 9.12205 11.2732 9.24956 11.3056C9.56659 11.3864 9.82593 11.2779 10.0531 11.05C12.1365 8.96494 12.2202 8.88018 14.304 6.79567C14.3288 6.77118 14.3538 6.74727 14.384 6.7184C14.4016 6.70163 14.4209 6.68318 14.4428 6.66196V6.85011C14.4428 7.13727 14.4425 7.4244 14.4421 7.7115C14.4413 8.28562 14.4404 8.85964 14.4428 9.43365C14.4425 9.53573 14.4622 9.63691 14.5009 9.73138C14.5395 9.82586 14.5964 9.91179 14.6683 9.98426C14.7402 10.0567 14.8257 10.1143 14.9199 10.1538C15.0139 10.1932 15.1149 10.2138 15.2171 10.2141C15.3191 10.2146 15.4203 10.1949 15.5147 10.1562C15.6092 10.1175 15.6951 10.0606 15.7676 9.98865C15.84 9.91676 15.8977 9.83129 15.937 9.73712C15.9765 9.64296 15.997 9.54195 15.9974 9.43986C16.0009 7.88627 16.0009 6.33256 15.9974 4.77874C15.9964 4.33634 15.6581 4.00645 15.2136 4.00097C15.0587 3.99951 14.9038 4 14.749 4.00049C14.6715 4.00073 14.5941 4.00097 14.5166 4.00097H10.5811C10.2234 4.00134 9.93304 4.20227 9.82165 4.51972C9.64203 5.03118 10.0167 5.55248 10.5737 5.55577C11.1477 5.55748 11.7218 5.55692 12.2959 5.55635C12.5829 5.55606 12.8699 5.55577 13.1568 5.55577Z"/>
</svg>
