<svg width="18" height="16" viewBox="0 0 18 16" xmlns="http://www.w3.org/2000/svg">
    <path d="M1.84617 9.70031H2.17898C3.21461 9.70031 4.24992 9.70031 5.28492 9.70031C6.09539 9.70031 6.67992 10.1048 6.96539 10.8605C7.12945 11.295 7.25836 11.385 7.71914 11.385C8.59054 11.385 9.46242 11.3789 10.3338 11.3883C10.6395 11.3916 10.8316 11.257 10.9432 10.987C10.9751 10.912 11.0023 10.8347 11.0327 10.7587C11.155 10.4493 11.3669 10.1833 11.6412 9.99503C11.9155 9.80671 12.2398 9.70458 12.5726 9.70172C13.2391 9.69563 13.9062 9.69797 14.5727 9.70172C14.9032 9.70172 15.1507 9.94406 15.154 10.2563C15.1573 10.5755 14.9079 10.8216 14.568 10.8234C13.9362 10.8263 13.3024 10.8314 12.6729 10.8211C12.3743 10.8159 12.1863 10.9509 12.0705 11.2111C12.0326 11.2964 12.0054 11.3864 11.967 11.4712C11.6716 12.1252 11.1649 12.4875 10.4529 12.5025C9.47648 12.5236 8.49914 12.5128 7.52226 12.5067C7.18948 12.504 6.86509 12.4019 6.59079 12.2135C6.31648 12.025 6.10478 11.7589 5.98289 11.4492C5.94773 11.3625 5.9182 11.2734 5.87883 11.1891C5.76445 10.943 5.58117 10.8197 5.29851 10.8211C3.94711 10.8272 2.59617 10.8239 1.24523 10.8211C0.729609 10.8211 0.479297 10.5047 0.603047 10.0102C1.26742 7.35391 1.93195 4.69672 2.59664 2.03859C2.79914 1.22297 3.44508 0.715312 4.28836 0.714844C7.41773 0.714844 10.547 0.714844 13.676 0.714844C14.5113 0.714844 15.1605 1.21969 15.3635 2.02734C16.0316 4.69672 16.698 7.36594 17.3627 10.035C17.3887 10.1424 17.4018 10.2526 17.4016 10.3631C17.4044 11.4278 17.4044 12.4925 17.4016 13.5572C17.4016 14.5884 16.6779 15.315 15.6476 15.3155C11.2026 15.3155 6.75726 15.3155 2.31164 15.3155C1.28039 15.3155 0.559453 14.5889 0.556641 13.5577C0.556641 13.2183 0.556641 12.8789 0.556641 12.5395C0.556641 12.2002 0.796641 11.948 1.11773 11.9475C1.43883 11.947 1.67695 12.1969 1.68023 12.5391C1.68352 12.8897 1.68023 13.2422 1.68023 13.5919C1.68258 13.9608 1.91461 14.1928 2.28586 14.1928C6.74836 14.1928 11.2112 14.1928 15.6743 14.1928C16.046 14.1928 16.2776 13.9617 16.2785 13.5909C16.2785 12.532 16.2949 11.4727 16.2696 10.4142C16.2616 10.1002 16.143 9.7875 16.0657 9.47672C15.4719 7.10172 14.8782 4.72781 14.2845 2.355C14.1907 1.97766 14.0126 1.83937 13.6259 1.83937H4.32633C3.95133 1.83937 3.76945 1.98234 3.67805 2.34703C3.07711 4.74891 2.47602 7.15109 1.87477 9.55359C1.86586 9.59391 1.85977 9.63234 1.84617 9.70031Z" />
    <path d="M9.54208 7.78786C9.79099 7.53755 10.0029 7.32192 10.2176 7.10864C10.4838 6.8438 10.8213 6.82739 11.0571 7.06645C11.2929 7.30552 11.2746 7.63552 11.0172 7.89427C10.486 8.42958 9.95255 8.96317 9.41693 9.49505C9.1413 9.7688 8.81552 9.76505 8.53755 9.48802C8.0063 8.9602 7.47693 8.43099 6.94943 7.90036C6.68505 7.63458 6.67052 7.29614 6.91005 7.06083C7.14958 6.82552 7.47818 6.84521 7.73693 7.10255C7.95291 7.32792 8.18057 7.54181 8.41896 7.74333V7.56661C8.41896 6.23317 8.41896 4.89974 8.41896 3.5663C8.41896 3.12755 8.80568 2.84724 9.18911 3.0038C9.41318 3.0938 9.54068 3.29864 9.54115 3.57755C9.54115 4.87036 9.54115 6.16302 9.54115 7.45552L9.54208 7.78786Z" />
</svg>
