<svg width="20" height="20" viewBox="0 0 20 20" xmlns="http://www.w3.org/2000/svg">
    <path d="M15 5.5H5C4.72386 5.5 4.5 5.72386 4.5 6V14C4.5 14.2761 4.72386 14.5 5 14.5H11V16H5C3.89543 16 3 15.1046 3 14V6C3 4.89543 3.89543 4 5 4H15C16.1046 4 17 4.89543 17 6V11H15.5V6C15.5 5.72386 15.2761 5.5 15 5.5ZM14.6 6.55C14.8485 6.88137 14.7814 7.35147 14.45 7.6L10.45 10.6L10 10.9375L9.55002 10.6L5.55 7.6C5.21863 7.35147 5.15147 6.88137 5.4 6.55C5.64853 6.21863 6.11863 6.15147 6.45 6.4L10 9.0625L13.55 6.4C13.8814 6.15147 14.3515 6.21863 14.6 6.55Z"/>
    <path d="M18.5303 12.4697C18.8232 12.7626 18.8232 13.2374 18.5303 13.5303L15 17.0607L12.4697 14.5303C12.1768 14.2374 12.1768 13.7626 12.4697 13.4697C12.7626 13.1768 13.2374 13.1768 13.5303 13.4697L15 14.9393L17.4697 12.4697C17.7626 12.1768 18.2374 12.1768 18.5303 12.4697Z"/>
</svg>
