<svg width="20" height="20" viewBox="0 0 20 20" xmlns="http://www.w3.org/2000/svg">
    <path d="M8.53043 5.53034C8.82333 5.23746 8.82334 4.76258 8.53045 4.46968C8.23757 4.17678 7.76269 4.17677 7.46979 4.46966L3.46979 8.46947L2.93945 8.99979L3.46977 9.53013L7.46977 13.5303C7.76265 13.8232 8.23753 13.8233 8.53043 13.5304C8.82333 13.2375 8.82334 12.7626 8.53046 12.4697L5.81821 9.75732C8.06825 9.78659 9.91585 9.92115 11.3891 10.4551C13.0538 11.0585 14.265 12.1834 14.9496 14.4655C15.0687 14.8623 15.4868 15.0874 15.8835 14.9684C16.2803 14.8494 16.5054 14.4312 16.3864 14.0345C15.571 11.3166 14.029 9.8165 11.9002 9.04491C10.1794 8.42118 8.0955 8.2842 5.80411 8.25654L8.53043 5.53034Z" />
</svg>
