<svg width="20" height="20" viewBox="0 0 20 20" xmlns="http://www.w3.org/2000/svg">
    <path d="M6.24626 4.5C6.24626 4.08579 5.91048 3.75 5.49626 3.75C5.08205 3.75 4.74626 4.08579 4.74626 4.5V8.5V9.25H5.49626H9.00005C9.41426 9.25 9.75005 8.91421 9.75005 8.5C9.75005 8.08579 9.41426 7.75 9.00005 7.75H7.0373C7.84281 6.74356 9.0923 6.09619 10.4986 6.09619C12.9399 6.09619 14.9001 8.04369 14.9001 10.4231C14.9001 12.8025 12.9399 14.75 10.4986 14.75C9.2956 14.75 8.20819 14.2766 7.41435 13.51C7.1164 13.2223 6.6416 13.2305 6.35385 13.5285C6.06611 13.8264 6.07439 14.3012 6.37234 14.589C7.43678 15.6169 8.89441 16.25 10.4986 16.25C13.7476 16.25 16.4001 13.6515 16.4001 10.4231C16.4001 7.19472 13.7476 4.59619 10.4986 4.59619C8.82974 4.59619 7.32039 5.28101 6.24626 6.38277V4.5Z"/>
</svg>
