<svg width="20" height="20" viewBox="0 0 20 20" xmlns="http://www.w3.org/2000/svg">
    <path d="M4.55556 17C4.12778 17 3.76144 16.8478 3.45656 16.5434C3.15219 16.2386 3 15.8722 3 15.4444H4.55556V17ZM3 13.8889V12.3333H4.55556V13.8889H3ZM3 10.7778V9.22222H4.55556V10.7778H3ZM3 7.66667V6.11111H4.55556V7.66667H3ZM3 4.55556C3 4.12778 3.15219 3.76144 3.45656 3.45656C3.76144 3.15219 4.12778 3 4.55556 3V4.55556H3ZM6.11111 13.8889V6.11111H13.8889V13.8889H6.11111ZM6.11111 17V15.4444H7.66667V17H6.11111ZM6.11111 4.55556V3H7.66667V4.55556H6.11111ZM7.66667 12.3333H12.3333V7.66667H7.66667V12.3333ZM9.22222 17V15.4444H10.7778V17H9.22222ZM9.22222 4.55556V3H10.7778V4.55556H9.22222ZM12.3333 17V15.4444H13.8889V17H12.3333ZM12.3333 4.55556V3H13.8889V4.55556H12.3333ZM15.4444 17V15.4444H17C17 15.8722 16.8478 16.2386 16.5434 16.5434C16.2386 16.8478 15.8722 17 15.4444 17ZM15.4444 13.8889V12.3333H17V13.8889H15.4444ZM15.4444 10.7778V9.22222H17V10.7778H15.4444ZM15.4444 7.66667V6.11111H17V7.66667H15.4444ZM15.4444 4.55556V3C15.8722 3 16.2386 3.15219 16.5434 3.45656C16.8478 3.76144 17 4.12778 17 4.55556H15.4444Z" />
</svg>
