<svg width="18" height="16" viewBox="0 0 18 16" fill="currentColor" xmlns="http://www.w3.org/2000/svg">
    <path d="M14.0343 3.37682L12.1884 4.45494C11.0681 5.10838 9.94496 5.75713 8.82887 6.41807C8.17824 6.80291 7.5459 6.80666 6.89199 6.42182C5.22606 5.43838 3.55309 4.46854 1.88246 3.49354C1.82762 3.46166 1.77137 3.43072 1.69777 3.389C1.69043 3.43466 1.68543 3.48065 1.68277 3.52682C1.68277 5.75588 1.68277 7.98463 1.68277 10.2131C1.68277 10.5928 1.91715 10.8224 2.2973 10.8224C3.76606 10.8224 5.23402 10.8224 6.70121 10.8224C7.13527 10.8224 7.41793 11.2237 7.25059 11.601C7.14793 11.8317 6.9609 11.9446 6.70684 11.9446H4.47793C3.75918 11.9446 3.04043 11.9446 2.32168 11.9446C1.29043 11.9446 0.561992 11.2213 0.561523 10.1929C0.561523 7.61916 0.561523 5.04541 0.561523 2.47166C0.561523 1.4676 1.31152 0.715254 2.31137 0.714785C6.01918 0.71291 9.72715 0.71291 13.4353 0.714785C14.4229 0.714785 15.1551 1.44604 15.1584 2.43229C15.1626 3.71338 15.1584 4.99447 15.1584 6.27604C15.1584 6.63463 14.924 6.88822 14.602 6.89057C14.2706 6.89338 14.0367 6.63744 14.0362 6.2676C14.0362 5.37853 14.0362 4.48947 14.0362 3.60041L14.0343 3.37682ZM1.77418 2.12572C1.85012 2.1726 1.91762 2.21525 1.98699 2.25603C3.80856 3.31916 5.63246 4.37854 7.45027 5.44869C7.73668 5.61697 7.98184 5.61463 8.26637 5.44869C9.98856 4.43525 11.7164 3.43307 13.4423 2.42478C13.6073 2.33103 13.7704 2.23025 13.9481 2.12525C13.8075 1.89979 13.6125 1.83838 13.3753 1.83885C9.69652 1.84072 6.01777 1.84072 2.33902 1.83885C2.29213 1.83663 2.24514 1.83772 2.1984 1.84213C2.01559 1.86744 1.86887 1.94338 1.77418 2.12572Z" />
    <path d="M12.3523 13.0716C11.3107 13.0908 10.3807 13.373 9.53976 13.9364C9.08985 14.2344 8.69203 14.6043 8.36226 15.0314C8.22632 15.2081 8.05804 15.3211 7.82695 15.3127C7.51711 15.301 7.29257 15.0492 7.30101 14.707C7.33757 13.2286 7.89445 11.9803 8.99461 10.9899C9.91148 10.1644 11.0004 9.74955 12.2318 9.70408C12.2655 9.70408 12.2993 9.69892 12.3523 9.69517V9.50017C12.3523 9.01502 12.3494 8.52939 12.3523 8.04423C12.3546 7.80095 12.4657 7.6172 12.6912 7.51595C12.9166 7.4147 13.1168 7.45548 13.2963 7.6097C14.5935 8.71939 15.8894 9.83048 17.1841 10.943C17.4794 11.1975 17.4827 11.5753 17.1898 11.828C15.8969 12.9427 14.6012 14.0541 13.3024 15.1622C13.1177 15.3202 12.9077 15.3614 12.6823 15.256C12.4568 15.1505 12.3541 14.9644 12.3541 14.7216C12.3509 14.242 12.3541 13.7625 12.3541 13.283L12.3523 13.0716ZM13.4773 13.5403L15.9841 11.3874L13.4759 9.23861V9.75939C13.4759 9.92345 13.4759 10.0875 13.4759 10.2511C13.4693 10.5919 13.2415 10.8188 12.8993 10.8239C12.6649 10.8277 12.4305 10.816 12.1962 10.8314C10.7524 10.9252 9.66117 11.5997 8.92242 12.8433C8.89007 12.8981 8.86664 12.9581 8.83101 13.0308C9.12914 12.8663 9.39351 12.7064 9.67101 12.5686C10.6741 12.0699 11.7448 11.9124 12.8538 11.9447C13.2499 11.9574 13.473 12.172 13.4749 12.5672C13.4763 12.8752 13.4749 13.1841 13.4749 13.5385L13.4773 13.5403Z" />
</svg>
