<svg viewBox="0 0 20 20" xmlns="http://www.w3.org/2000/svg">
    <path d="M13.5 9C14.8807 9 16 7.88071 16 6.5C16 5.11929 14.8807 4 13.5 4C12.1193 4 11 5.11929 11 6.5C11 6.55338 11.0017 6.60636 11.005 6.65891L8.1241 8.09934C7.68722 7.72567 7.11996 7.5 6.5 7.5C5.11929 7.5 4 8.61929 4 10C4 11.3807 5.11929 12.5 6.5 12.5C7.12002 12.5 7.68732 12.2743 8.12422 11.9006L11.005 13.3409C11.0017 13.3935 11 13.4466 11 13.5C11 14.8807 12.1193 16 13.5 16C14.8807 16 16 14.8807 16 13.5C16 12.1193 14.8807 11 13.5 11C12.7111 11 12.0076 11.3654 11.5494 11.9361L8.92192 10.6224C8.97289 10.4234 9 10.2149 9 10C9 9.78509 8.97288 9.57651 8.92188 9.3775L11.5493 8.06377C12.0075 8.63458 12.7111 9 13.5 9Z"/>
</svg>
