<svg viewBox="0 0 601 137" xmlns="http://www.w3.org/2000/svg">
    <path d="M375.695 80.5001C373.995 72.3001 366.795 68.1001 354.495 65.2001C341.595 62.2001 338.295 59.3001 338.395 54.0001C338.395 49.6001 341.895 46.1001 348.795 46.1001C354.995 46.1001 361.795 49.1001 367.795 53.5001L374.095 44.8001C367.295 39.4001 358.295 36.3001 348.495 36.3001C335.095 36.3001 326.595 43.6001 326.595 55.1001C326.595 67.4001 334.895 72.1001 349.195 75.5001C361.595 78.4001 364.295 80.9001 364.295 85.7001C364.295 90.8001 360.995 94.6001 353.695 94.6001C345.395 94.6001 337.695 91.0001 331.295 85.5001L324.195 93.8001C332.195 100.8 343.095 104.8 353.395 104.8C367.495 104.8 376.095 97.0001 376.095 84.6001C376.095 83.1001 375.995 81.8001 375.695 80.5001ZM247.095 103.9H235.295V37.5001H247.095V103.9ZM467.095 37.5001L450.995 86.4001L434.395 37.5001H424.295L407.695 86.4001L391.595 37.5001H378.795L402.295 103.9H412.595L429.195 56.6001L445.795 103.9H455.995L479.495 37.5001H467.095ZM557.295 81.8001H573.595C589.395 81.8001 600.395 73.8001 600.495 59.0001C600.495 45.5001 590.595 37.6001 574.995 37.6001H545.495V103.9H557.295V81.8001ZM557.295 48.1001H573.995C582.795 48.1001 588.495 50.3001 588.495 59.5001C588.495 68.0001 582.895 71.4001 573.995 71.4001H557.295V48.1001ZM289.595 81.6001L304.295 103.9H318.095L301.795 79.6001C311.195 77.1001 317.795 70.5001 317.795 59.6001C317.795 46.7001 308.295 37.6001 292.895 37.6001H262.995V103.9H274.795V81.6001H289.595ZM274.795 48.1001H291.995C300.695 48.1001 305.895 52.3001 305.795 59.5001C305.795 66.3001 300.395 71.3001 291.995 71.3001H274.795V48.1001ZM169.695 103.9H157.295L185.295 37.6001H196.895L224.295 103.9H211.895L204.795 87.0001C178.595 84.8001 169.695 103.9 169.695 103.9ZM200.895 76.5001L191.295 51.4001L179.795 81.2001C190.395 76.1001 200.895 76.5001 200.895 76.5001ZM498.695 37.5001H510.295L538.295 103.8H525.895C525.895 103.8 516.995 84.7001 490.795 86.9001L483.695 103.8H471.295L498.695 37.5001ZM494.795 76.5001C494.795 76.5001 505.395 76.1001 515.895 81.2001L504.395 51.4001L494.795 76.5001Z" fill="#2b71ff"/>
    <path d="M102.1 102.2L67.9999 136.4L51.0999 119.4C69.2999 118.3 86.9999 112.4 102.1 102.2ZM84.3999 82.8001C65.8999 71.3001 44.4999 65.4001 22.5999 65.4001C50.9999 53.1001 85.7999 51.3001 117.8 69.8001C107.7 76.3001 96.2999 80.7001 84.3999 82.8001ZM134.4 67.1001L130.2 62.9001L67.9999 0.600098L5.7999 63.0001L0.399902 68.4001C1.0999 68.9001 1.6999 69.5001 2.2999 70.1001C4.4999 72.0001 6.6999 73.7001 9.0999 75.3001C33.6999 92.7001 64.1999 97.9001 92.3999 91.0001C103.9 88.2001 114.8 83.4001 124.7 76.8001C127.1 75.1001 129.5 73.4001 131.8 71.6001C133.1 70.6001 134.3 69.5001 135.6 68.4001L134.4 67.1001Z" fill="#2b71ff"/>
</svg>
