<svg viewBox="0 0 601 202" xmlns="http://www.w3.org/2000/svg">
    <path d="M237.5 40.3999H261.7V137.2H285.9V16.2H261.7C248.4 16.2 237.5 27.0999 237.5 40.3999ZM310.1 137.3H334.3V88.8999C334.3 75.5999 323.4 64.7 310.1 64.7V137.3ZM358.5 64.7V137.3H382.7V88.8999H407V113.1C407 126.4 417.9 137.3 431.2 137.3V88.8999C431.2 75.5999 420.3 64.7 407 64.7H358.5ZM576.4 64.7H552.2V40.5C552.2 27.2 541.3 16.3 528 16.3V113.1H479.6V88.8999H503.8V64.7H479.6C466.3 64.7 455.4 75.5999 455.4 88.8999V113.1C455.4 126.4 466.3 137.3 479.6 137.3H552.2V88.8999H576.4V113.1C576.4 126.4 587.3 137.3 600.6 137.3V88.8999C600.7 75.5999 589.8 64.7 576.4 64.7ZM310.1 40.3999H334.3C334.3 27.0999 323.4 16.2 310.1 16.2V40.3999Z" fill="black"/>
    <path d="M275.2 161.5V177.1H273L264.3 166.3V177.1H261.7V161.5H263.9L272.6 172.4V161.5H275.2ZM324.5 177.2H315.1V161.6H324.3V164.2H317.9V168.1H323.6V170.7H317.9V174.7H324.5V177.2ZM364.3 164.1H369.4V177.2H372.2V164.1H377.3V161.5H364.2V164.1H364.3ZM436.6 161.5H439.3L434.8 177.1H432.2L428.4 165.8L424.6 177.1H422L417.3 161.5H420.4L423.6 172.7L427.1 161.5H429.9L433.5 172.7L436.6 161.5ZM481.5 163.8C480 165.3 479.2 167.3 479.2 169.5C479.2 171.9 480 173.8 481.5 175.3C483.1 176.8 485 177.5 487.4 177.5C489.8 177.5 491.7 176.7 493.3 175.2C494.9 173.7 495.7 171.7 495.7 169.4C495.7 167 494.9 165.1 493.3 163.6C491.7 162.1 489.8 161.4 487.4 161.4C485 161.5 483.1 162.3 481.5 163.8ZM483.6 173.5C482.6 172.5 482.1 171.1 482.1 169.6C482.1 168 482.6 166.7 483.6 165.6C484.6 164.6 485.9 164.1 487.4 164.1C488.9 164.1 490.2 164.6 491.2 165.6C492.2 166.6 492.7 168 492.7 169.6C492.7 171.2 492.2 172.5 491.3 173.5C490.3 174.5 489.1 175.1 487.4 175.1C485.9 175.1 484.6 174.6 483.6 173.5ZM538.3 171.3V177.2H535.5V161.6C536.3 161.6 537.1 161.6 538.1 161.6C539 161.6 539.8 161.6 540.4 161.6C544.2 161.6 546.1 163.2 546.1 166.4C546.1 167.6 545.8 168.6 545.2 169.4C544.6 170.1 543.9 170.7 543.1 170.9L548.1 177.3H544.7L540.3 171.4H538.3V171.3ZM540.2 164.1C540.1 164.1 540 164.1 539.8 164.1C539.6 164.1 539.4 164.1 539.1 164.1H538.3V168.8H540.1C541 168.8 541.7 168.6 542.3 168.2C542.9 167.8 543.2 167.2 543.2 166.4C543.2 164.8 542.2 164.1 540.2 164.1ZM587.9 177.2H590.7V169.1L597.2 177.2H600.7L593.8 168.8L600.3 161.5H597L590.8 168.9V161.5H588V177.2H587.9Z" fill="#2F7AEA"/>
    <path d="M51.6001 111.3L57.2001 68.8L8.1001 34.7L53.0001 49.8L63.6001 33.6L102.3 9.59998L187.6 56.6L192 128.3L154 181L124 185.6L139.5 157.2V129.8L128.2 108.4L116.7 100.8L99.0001 119V138.2L85.2001 151.1L67.7001 153.2L59.9001 157.6L47.2001 153.5L42.0001 134.6L51.5001 121.2V111.3H51.6001Z" fill="white"/>
    <path d="M129.9 34.3C120.5 32.4 110.3 32.9 110.3 32.9C110.3 32.9 106.9 48.4 86.1002 52.5C86.3002 52.5 113.7 61.8 129.9 34.3ZM138.4 175.2C149.7 166.4 158.2 154.2 162.1 140.4C162.3 139.9 163.9 139 164.9 138.3C166.7 137.2 168.4 136.4 168.8 134.9C169.5 130.8 169.9 126.6 169.9 122.4C169.9 120.8 168.3 119.2 166.7 117.6C165.5 116.5 164.2 115.3 164.2 114.4C162.4 98.3 155 83.3 143.2 72.4L142 73.6C153.5 84.4 160.9 99 162.5 114.6C162.7 116 164.1 117.4 165.5 118.8C166.7 119.9 168.1 121.4 168.1 122.2C168.1 126.3 167.7 130.3 167 134.4C166.8 135.1 165.2 135.8 164 136.5C162.2 137.4 160.6 138.3 160.3 139.7C156.1 154.7 146.4 167.8 133.5 176.2C135.8 171.3 143 155.2 146.9 147.1L146.2 121L123.8 99.3L111.1 101.1L97.2002 123.7C97.2002 123.7 103.7 132 94.6002 141.7C85.6002 151.2 78.5002 153.4 78.5002 153.4L72.0002 149.9C73.9002 147.4 77.8002 143.7 80.8002 141.2C85.9002 137 91.0002 136.6 91.0002 132C91.2002 122.5 80.9002 125.1 80.9002 125.1L77.2002 128.6L75.6002 141.7L67.8002 151.4L66.9002 151.2L54.2002 148.4C54.2002 148.4 62.0002 144.3 63.2002 139.7C64.4002 135.3 60.7002 120.6 60.6002 119.8C60.8002 120 64.3002 123 65.9002 127.9C68.7002 120.1 72.4002 112.7 73.5002 112C74.6002 111.3 88.9002 103.7 88.9002 103.7L84.1002 116.2L87.6002 114.3L96.1002 93.5C96.1002 93.5 104.4 89.4 110.6 89.4C121.7 89.2 138.1 75.6 130.7 51.3C132.8 52.2 169.5 70.5 175.9 106.6C180.6 134.2 164.9 160.2 138.4 175.2Z" fill="#94A6C3"/>
    <path d="M96.4002 38.2C100.5 33.4 98.9002 26.4 98.9002 26.4L87.0002 43.8C86.9002 43.8 91.3002 44 96.4002 38.2ZM56.7002 133.7L58.1002 126.6C58.1002 126.6 52.3002 136.8 51.7002 138.3C51.2002 139.9 52.1002 142.7 54.3002 142.5C56.6002 142.3 59.4002 139 59.4002 136.5C59.5002 133.3 56.7002 133.7 56.7002 133.7ZM161.5 21.4C161.5 21.4 170.3 21.8 179.5 22.8C158.8 6.59998 139.2 1.79998 123.4 1.79998C101.5 1.79998 86.7002 10.8 85.8002 11.3L92.7002 0.399967C92.7002 0.399967 65.2002 -2.20003 55.4002 26.9C52.9002 20.7 50.6002 11.7 50.6002 11.7C50.6002 11.7 36.3002 24.2 43.0002 45.1C26.6002 39.1 3.10021 30.8 2.20021 30.6C1.00021 30.4 0.600211 31 0.600211 31C0.600211 31 0.20021 31.5 1.30021 32.4C3.20021 34 40.3002 61.4 48.4002 66.6C46.6002 73 46.6002 76 48.4002 79C50.9002 83.1 51.0002 85.2 50.7002 88.2C50.3002 91.2 47.2002 117.2 46.5002 120.3C45.8002 123.5 38.4002 134.8 38.7002 138.1C39.1002 141.5 43.6002 155.8 47.7002 157.3C50.7002 158.4 58.1002 160.7 63.1002 160.7C64.9002 160.7 66.5002 160.3 67.2002 159.6C70.2002 157 71.1002 156.4 73.2002 156.4C73.4002 156.4 73.6002 156.4 73.7002 156.4C74.6002 156.4 75.6002 156.6 76.9002 156.6C79.7002 156.6 83.4002 156.1 86.1002 153.6C90.0002 149.7 96.7002 144.4 98.8002 141.9C101.4 138.5 102.9 134 102.2 129.4C101.7 125.2 104 121.5 106.6 117.7C110 113.3 116.1 105.3 116.1 105.3C128.3 114.5 135.9 128.4 135.9 144C135.9 171.5 111.9 193.8 82.2002 193.8C77.6002 193.8 73.2002 193.3 68.8002 192.2C82.4002 197 93.9002 198.6 103.2 198.6C123.1 198.6 133.7 191.4 133.7 191.4C133.7 191.4 130 196.2 124 201.6C124.2 201.6 124.2 201.6 124.2 201.6C157.2 197 173.3 169.8 173.3 169.8C173.3 169.8 172.1 178.6 170.5 184.6C214.5 151.6 207 110.3 206.9 108.9C207.3 109.4 211.7 114.7 214 117.6C221 44.9 161.5 21.4 161.5 21.4ZM93.9002 137.6C93.2002 138.5 90.2002 141.1 88.1002 143.1C86.0002 145 83.7002 147 81.9002 148.7C81.2002 149.4 79.8002 149.8 77.7002 149.8C77.0002 149.8 76.3002 149.8 75.8002 149.8C75.4002 149.8 75.1002 149.8 74.7002 149.8C74.3002 149.8 74.2002 149.8 74.0002 149.8C73.5002 149.8 72.9002 149.8 72.4002 149.8C75.0002 146.3 82.8002 138.1 85.5002 136.4C88.7002 134.3 90.3002 132.2 88.3002 128.5C86.4002 124.8 81.2002 125.7 81.2002 125.7C81.2002 125.7 84.2002 124.5 86.8002 124.5C83.4002 123.6 79.2002 124.5 77.3002 126.4C75.2002 128.3 75.5002 135.2 74.7002 139.6C73.8002 144.2 70.8002 146.5 66.2002 150.7C63.7002 153 62.0002 153.7 60.6002 153.7C57.6002 153.2 54.1002 152.3 51.6002 151.4C49.8002 149.1 47.2002 141.5 46.5002 138.3C47.0002 136.5 49.1002 132.8 50.2002 130.7C52.3002 126.6 53.6002 124.3 53.9002 122.2C54.6002 119.2 56.9002 100.7 57.8002 92.9C60.1002 95.9 63.3002 100.8 62.6002 104C67.7002 96.8 64.0002 89.7 62.2002 86.9C60.6002 84.1 58.5002 78.4 60.3002 72.4C62.1002 66.4 68.4002 49.8 68.4002 49.8C68.4002 49.8 70.5002 53.5 73.5002 52.8C76.5002 52.1 100.7 15.7 100.7 15.7C100.7 15.7 107.2 30 100.3 40.4C93.2002 50.8 86.4002 52.8 86.4002 52.8C86.4002 52.8 96.1002 54.6 105.1 48C108.8 56.7 112.3 65.7 112.5 66.9C112 68.1 104.9 85.1 104.2 86.1C103.8 86.5 101.4 87.2 99.6002 87.5C96.6002 88.4 94.8002 88.9 94.1002 89.4C92.9002 90.5 87.2002 106 84.6002 113.6C81.4002 114.5 78.2002 116.2 75.9002 119.8C77.1002 118.9 81.0002 118.4 83.8002 118C86.3002 117.8 93.9002 121.9 95.8002 129.5C95.8002 129.7 95.8002 129.7 95.8002 129.9C96.2002 132.8 95.3002 135.5 93.9002 137.6ZM77.3002 139.7C78.9002 137.4 78.7002 133.5 78.9002 132.3C79.1002 131.1 79.4002 128.8 80.8002 128.4C82.2002 128 85.6002 128.6 85.6002 131C85.6002 133.3 83.1002 133.8 81.4002 135.4C80.2002 136.7 77.7002 139.3 77.3002 139.7ZM147.8 106C149.6 97 149.7 89.2 149.2 82.9C156.1 92.1 160.3 103.2 161.6 114.7C161.8 116.1 163.2 117.5 164.6 118.9C165.8 120 167.2 121.4 167.2 122.3C167.2 126.4 166.8 130.4 166.1 134.5C165.9 135 164.3 135.9 163.1 136.6C161.3 137.5 159.7 138.4 159.4 139.8C155.5 153.4 147.2 165.4 136.1 173.9C152.5 156.7 160.5 128.4 147.8 106ZM136.7 175.4C148.2 166.6 157 154.2 160.9 140.3C161.1 139.8 162.7 138.9 163.7 138.2C165.5 137.3 167.2 136.3 167.6 134.8C168.3 130.7 168.7 126.5 168.7 122.3C168.7 120.7 167.1 119.1 165.5 117.5C164.6 116.4 163.2 115.2 163.2 114.3C161.8 101.4 156.7 89.2 148.7 79.2C145.2 58 131 51.5 130.7 51.3C131.1 51.8 140.2 65.1 133.9 80.6C127.4 96.3 110.6 93.8 109.2 94C107.8 94 102.3 101.1 95.4002 114.1C94.5002 113.7 90.8002 112.9 86.6002 113.6C89.8002 104.8 94.5002 92.2 95.4002 91.2C95.8002 90.8 98.4002 90.1 100.2 89.6C103.6 88.7 105.1 88.2 105.7 87.5C106.1 87 107.8 82.9 109.6 78.7C111.2 78.7 115.2 78.3 115.6 78.2C116 77.8 119.3 69.2 119.3 68.1C119.3 67.2 112.4 50.1 109.8 43.6C111 42.2 112.3 40.4 113.5 38.5C149.7 42.4 177.9 73.1 177.9 110.4C177.8 138.8 161 163.7 136.7 175.4ZM89.7002 80C93.1002 76.1 91.3002 68.9 85.1002 67.6C86.7002 63.9 89.0002 56.5 89.0002 56.5C89.0002 56.5 71.0002 84.7 69.4002 85.3C67.8002 85.8 66.2002 79.7 66.2002 79.7C62.8002 92.6 71.8002 94.4 72.9002 90.3C77.9002 89 86.3002 83.7 89.7002 80Z" fill="#1B314F"/>
    <path d="M74.2998 86.8999L83.4998 71.2C83.4998 71.2 88.7998 73.7999 86.0998 78.0999C82.7998 82.9999 74.2998 86.8999 74.2998 86.8999Z" fill="#FFD923"/>
    <path d="M187.8 159.7C185.2 163.2 182.2 166.9 178.6 170.5C201.4 126.7 179.7 86.6 178.8 85.1C180.4 86.7 182 88.5 183.4 90C200.9 109.3 203 138.5 187.8 159.7ZM209 103.3C201.1 81.9 189.8 63.8 164.9 47.3C140.9 31.4 115.1 32.6 113.7 32.8C113.5 32.8 113.3 32.8 113.3 32.8C114.2 32.4 115.1 32.3 115.9 32.1C121.4 30.3 128.4 28.9 135.5 28C154.2 25.4 173.1 31.7 186 45.3C186.2 45.5 186.2 45.5 186.4 45.7C201.1 61.3 208.7 80.7 209 103.3ZM159.2 15.9C132.9 11 115.9 13.4 103.8 18C103.4 16.6 102.2 13.8 101.2 11.5C97.4999 15.9 93.5999 21.2 91.0999 24.6C84.3999 29.2 81.5999 33.6 81.5999 33.6C85.4999 20.4 96.7999 10.5 110.6 7.99997C114.5 7.29997 118.7 6.89996 123.3 6.89996C135.4 7.09996 147.6 10.1 159.2 15.9ZM61.9999 49.8C41.2999 49.1 48.1999 25.1 48.5999 23.7C48.5999 23.9 49.9999 42.6 61.9999 49.8ZM82.2999 6.59998C66.3999 16.1 69.5999 38.9 69.5999 38.9C54.3999 15.8 80.9999 7.09998 82.2999 6.59998Z" fill="#D82122"/>
    <path d="M56.1999 56.2001C57.2999 57.1001 58.2999 58.7001 57.0999 61.0001C56.3999 62.2001 55.2999 62.1001 53.6999 61.4001C51.5999 60.3001 38.8999 52.9 27.3999 45.3C40.4999 49.9 53.6999 54.8001 55.7999 55.9001C55.7999 55.8001 55.9999 56.0001 56.1999 56.2001Z" fill="white"/>
</svg>
