<svg viewBox="0 0 625 98" xmlns="http://www.w3.org/2000/svg">
    <path fill-rule="evenodd" clip-rule="evenodd" d="M518.6 20.5001C518.05 20.6001 517.475 20.7251 516.9 20.8501C516.325 20.9751 515.75 21.1001 515.2 21.2001C515.253 21.6839 515.336 22.1099 515.417 22.5247L515.417 22.528L515.419 22.5352L515.42 22.5423C515.488 22.893 515.554 23.2362 515.6 23.6001C515.9 25.0001 516.1 26.2001 516.1 27.1001L517.7 26.9001C522 26.3001 526.2 25.8001 530.3 25.5001C541.8 24.5001 547.3 29.7001 547.3 41.3001V71.7001H542.1C541.041 71.7001 539.995 71.7065 538.959 71.7128H538.958H538.956C535.882 71.7314 532.891 71.7496 529.9 71.6001C527.3 71.4001 524.4 70.6001 521.9 69.6001C518.5 68.3001 517 65.3001 516.6 61.6001C516.2 57.7001 517.4 54.2001 520.9 52.5001C524 51.1001 527.3 50.1001 530.7 49.5001C532.214 49.261 533.728 49.2759 535.343 49.2919C535.755 49.2959 536.173 49.3001 536.6 49.3001C537.038 49.3001 537.476 49.3238 537.926 49.3481C538.4 49.3737 538.886 49.4001 539.4 49.4001V43.4001C535.4 42.1001 524.8 43.1001 519.5 45.2001C511.8 48.2001 507.9 53.6001 508.1 60.9001C508.4 69.0001 512.4 74.3001 520.4 76.7001C531.1 79.9001 541.7 78.3001 552.3 76.6001C552.814 76.5066 553.328 76.4349 553.832 76.3647C554.406 76.2847 554.967 76.2066 555.5 76.1001C555.8 75.7001 555.9 75.5001 555.9 75.3001C555.9 71.4001 555.9 67.5001 556 63.6001C556.1 54.8001 556.1 45.9001 555.8 37.1001C555.4 29.0001 551.1 23.1001 543.2 20.4001C537.2 18.4001 531.1 18.8001 525 19.3001C523.688 19.4874 522.377 19.7528 521.041 20.0231C520.238 20.1856 519.426 20.3499 518.6 20.5001ZM152.9 97.6001V74.5001L153.4 74.7001C153.526 74.7561 153.644 74.8082 153.755 74.8572L153.758 74.8585L153.758 74.8586L153.759 74.8586C154.439 75.1587 154.856 75.3425 155.2 75.6001C165.5 80.0001 175.8 80.4001 185.9 75.2001C194.7 70.6001 198.7 62.7001 199.7 53.0001C201.3 38.6001 194.6 25.2001 179.6 20.9001C168.3 17.6001 157.2 19.2001 146 21.9001C144.4 22.3001 144.4 23.3001 144.5 24.3001V24.9001V94.9001C144.5 95.7998 144.6 96.6995 144.7 97.5993L144.7 97.6001H152.9ZM152.9 52.2001V47.4001V41.6001V29.8001C152.9 27.9001 153.5 27.2001 155.4 26.9001C161.8 25.8001 168.3 25.1001 174.8 26.6001C187.5 29.7001 192 39.7001 191.1 51.9001C190.9 53.8001 190.6 55.7001 190.1 57.5001C188.1 66.1001 181.3 71.5001 172.7 71.9001C166.8 72.2001 161.3 71.2 155.9 68.8C153.8 67.9001 152.8 66.7001 152.9 64.1001C152.966 61.5037 152.944 58.863 152.922 56.2075C152.911 54.8742 152.9 53.5371 152.9 52.2001ZM577.8 97.7V74.9C578.765 75.1412 579.665 75.5116 580.5 75.8554C580.704 75.9393 580.904 76.0216 581.1 76.1L581.355 76.189L581.652 76.2924C583.753 77.0258 585.777 77.7321 587.8 78.1C591.3 78.7 594.9 78.7 598.4 78.7C609.6 78.5 619.6 71.2 622.9 60.5C624.1 56.5 624.6 52.2 624.6 48C624.8 34.9 616.9 24.4 604.4 20.9C593.2 17.7 582 19.3 570.8 22C569.2 22.4 569.3 23.4 569.4 24.4C569.5 24.6 569.5 24.9 569.5 25.1V94.8V96.3V97.7H577.8ZM577.8 64.8V53.1V53.0964C577.8 51.0977 577.8 49.1988 577.9 47.2C577.833 45.0005 577.856 42.8454 577.878 40.7051V40.7031V40.701V40.6989V40.6968V40.6948V40.6927L577.878 40.6817C577.889 39.6187 577.9 38.5594 577.9 37.5C578 35.4 578 33.2 578 31.1C577.8 28.3 578.4 27.2 581.4 26.8C588 26 594.5 25.3 601 27.1C610.1 29.6 615.9 36.9 616 46.5C616 50.4 615.8 54.2 614.9 58C613 66.2 607.4 70.6 599.4 71.8C592.7 72.7 586.1 71.5 579.9 68.3C578.3 67.5 577.8 66.6 577.8 64.8ZM500.903 28.7922L500.9 28.8C498.9 35.3 496.9 41.6 494.5 47.8C492.3 53.5 489.8 59.1001 487.3 64.7001C485.7 68.2001 484.2 71.7001 482.7 75.2001C482 76.9001 481 77.8 479.1 77.4C478.4 77.3 477.6 77.3 476.9 77.4C474.6 77.8 473.4 76.7001 472.6 74.6001C467.5 61.8001 462.3 49.0001 457.2 36.5001C457.123 36.7311 457.031 36.9769 456.936 37.2319L456.936 37.2333L456.935 37.2347L456.934 37.2361L456.934 37.2376L456.933 37.2391L456.933 37.2406C456.782 37.6452 456.622 38.0726 456.5 38.5001C456.293 39.0881 456.085 39.688 455.873 40.3C455.473 41.4572 455.058 42.6572 454.6 43.9C452.903 48.0923 451.206 52.3843 449.51 56.6764L449.509 56.6766L449.509 56.6769L449.509 56.6771L449.509 56.6773L449.509 56.6775L449.509 56.6778L449.5 56.7001L449.493 56.7186C447.095 62.7124 444.698 68.7063 442.3 74.8C441.5 76.8 440.4 77.2 438.4 77.5C434.4 78 432.5 76.4001 430.7 72.7001C422.9 56.5001 416.9 39.8 412.1 22.5001C412.047 22.3408 412.022 22.1533 411.995 21.9526V21.9524C411.972 21.7751 411.947 21.5876 411.9 21.4C411.847 21.2407 411.822 21.0532 411.796 20.8524C411.772 20.6752 411.747 20.4876 411.7 20.3H413.9C415.6 20.2 417.3 20.2 419 20.4C419.6 20.5 420.4 21.7 420.7 22.4V22.5001C422.7 28.2436 424.681 33.9872 426.66 39.723L426.661 39.7249L426.663 39.7305L426.667 39.7442L426.675 39.7648C429.342 47.4969 432.005 55.2149 434.7 62.9C435.033 63.8978 435.504 64.8265 435.998 65.8009L435.998 65.8017C436.098 65.999 436.199 66.1981 436.3 66.4C436.7 67.1 437.1 67.9 437.5 68.8C437.8 68.1001 438.1 67.5002 438.4 66.9003L438.4 66.9C439.2 65.2 439.9 63.7001 440.4 62.2001C440.95 60.5001 441.525 58.825 442.1 57.15L442.102 57.1455C442.676 55.472 443.251 53.7985 443.8 52.1001C447.1 42.5001 450.3 32.8001 453.3 23.1001C454.074 20.2936 455.598 20.2967 457.145 20.2998L457.3 20.3H457.301C457.901 20.3 458.5 20.3 459.1 20.2001C461.4 19.8001 461.7 21.2001 462 22.7001C462 22.8001 462.025 22.8751 462.05 22.9501C462.075 23.0251 462.1 23.1001 462.1 23.2001C465.6 38.1001 470.7 52.6001 476.8 66.7001L477.9 69C478.253 68.0599 478.64 67.1542 479.021 66.2628L479.021 66.262L479.021 66.2617L479.021 66.2615L479.022 66.2608L479.023 66.2579C479.29 65.634 479.553 65.017 479.8 64.4C481.2 61.2 482.4 58.2001 483.5 55.2001C487.2 44.3001 490.8 33.3 494.2 22.3C494.6 20.7 495.2 20.0001 496.9 20.2001C498.018 20.349 499.079 20.3315 500.21 20.3129C500.597 20.3065 500.992 20.3 501.4 20.3H503.6C502.701 23.1973 501.802 25.9948 500.903 28.7922ZM314.4 27C314.4 27.2 314.5 27.4 314.8 27.8C314.953 27.7618 315.091 27.7382 315.209 27.718C315.4 27.6854 315.538 27.6618 315.6 27.6C315.75 27.6 315.9 27.575 316.05 27.55C316.2 27.525 316.35 27.5 316.5 27.5C322.1 25.5 327.8 25.5 333.6 25.9C340.6 26.3 345.3 30.9 345.5 38C345.7 46.6 345.7 55.2 345.7 63.7V70.1C345.7 70.3 345.7 70.5 345.6 70.7C345.6 70.8 345.575 70.875 345.55 70.95C345.525 71.025 345.5 71.1 345.5 71.2C345.25 71.25 344.975 71.3 344.7 71.35C344.425 71.4 344.15 71.45 343.9 71.5C343 71.7 342 71.9 341.1 71.8C339.6 71.7 338.201 71.7 336.701 71.7H336.7C336.169 71.689 335.638 71.6791 335.107 71.6693C330.84 71.5902 326.591 71.5115 322.5 70.8C317.4 70 315.1 66.3 315 61.3C314.9 56.4 317.1 53.2 321.9 51.5C324.3 50.6 327.1 50.2 329.7 49.9C331.122 49.7503 332.488 49.7687 333.881 49.7874C334.35 49.7937 334.822 49.8 335.3 49.8H337.5V43.4C329.1 43 321.1 43.5 313.8 47.7C310.4 49.6 308.1 52.5 307 56.3C304.1 67.2 310.9 76.6 322.8 78.2C332.7 79.6 342.4 78.4 352.2 76.7C353.8 76.4 354.4 75.9 354.4 74.2V60.6C354.4 58.8998 354.406 57.1995 354.413 55.4992C354.431 50.3995 354.45 45.2998 354.3 40.2C354 27.8 348.3 21 336.3 19.6C330.6 18.9 324.6 19.6 318.8 20.3C313.221 20.9974 313.299 21.397 314.388 26.9378L314.4 27ZM225.2 78.1C235.6 79.7 245.9 78.2 256.5 76.2V64.5C256.5 62.9476 256.503 61.398 256.506 59.8507V59.8499V59.8491C256.52 52.1275 256.534 44.4637 256.2 36.8C255.8 27.5 250.2 21.6 241.5 20C236.5 19.1 231.3 19.2 226.2 19.4C223.7 19.5 221.2 20 218.7 20.6C217.7 20.9 216.701 21.0999 215.701 21.2999L215.7 21.3C215.783 21.7156 215.849 22.114 215.912 22.4951L215.913 22.4993L215.913 22.5C216.001 23.0339 216.084 23.5339 216.2 24C216.374 24.753 216.514 25.4724 216.64 26.1195L216.64 26.1198L216.641 26.1219C216.732 26.591 216.816 27.022 216.9 27.4L219 27.1C219.449 27.0466 219.896 26.9931 220.341 26.9399C224.056 26.4954 227.628 26.0679 231.2 25.8C242.6 25 248.1 30.1 248.1 41.7V71.2L248.097 71.2004L248.096 71.2004C246.998 71.3003 245.899 71.4001 244.9 71.5C242.8 71.7 240.7 71.8 238.6 71.9H237.3C234.7 72 232 72.1 229.4 71.8C227 71.5 224.5 70.9 222.4 69.8C215.8 66.5 215.1 57 221.3 52.8C223.2 51.7 225.4 50.8 227.5 50.4C230.3 50 233 49.8 235.8 49.6C236.5 49.55 237.175 49.5 237.85 49.45C238.525 49.4 239.2 49.35 239.9 49.3V43.2C231.1 42.9 222.5 43.1 214.9 48.3C207.9 53.2 206.6 63.9 211.7 70.8C215.2 75.4 219.9 77.3 225.2 78.1ZM367 20.0999H369.2C369.631 20.0999 370.056 20.0935 370.475 20.0872L370.475 20.0872C371.706 20.0685 372.881 20.0507 374 20.2C374.6 20.3 375.5 21.5 375.5 22.2C375.7 25.9 375.7 29.5 375.5 33.2C375.2 37.4 377.3 40.1 380.8 41.7C383.3 42.7999 385.9 43.7998 388.499 44.7997L388.5 44.7999C390.9 45.6999 393.4 46.7 395.8 47.7L396.243 47.8893C398.904 49.0278 401.632 50.1946 404 51.8999C412.8 58.3999 411.5 71.0999 401.6 75.5999C398.5 76.9999 395.1 77.8999 391.7 78.2999C383.1 79.1999 374.4 79.2999 366.1 75.3999C366.5 74.0999 366.9 72.8 367.3 71.7L367.301 71.6955C367.501 70.997 367.701 70.2987 367.9 69.7C369.7 70 371.4 70.2999 373.1 70.5999C373.6 70.6856 374.1 70.7734 374.6 70.8611C377.6 71.3877 380.6 71.9142 383.6 71.9999C387.5 72.1999 391.5 71.4999 395.4 70.5999C398.3 69.9999 400.6 67.9999 400.9 64.5999C401.3 60.7999 400.2 57.7 396.7 56.2C393.5 54.8 390.3 53.5 387.1 52.2C386.15 51.8001 385.201 51.4252 384.251 51.0503L384.25 51.0499L384.249 51.0496C383.299 50.6747 382.35 50.2998 381.4 49.8999C380.965 49.6824 380.53 49.5175 380.133 49.367L380.132 49.3665C379.982 49.3096 379.837 49.2548 379.7 49.2C379.6 49.15 379.5 49.125 379.4 49.0999C379.3 49.0749 379.2 49.0499 379.1 48.9999C369.2 44.8999 366.9 41.3999 366.8 30.5999V20.0999H367ZM298.701 26.5L298.7 26.5C295.1 26.2 291.7 26 288.3 26C287.25 26 286.2 26.1687 285.15 26.3375C284.8 26.3937 284.45 26.45 284.1 26.5C283.55 26.55 283 26.625 282.45 26.7C281.9 26.775 281.35 26.85 280.8 26.9C278.6 27.1 278.2 28.2 278.2 30.3V59.4V74V77.6H269.8C269.7 76.7 269.6 75.8 269.6 74.8C269.6 58.5 269.6 42.3 269.5 26C269.5 23.8 270 22.7 272.1 22.2C281.9 19.3 291.9 18.3 301.9 20.4C302.2 20.5 302.6 20.6 303 20.7C303.17 20.7424 303.34 20.8029 303.517 20.8661C303.758 20.9518 304.012 21.0424 304.3 21.1C304.1 22.3997 303.8 23.4996 303.5 24.5993L303.5 24.6C303.3 25.3 303.1 26 303 26.7C301.5 26.7 300.1 26.6 298.701 26.5Z" fill="#0064DB"/>
    <path fill-rule="evenodd" clip-rule="evenodd" d="M17.75 81.55C20.825 76.125 23.9 70.7 27 65.3C29.4729 60.9574 31.9498 56.6107 34.43 52.2583C44.286 34.9624 54.193 17.5769 64.1 0C75.1974 19.4954 86.1948 38.791 97.1923 58.0864L97.2 58.1L97.3 58.2C101.576 65.6682 105.851 73.1689 110.146 80.7022C113.384 86.3829 116.633 92.0822 119.9 97.8H8.5C11.6 92.4 14.675 86.975 17.75 81.55ZM86.8311 67.2849C84.7135 63.586 82.5992 59.893 80.5 56.2C78.7823 53.1782 77.0546 50.1564 75.3231 47.1281C71.6112 40.6361 67.8823 34.1146 64.2 27.5C56.8667 40.4332 49.6224 53.0997 42.378 65.7663C38.7557 72.0997 35.1334 78.4332 31.5 84.8H96.8C93.4992 78.9319 90.161 73.1011 86.8311 67.2849ZM0 0.400024H50.5C49.041 3.00089 47.5417 5.60175 46.0277 8.22814C45.1551 9.74199 44.2775 11.2643 43.4 12.8C37.4 23.4 31.4 34 25.2 44.8C22.4 39.8001 19.6001 34.8891 16.8001 29.9781C15.4001 27.5224 14 25.0668 12.6 22.6C11.2001 20.1335 9.80014 17.6781 8.40021 15.2226C5.60014 10.3114 2.80007 5.40015 0 0.400024Z" fill="#0064DB"/>
</svg>
