<svg width="28" height="28" viewBox="0 0 28 28" fill="currentColor" xmlns="http://www.w3.org/2000/svg">
    <path d="M17.9641 6.32042C18.4428 6.52357 18.8787 6.81806 19.2472 7.18653C19.6157 7.55501 19.9102 7.99095 20.1133 8.46964C20.3165 8.94837 20.4246 9.46113 20.4301 9.97859C20.4355 10.4961 20.3382 11.0081 20.1423 11.4845C19.947 11.9595 19.6579 12.3888 19.2914 12.7472L13.182 18.8479C12.6889 19.3251 12.0249 19.5791 11.3384 19.5623C10.6529 19.5455 9.99906 19.2606 9.51352 18.7751C9.02798 18.2895 8.7431 17.6357 8.72629 16.9502C8.70945 16.2637 8.96351 15.5998 9.44076 15.1067L9.44928 15.0979L14.103 10.4443C14.3959 10.1514 14.8708 10.1514 15.1637 10.4443C15.4566 10.7372 15.4566 11.2121 15.1637 11.505L10.5149 16.1537C10.325 16.352 10.2187 16.6229 10.2258 16.9135C10.233 17.207 10.356 17.4963 10.5742 17.7144C10.7923 17.9326 11.0816 18.0556 11.3751 18.0627C11.6658 18.0699 11.9368 17.9635 12.1351 17.7735L18.2407 11.6765C18.4616 11.4611 18.6365 11.2022 18.755 10.9141C18.8735 10.6259 18.9335 10.3134 18.9301 9.99443C18.9268 9.67535 18.86 9.35612 18.7325 9.05565C18.605 8.75513 18.4195 8.48015 18.1865 8.24719C17.9536 8.01424 17.6786 7.82875 17.3781 7.70121C17.0776 7.57369 16.7584 7.50696 16.4393 7.50359C16.1203 7.50022 15.8079 7.56022 15.5197 7.67872C15.2315 7.7972 14.9726 7.9721 14.7572 8.193L14.7506 8.19973L8.60179 14.3484C8.26007 14.6801 7.98949 15.0789 7.80617 15.5225C7.62283 15.9661 7.53006 16.4464 7.53466 16.9358C7.53926 17.4253 7.64119 17.9142 7.83583 18.3735C8.03049 18.8329 8.31367 19.2529 8.66918 19.6084C9.02469 19.9639 9.44464 20.2471 9.90404 20.4417C10.3634 20.6364 10.8522 20.7383 11.3418 20.7429C11.8312 20.7475 12.3115 20.6547 12.7551 20.4714C13.1987 20.2881 13.5975 20.0175 13.9292 19.6758L13.937 19.6678L19.6754 13.9294C19.9683 13.6366 20.4432 13.6366 20.7361 13.9294C21.029 14.2223 21.029 14.6972 20.7361 14.9901L15.0015 20.7247C14.5273 21.2122 13.9583 21.5972 13.328 21.8577C12.6961 22.1188 12.0159 22.2493 11.3277 22.2428C10.6395 22.2364 9.95675 22.0932 9.31882 21.8229C8.68093 21.5526 8.09976 21.1603 7.60852 20.669C7.11728 20.1778 6.72499 19.5966 6.4547 18.9587C6.18439 18.3208 6.04119 17.6381 6.03472 16.9499C6.02826 16.2616 6.15871 15.5815 6.4199 14.9495C6.68037 14.3193 7.06535 13.7503 7.55287 13.276L13.6867 7.14217C14.045 6.77574 14.4743 6.4867 14.9492 6.29143C15.4256 6.09554 15.9376 5.99821 16.4551 6.00368C16.9726 6.00914 17.4854 6.11725 17.9641 6.32042Z"/>
</svg>
