<svg width="28" height="28" viewBox="0 0 28 28" fill="currentColor" xmlns="http://www.w3.org/2000/svg">
    <path fill-rule="evenodd" d="M14 4.25C14.4142 4.25 14.75 4.58579 14.75 5V6C14.75 6.41421 14.4142 6.75 14 6.75C13.5858 6.75 13.25 6.41421 13.25 6V5C13.25 4.58579 13.5858 4.25 14 4.25ZM7.06967 7.06967C7.36256 6.77678 7.83744 6.77678 8.13033 7.06967L8.83033 7.76967C9.12322 8.06256 9.12322 8.53744 8.83033 8.83033C8.53744 9.12322 8.06256 9.12322 7.76967 8.83033L7.06967 8.13033C6.77678 7.83744 6.77678 7.36256 7.06967 7.06967ZM20.9303 7.06967C21.2232 7.36256 21.2232 7.83744 20.9303 8.13033L20.2303 8.83033C19.9374 9.12322 19.4626 9.12322 19.1697 8.83033C18.8768 8.53744 18.8768 8.06256 19.1697 7.76967L19.8697 7.06967C20.1626 6.77678 20.6374 6.77678 20.9303 7.06967ZM14 9.75C13.108 9.75 12.2386 10.0307 11.515 10.5522C10.7914 11.0738 10.2502 11.8098 9.9681 12.656C9.68602 13.5023 9.67735 14.4158 9.94332 15.2672C10.2093 16.1186 10.7364 16.8648 11.45 17.4C11.4774 17.4205 11.5033 17.4429 11.5276 17.467C11.7664 17.7033 11.9754 17.9663 12.1511 18.25H15.8489C16.0246 17.9663 16.2336 17.7033 16.4724 17.467C16.4967 17.4429 16.5226 17.4205 16.55 17.4C17.2636 16.8648 17.7907 16.1186 18.0567 15.2672C18.3226 14.4158 18.314 13.5023 18.0319 12.656C17.7498 11.8098 17.2086 11.0738 16.485 10.5522C15.7614 10.0307 14.892 9.75 14 9.75ZM16.9406 19.3902C16.9685 19.3445 16.9917 19.2955 17.0094 19.2441C17.1355 18.9953 17.299 18.7665 17.4949 18.566C18.4376 17.8445 19.1342 16.8485 19.4885 15.7145C19.8483 14.5625 19.8366 13.3266 19.4549 12.1817C19.0733 11.0368 18.3411 10.041 17.3621 9.33536C16.3831 8.62971 15.2068 8.25 14 8.25C12.7932 8.25 11.6169 8.62971 10.6379 9.33536C9.65889 10.041 8.9267 11.0368 8.54507 12.1817C8.16344 13.3266 8.15171 14.5625 8.51155 15.7145C8.86579 16.8485 9.56245 17.8445 10.5051 18.566C10.701 18.7665 10.8645 18.9953 10.9906 19.2441C11.0083 19.2955 11.0315 19.3445 11.0594 19.3902C11.0917 19.4646 11.1209 19.5405 11.1466 19.6178C11.2831 20.0273 11.3213 20.4632 11.2581 20.8902C11.2527 20.9265 11.25 20.9632 11.25 21C11.25 21.7293 11.5397 22.4288 12.0555 22.9445C12.5712 23.4603 13.2707 23.75 14 23.75C14.7293 23.75 15.4288 23.4603 15.9445 22.9445C16.4603 22.4288 16.75 21.7293 16.75 21C16.75 20.9632 16.7473 20.9265 16.7419 20.8902C16.6787 20.4632 16.7169 20.0273 16.8534 19.6178C16.8791 19.5405 16.9083 19.4646 16.9406 19.3902ZM15.2767 19.75H12.7233C12.7985 20.177 12.8081 20.6141 12.7509 21.0461C12.7625 21.3609 12.8926 21.6604 13.1161 21.8839C13.3505 22.1183 13.6685 22.25 14 22.25C14.3315 22.25 14.6495 22.1183 14.8839 21.8839C15.1074 21.6604 15.2375 21.3609 15.2491 21.0461C15.1919 20.6141 15.2015 20.177 15.2767 19.75ZM4.25 14C4.25 13.5858 4.58579 13.25 5 13.25H6C6.41421 13.25 6.75 13.5858 6.75 14C6.75 14.4142 6.41421 14.75 6 14.75H5C4.58579 14.75 4.25 14.4142 4.25 14ZM21.25 14C21.25 13.5858 21.5858 13.25 22 13.25H23C23.4142 13.25 23.75 13.5858 23.75 14C23.75 14.4142 23.4142 14.75 23 14.75H22C21.5858 14.75 21.25 14.4142 21.25 14Z"/>
</svg>
