<svg width="28" height="28" viewBox="0 0 28 28" fill="currentColor" xmlns="http://www.w3.org/2000/svg">
    <path d="M14.005 8.70649C13.5208 7.94203 12.7489 7.5 12 7.5C10.7805 7.5 9.5 8.67217 9.5 10.5C9.5 11.7119 10.0629 12.6356 10.7978 13.1205C10.894 13.1009 10.9911 13.0836 11.089 13.0687C11.01 13.6235 10.9919 14.1524 11.0029 14.6108C8.99747 15.0645 7.5 16.8574 7.5 19H6C6 16.7029 7.29089 14.7073 9.18681 13.699C8.454 12.8834 8 11.7513 8 10.5C8 8.01472 9.79086 6 12 6C13.4637 6 14.7437 6.88439 15.4409 8.20408C14.9602 8.313 14.4726 8.47404 14.005 8.70649Z"/>
    <path fill-rule="evenodd" d="M17.2022 16.1205C17.9371 15.6356 18.5 14.7119 18.5 13.5C18.5 11.6722 17.2195 10.5 16 10.5C14.7805 10.5 13.5 11.6722 13.5 13.5C13.5 14.7119 14.0629 15.6356 14.7978 16.1205C15.1862 16.0415 15.5883 16 16 16C16.4117 16 16.8138 16.0415 17.2022 16.1205ZM18.8132 16.699C19.546 15.8834 20 14.7513 20 13.5C20 11.0147 18.2091 9 16 9C13.7909 9 12 11.0147 12 13.5C12 14.7513 12.454 15.8834 13.1868 16.699C11.2909 17.7073 10 19.7029 10 22H11.5C11.5 19.5147 13.5147 17.5 16 17.5C18.4853 17.5 20.5 19.5147 20.5 22H22C22 19.7029 20.7091 17.7073 18.8132 16.699Z"/>
</svg>
