<svg width="28" height="28" viewBox="0 0 28 28" fill="currentColor" xmlns="http://www.w3.org/2000/svg">
    <path d="M12.9748 7.65983C12.4891 6.92408 11.7335 6.5 11 6.5C9.7805 6.5 8.5 7.67217 8.5 9.5C8.5 10.7119 9.06293 11.6356 9.79776 12.1205C9.89401 12.1009 9.99109 12.0836 10.089 12.0687C10.01 12.6235 9.99193 13.1524 10.0029 13.6108C7.99747 14.0645 6.5 15.8574 6.5 18C6.5 18.3437 6.53853 18.6784 6.61151 19H5.08296C5.0284 18.6748 5 18.3407 5 18C5 15.7029 6.29089 13.7073 8.18681 12.699C7.454 11.8834 7 10.7513 7 9.5C7 7.01472 8.79086 5 11 5C12.4216 5 13.67 5.83431 14.3794 7.09144C13.9308 7.20834 13.4541 7.38851 12.9748 7.65983Z"/>
    <path fill-rule="evenodd" d="M17.7169 16.2867C18.5608 15.6536 19.1667 14.5576 19.1667 13.1923C19.1667 10.9985 17.6023 9.5 16 9.5C14.3977 9.5 12.8333 10.9985 12.8333 13.1923C12.8333 14.5576 13.4392 15.6536 14.2831 16.2867C14.8324 16.1497 15.4076 16.0769 16 16.0769C16.5924 16.0769 17.1676 16.1497 17.7169 16.2867ZM19.2821 16.8835C20.137 15.9424 20.6667 14.6361 20.6667 13.1923C20.6667 10.3247 18.5773 8 16 8C13.4227 8 11.3333 10.3247 11.3333 13.1923C11.3333 14.6361 11.863 15.9424 12.7179 16.8835C10.506 18.0468 9 20.3495 9 23V23H10.5V23C10.5 20.0205 12.9468 17.5769 16 17.5769C19.0532 17.5769 21.5 20.0205 21.5 23V23H23V23C23 20.3495 21.494 18.0468 19.2821 16.8835ZM16 18.3846L16.022 18.3845H15.978L16 18.3846Z"/>
</svg>
