<svg width="28" height="28" viewBox="0 0 28 28" fill="currentColor" xmlns="http://www.w3.org/2000/svg">
    <path d="M8.66667 6.75C8.15834 6.75 7.67082 6.95193 7.31138 7.31137C6.95193 7.67081 6.75 8.15832 6.75 8.66663V19.3332C6.75 19.8415 6.95193 20.329 7.31138 20.6884C7.67082 21.0479 8.15834 21.2498 8.66667 21.2498H19.3334C19.8417 21.2498 20.3292 21.0479 20.6887 20.6884C21.0481 20.329 21.25 19.8415 21.25 19.3332V8.66663C21.25 8.15831 21.0481 7.67081 20.6887 7.31137C20.3292 6.95193 19.8417 6.75 19.3334 6.75H8.66667ZM6.25073 6.25071C6.89148 5.60996 7.76052 5.25 8.66667 5.25H19.3334C20.2395 5.25 21.1086 5.60996 21.7493 6.25071C22.3901 6.89145 22.75 7.76048 22.75 8.66663V19.3332C22.75 20.2393 22.3901 21.1084 21.7493 21.7491C21.1086 22.3898 20.2395 22.7498 19.3334 22.7498H8.66667C7.76052 22.7498 6.89148 22.3898 6.25073 21.7491C5.60997 21.1084 5.25 20.2393 5.25 19.3332V8.66663C5.25 7.76048 5.60997 6.89145 6.25073 6.25071ZM15.9167 10.4444C15.9167 10.0302 16.2525 9.69439 16.6667 9.69439H16.6756C17.0898 9.69439 17.4256 10.0302 17.4256 10.4444C17.4256 10.8586 17.0898 11.1944 16.6756 11.1944H16.6667C16.2525 11.1944 15.9167 10.8586 15.9167 10.4444Z"/>
    <path d="M10.9693 13.6473L6.53033 18.0862C6.23743 18.3791 5.76256 18.3791 5.46967 18.0862C5.17677 17.7933 5.17678 17.3184 5.46967 17.0255L9.91413 12.5811L9.92442 12.571C10.4495 12.0658 11.0888 11.7661 11.7778 11.7661C12.4668 11.7661 13.1061 12.0658 13.6312 12.571L13.6415 12.5811L18.0859 17.0255C18.3788 17.3184 18.3788 17.7933 18.0859 18.0862C17.793 18.3791 17.3182 18.3791 17.0253 18.0862L12.5863 13.6473C12.2883 13.3623 12.0085 13.2661 11.7778 13.2661C11.5471 13.2661 11.2673 13.3623 10.9693 13.6473Z"/>
    <path d="M17.1914 15.4248L16.308 16.3082C16.0151 16.6011 15.5403 16.6011 15.2474 16.3082C14.9545 16.0153 14.9545 15.5405 15.2474 15.2476L16.1363 14.3587L16.1466 14.3486C16.6716 13.8434 17.3109 13.5437 17.9999 13.5437C18.6889 13.5437 19.3283 13.8434 19.8533 14.3486L19.8636 14.3587L22.5303 17.0253C22.8232 17.3182 22.8232 17.7931 22.5303 18.086C22.2374 18.3789 21.7625 18.3789 21.4696 18.086L18.8084 15.4248C18.5104 15.1399 18.2306 15.0437 17.9999 15.0437C17.7693 15.0437 17.4895 15.1399 17.1914 15.4248Z"/>
</svg>
