<svg width="28" height="28" viewBox="0 0 28 28" fill="currentColor" xmlns="http://www.w3.org/2000/svg">
    <path d="M14 7H10C7.79086 7 6 8.79086 6 11V17C6 19.2091 7.79086 21 10 21H14V19.5H10C8.61929 19.5 7.5 18.3807 7.5 17V11C7.5 9.61929 8.61929 8.5 10 8.5H14V7Z"/>
    <path d="M11.4166 14C11.4166 13.5858 11.7524 13.25 12.1666 13.25H21.0555C21.4697 13.25 21.8055 13.5858 21.8055 14C21.8055 14.4142 21.4697 14.75 21.0555 14.75H12.1666C11.7524 14.75 11.4166 14.4142 11.4166 14Z"/>
    <path d="M16.9697 9.91401C17.2626 9.62111 17.7374 9.62111 18.0303 9.91401L22.1162 13.9999L18.0303 18.0858C17.7374 18.3787 17.2626 18.3787 16.9697 18.0858C16.6768 17.7929 16.6768 17.318 16.9697 17.0251L19.9949 13.9999L16.9697 10.9747C16.6768 10.6818 16.6768 10.2069 16.9697 9.91401Z"/>
</svg>
