<svg width="28" height="28" viewBox="0 0 28 28" fill="currentColor" xmlns="http://www.w3.org/2000/svg">
    <path d="M6.25 14C6.25 13.5858 6.58579 13.25 7 13.25H21.0555C21.4697 13.25 21.8055 13.5858 21.8055 14C21.8055 14.4142 21.4697 14.75 21.0555 14.75H7C6.58579 14.75 6.25 14.4142 6.25 14Z"/>
    <path d="M15.4697 7.46967C15.7626 7.17678 16.2374 7.17678 16.5303 7.46967L23.0607 14L16.5303 20.5303C16.2374 20.8232 15.7626 20.8232 15.4697 20.5303C15.1768 20.2374 15.1768 19.7626 15.4697 19.4697L20.9393 14L15.4697 8.53033C15.1768 8.23744 15.1768 7.76256 15.4697 7.46967Z"/>
</svg>
