<svg width="28" height="28" viewBox="0 0 28 28" fill="currentColor" xmlns="http://www.w3.org/2000/svg">
    <path fill-rule="evenodd" d="M16.2847 20.75H11.7154C11.7154 20.8778 11.7262 21.003 11.747 21.125C11.8199 21.5531 12.0156 21.9402 12.2972 22.25C12.7156 22.7103 13.3235 23 14 23C14.6765 23 15.2845 22.7103 15.7029 22.25C15.9844 21.9402 16.1801 21.5531 16.2531 21.125C16.2739 21.003 16.2847 20.8778 16.2847 20.75ZM20.8536 19.625C21.5365 19.625 21.9965 19.0766 22 18.5C22.0018 18.2346 21.9068 17.9632 21.6925 17.7368C21.6497 17.6914 21.6045 17.6447 21.5574 17.596C20.8471 16.8609 19.7115 15.6856 19.7115 12.3125C19.7115 9.58086 17.9782 7.39414 15.3546 6.85766V6.125C15.3546 5.50379 14.6307 5 14 5C13.3693 5 12.6625 5.50379 12.6625 6.125V6.85766C10.0389 7.39414 8.2886 9.58086 8.2886 12.3125C8.2886 15.6856 7.15293 16.8609 6.4426 17.596C6.39556 17.6447 6.35038 17.6914 6.30752 17.7368C6.09324 17.9635 5.99824 18.2346 6.00002 18.5C6.00395 19.0766 6.4636 19.625 7.14645 19.625H20.8536ZM7.9952 18.125H20.0049C19.7166 17.7868 19.3883 17.342 19.1025 16.7723C18.5686 15.708 18.2115 14.2946 18.2115 12.3125C18.2115 10.2632 16.9503 8.71499 15.0541 8.32725L14.0085 8.11345L12.963 8.32725C11.06 8.71638 9.7886 10.2703 9.7886 12.3125C9.7886 14.2946 9.43149 15.708 8.89754 16.7723C8.61172 17.342 8.28345 17.7868 7.9952 18.125Z"/>
</svg>
