<svg width="28" height="28" viewBox="0 0 28 28" fill="currentColor" xmlns="http://www.w3.org/2000/svg">
    <path fill-rule="evenodd" d="M14.0085 8.15562L12.9704 8.37335C11.0881 8.76811 9.78859 10.3593 9.78859 12.5C9.78859 14.523 9.43343 15.9615 8.90424 17.0433C8.5985 17.6684 8.24379 18.146 7.94177 18.5H20.0582C19.7562 18.146 19.4015 17.6684 19.0958 17.0433C18.5666 15.9615 18.2114 14.523 18.2114 12.5C18.2114 10.3521 16.9222 8.76671 15.0467 8.37335L14.0085 8.15562ZM21.6925 18.0633C21.6496 18.0168 21.6044 17.9689 21.5574 17.919C20.8471 17.165 19.7114 15.9596 19.7114 12.5C19.7114 9.69832 17.9781 7.45553 15.3546 6.90529V6.15385C15.3546 5.51671 14.6307 5 14 5C13.3693 5 12.6625 5.51671 12.6625 6.15385V6.90529C10.0389 7.45553 8.28859 9.69832 8.28859 12.5C8.28859 15.9596 7.15292 17.165 6.4426 17.919C6.39556 17.9689 6.35038 18.0168 6.30752 18.0633C6.09324 18.2959 5.99824 18.5739 6.00002 18.8462C6.00395 19.4375 6.46359 20 7.14645 20H20.8535C21.5364 20 21.9964 19.4375 22 18.8462C22.0018 18.5739 21.9068 18.2956 21.6925 18.0633Z"/>
    <path d="M12 21C12 21.5974 12.2619 22.1335 12.6772 22.5C13.0298 22.8112 13.4929 23 14 23C14.5071 23 14.9702 22.8112 15.3228 22.5C15.7381 22.1335 16 21.5974 16 21H12Z"/>
</svg>
