<svg width="28" height="28" viewBox="0 0 28 28" fill="currentColor" xmlns="http://www.w3.org/2000/svg">
    <path fill-rule="evenodd" d="M13 18.5C16.0376 18.5 18.5 16.0376 18.5 13C18.5 9.96243 16.0376 7.5 13 7.5C9.96243 7.5 7.5 9.96243 7.5 13C7.5 16.0376 9.96243 18.5 13 18.5ZM13 20C16.866 20 20 16.866 20 13C20 9.13401 16.866 6 13 6C9.13401 6 6 9.13401 6 13C6 16.866 9.13401 20 13 20Z"/>
    <path d="M18.4697 18.4697C18.7626 18.1768 19.2374 18.1768 19.5303 18.4697L22.0303 20.9697C22.3232 21.2626 22.3232 21.7374 22.0303 22.0303C21.7374 22.3232 21.2626 22.3232 20.9697 22.0303L18.4697 19.5303C18.1768 19.2374 18.1768 18.7626 18.4697 18.4697Z"/>
</svg>
