<svg width="28" height="28" viewBox="0 0 28 28" fill="currentColor" xmlns="http://www.w3.org/2000/svg">
    <path fill-rule="evenodd" d="M12.5 18.5C15.8137 18.5 18.5 15.8137 18.5 12.5C18.5 9.18629 15.8137 6.5 12.5 6.5C9.18629 6.5 6.5 9.18629 6.5 12.5C6.5 15.8137 9.18629 18.5 12.5 18.5ZM12.5 20C16.6421 20 20 16.6421 20 12.5C20 8.35786 16.6421 5 12.5 5C8.35786 5 5 8.35786 5 12.5C5 16.6421 8.35786 20 12.5 20Z"/>
    <path d="M18.4697 18.4697C18.7626 18.1768 19.2374 18.1768 19.5303 18.4697L22.5303 21.4697C22.8232 21.7626 22.8232 22.2374 22.5303 22.5303C22.2374 22.8232 21.7626 22.8232 21.4697 22.5303L18.4697 19.5303C18.1768 19.2374 18.1768 18.7626 18.4697 18.4697Z"/>
</svg>
