<svg width="28" height="28" viewBox="0 0 28 28" fill="currentColor" xmlns="http://www.w3.org/2000/svg">
    <path d="M6.25 10C6.25 9.58579 6.58579 9.25 7 9.25H17.5C17.9142 9.25 18.25 9.58579 18.25 10C18.25 10.4142 17.9142 10.75 17.5 10.75H7C6.58579 10.75 6.25 10.4142 6.25 10ZM21.5303 10.4697C21.8232 10.7626 21.8232 11.2374 21.5303 11.5303L19.0607 14L21.5303 16.4697C21.8232 16.7626 21.8232 17.2374 21.5303 17.5303C21.2374 17.8232 20.7626 17.8232 20.4697 17.5303L16.9393 14L20.4697 10.4697C20.7626 10.1768 21.2374 10.1768 21.5303 10.4697ZM6.25 14C6.25 13.5858 6.58579 13.25 7 13.25H14.5C14.9142 13.25 15.25 13.5858 15.25 14C15.25 14.4142 14.9142 14.75 14.5 14.75H7C6.58579 14.75 6.25 14.4142 6.25 14ZM6.25 18C6.25 17.5858 6.58579 17.25 7 17.25H17.5C17.9142 17.25 18.25 17.5858 18.25 18C18.25 18.4142 17.9142 18.75 17.5 18.75H7C6.58579 18.75 6.25 18.4142 6.25 18Z"/>
</svg>
