<svg width="28" height="28" viewBox="0 0 28 28" fill="currentColor" xmlns="http://www.w3.org/2000/svg">
    <path d="M6.25 10C6.25 9.58579 6.58579 9.25 7 9.25H21C21.4142 9.25 21.75 9.58579 21.75 10C21.75 10.4142 21.4142 10.75 21 10.75H7C6.58579 10.75 6.25 10.4142 6.25 10ZM6.25 14C6.25 13.5858 6.58579 13.25 7 13.25H21C21.4142 13.25 21.75 13.5858 21.75 14C21.75 14.4142 21.4142 14.75 21 14.75H7C6.58579 14.75 6.25 14.4142 6.25 14ZM6.25 18C6.25 17.5858 6.58579 17.25 7 17.25H21C21.4142 17.25 21.75 17.5858 21.75 18C21.75 18.4142 21.4142 18.75 21 18.75H7C6.58579 18.75 6.25 18.4142 6.25 18Z"/>
</svg>
