<svg width="28" height="28" viewBox="0 0 28 28" fill="currentColor" xmlns="http://www.w3.org/2000/svg">
    <path fill-rule="evenodd" d="M10 5.25C7.37665 5.25 5.25 7.37665 5.25 10V18C5.25 20.6234 7.37665 22.75 10 22.75H14.169C14.4275 22.75 14.7056 22.7298 14.9909 22.6641C15.8528 22.4658 18.2726 21.7881 20.0303 20.0303C21.7881 18.2726 22.4658 15.8528 22.6641 14.9909C22.7298 14.7056 22.75 14.4275 22.75 14.169V10C22.75 7.37665 20.6234 5.25 18 5.25H10ZM6.75 10C6.75 8.20507 8.20507 6.75 10 6.75H18C19.7949 6.75 21.25 8.20507 21.25 10V13.125L20.55 13.65C20.0307 14.0395 19.3991 14.25 18.75 14.25C16.2647 14.25 14.25 16.2647 14.25 18.75C14.25 19.3991 14.0395 20.0307 13.65 20.55L13.125 21.25H10C8.20507 21.25 6.75 19.7949 6.75 18V10ZM15.0939 21.0898C16.0585 20.8193 17.7389 20.2004 18.9697 18.9697C20.2004 17.7389 20.8193 16.0585 21.0898 15.0939C20.3872 15.5216 19.5781 15.75 18.75 15.75C17.0931 15.75 15.75 17.0931 15.75 18.75C15.75 19.5781 15.5216 20.3872 15.0939 21.0898Z"/>
</svg>
