<svg width="28" height="28" viewBox="0 0 28 28" fill="currentColor" xmlns="http://www.w3.org/2000/svg">
    <path fill-rule="evenodd" d="M12.7838 6.5H6.5V12.7838C6.5 13.136 6.50714 13.2763 6.53629 13.393C6.55285 13.4592 6.58131 13.5411 6.70931 13.6691L14.4881 21.4478C14.4926 21.4508 14.5064 21.4591 14.5329 21.4687C14.5807 21.4861 14.6494 21.5 14.7297 21.5C14.8101 21.5 14.8788 21.4861 14.9266 21.4687C14.9531 21.4591 14.9668 21.4508 14.9714 21.4478L21.4478 14.9714C21.4508 14.9668 21.4591 14.953 21.4687 14.9266C21.4861 14.8788 21.5 14.8101 21.5 14.7297C21.5 14.6494 21.4861 14.5807 21.4687 14.5329C21.4591 14.5064 21.4508 14.4926 21.4478 14.4881L13.6691 6.70931C13.5411 6.58131 13.4592 6.55285 13.393 6.53629C13.2763 6.50714 13.136 6.5 12.7838 6.5ZM12.7838 5H6.2973C5.64865 5 5 5.64865 5 6.2973V12.7838C5 13.4324 5 14.0811 5.64865 14.7297L13.4324 22.5135C14.0811 23.1622 15.3784 23.1622 16.027 22.5135L22.5135 16.027C23.1622 15.3784 23.1622 14.0811 22.5135 13.4324L14.7297 5.64865C14.0811 5 13.4324 5 12.7838 5ZM8.25 9C8.66421 9 9 8.66421 9 8.25C9 7.83579 8.66421 7.5 8.25 7.5C7.83579 7.5 7.5 7.83579 7.5 8.25C7.5 8.66421 7.83579 9 8.25 9Z"/>
</svg>
