<svg width="24" height="24" viewBox="0 0 24 24" xmlns="http://www.w3.org/2000/svg">
    <path d="M20.317 4.49197C18.787 3.80197 17.147 3.29197 15.432 3.00197C15.4167 2.99904 15.4009 3.00093 15.3868 3.00738C15.3726 3.01383 15.3608 3.02452 15.353 3.03797C15.143 3.40697 14.909 3.88797 14.745 4.26797C12.9261 3.99621 11.0769 3.99621 9.258 4.26797C9.07535 3.84683 8.86935 3.4362 8.641 3.03797C8.63325 3.02435 8.62155 3.01342 8.60745 3.00663C8.5933 2.99984 8.57745 2.99752 8.562 2.99997C6.848 3.28997 5.208 3.79997 3.67699 4.49097C3.66382 4.4965 3.65265 4.50592 3.64499 4.51797C0.53299 9.09295 -0.320007 13.555 0.0989925 17.961C0.100159 17.9718 0.103508 17.9822 0.108838 17.9916C0.114167 18.0011 0.121365 18.0094 0.129993 18.0159C1.94639 19.3384 3.97233 20.3458 6.123 20.996C6.138 21.0006 6.154 21.0006 6.169 20.996C6.184 20.9913 6.19725 20.9822 6.207 20.9699C6.6698 20.351 7.0799 19.6944 7.433 19.007C7.4379 18.9976 7.4407 18.9873 7.44125 18.9767C7.44185 18.9661 7.4401 18.9555 7.4362 18.9456C7.43235 18.9358 7.42635 18.9269 7.41875 18.9195C7.4111 18.9122 7.402 18.9065 7.392 18.903C6.746 18.6597 6.1201 18.3662 5.52 18.025C5.5092 18.0188 5.5001 18.0101 5.49355 17.9995C5.487 17.989 5.4831 17.977 5.48235 17.9646C5.48155 17.9522 5.48385 17.9399 5.489 17.9286C5.4942 17.9173 5.5021 17.9075 5.512 17.9C5.638 17.807 5.764 17.7099 5.884 17.6129C5.8948 17.6042 5.9078 17.5987 5.9216 17.597C5.93535 17.5952 5.94935 17.5972 5.962 17.6029C9.889 19.3669 14.142 19.3669 18.023 17.6029C18.0357 17.5969 18.0498 17.5945 18.0638 17.5961C18.0778 17.5977 18.091 17.6032 18.102 17.6119C18.222 17.7099 18.347 17.807 18.474 17.9C18.484 17.9073 18.4921 17.917 18.4974 17.9282C18.5027 17.9394 18.5052 17.9517 18.5046 17.9641C18.504 17.9764 18.5003 17.9885 18.4939 17.9991C18.4876 18.0097 18.4787 18.0187 18.468 18.025C17.87 18.369 17.248 18.66 16.595 18.902C16.5849 18.9056 16.5758 18.9114 16.5682 18.9188C16.5605 18.9263 16.5546 18.9352 16.5507 18.9452C16.5468 18.9551 16.5452 18.9658 16.5457 18.9764C16.5463 18.9871 16.5491 18.9975 16.554 19.007C16.914 19.694 17.326 20.348 17.779 20.969C17.7884 20.9817 17.8015 20.9913 17.8165 20.9963C17.8316 21.0013 17.8478 21.0015 17.863 20.997C20.0174 20.3486 22.0466 19.3407 23.865 18.0159C23.8738 18.0097 23.8813 18.0018 23.8869 17.9925C23.8924 17.9831 23.8958 17.9728 23.897 17.962C24.397 12.868 23.059 8.44195 20.348 4.51997C20.3413 4.50723 20.3303 4.49729 20.317 4.49197ZM8.02 15.278C6.838 15.278 5.863 14.209 5.863 12.898C5.863 11.586 6.819 10.5179 8.02 10.5179C9.23 10.5179 10.196 11.595 10.177 12.898C10.177 14.21 9.221 15.278 8.02 15.278ZM15.995 15.278C14.812 15.278 13.838 14.209 13.838 12.898C13.838 11.586 14.793 10.5179 15.995 10.5179C17.205 10.5179 18.171 11.595 18.152 12.898C18.152 14.21 17.206 15.278 15.995 15.278Z"/>
</svg>
