<svg width="24" height="24" viewBox="0 0 24 24" xmlns="http://www.w3.org/2000/svg">
    <path fill-rule="evenodd" clip-rule="evenodd" d="M1 2.83801C1 2.35054 1.19365 1.88303 1.53834 1.53834C1.88303 1.19365 2.35053 1 2.838 1H21.16C21.4016 0.999612 21.6408 1.04687 21.8641 1.13907C22.0874 1.23128 22.2904 1.36661 22.4613 1.53734C22.6322 1.70807 22.7677 1.91083 22.8601 2.13401C22.9526 2.3572 23.0002 2.59643 23 2.83801V21.16C23.0003 21.4016 22.9529 21.641 22.8605 21.8642C22.7682 22.0875 22.6328 22.2904 22.462 22.4613C22.2912 22.6322 22.0884 22.7678 21.8652 22.8602C21.6419 22.9526 21.4026 23.0002 21.161 23H2.838C2.59655 23 2.35746 22.9525 2.1344 22.86C1.91134 22.7676 1.70867 22.6321 1.53799 22.4613C1.3673 22.2906 1.23193 22.0878 1.13963 21.8647C1.04732 21.6416 0.99987 21.4025 1 21.161V2.83801ZM9.708 9.388H12.687V10.884C13.117 10.024 14.217 9.25 15.87 9.25C19.039 9.25 19.79 10.963 19.79 14.106V19.928H16.583V14.822C16.583 13.032 16.153 12.022 15.061 12.022C13.546 12.022 12.916 13.111 12.916 14.822V19.928H9.708V9.388ZM4.208 19.791H7.416V9.25H4.208V19.79V19.791ZM7.875 5.812C7.88105 6.0867 7.83215 6.3598 7.73125 6.6153C7.6303 6.87085 7.47935 7.10365 7.28725 7.30005C7.0951 7.49645 6.8657 7.6525 6.61245 7.759C6.3592 7.86555 6.08725 7.9204 5.8125 7.9204C5.53775 7.9204 5.2658 7.86555 5.01255 7.759C4.7593 7.6525 4.52989 7.49645 4.33777 7.30005C4.14565 7.10365 3.9947 6.87085 3.89376 6.6153C3.79283 6.3598 3.74395 6.0867 3.75 5.812C3.76188 5.27285 3.98439 4.7598 4.36989 4.38269C4.75539 4.00559 5.2732 3.79442 5.8125 3.79442C6.3518 3.79442 6.8696 4.00559 7.2551 4.38269C7.6406 4.7598 7.86315 5.27285 7.875 5.812Z"/>
</svg>
