<svg width="24" height="24" viewBox="0 0 24 24" xmlns="http://www.w3.org/2000/svg">
    <path d="M13.5375 12C13.5375 15.7275 10.5075 18.75 6.768 18.75C5.8804 18.7512 5.00125 18.5776 4.18076 18.239C3.36027 17.9004 2.61449 17.4035 1.98602 16.7767C1.35756 16.1499 0.858705 15.4055 0.51794 14.5859C0.177177 13.7663 0.00118111 12.8876 0 12C0 8.27101 3.03 5.25001 6.768 5.25001C7.65575 5.24866 8.53505 5.42216 9.3557 5.76066C10.1763 6.09911 10.9223 6.59596 11.551 7.22281C12.1796 7.84961 12.6785 8.59411 13.0194 9.41381C13.3602 10.2335 13.5363 11.1123 13.5375 12ZM20.9625 12C20.9625 15.51 19.4475 18.354 17.5785 18.354C15.7095 18.354 14.1945 15.5085 14.1945 12C14.1945 8.49001 15.7095 5.64601 17.5785 5.64601C19.4475 5.64601 20.9625 8.49151 20.9625 12ZM24 12C24 15.144 23.4675 17.6925 22.809 17.6925C22.152 17.6925 21.6195 15.1425 21.6195 12C21.6195 8.85601 22.152 6.30751 22.8105 6.30751C23.4675 6.30751 24 8.85601 24 12Z"/>
</svg>
