<svg width="24" height="24" viewBox="0 0 24 24" xmlns="http://www.w3.org/2000/svg">
    <path d="M23.643 4.93707C22.808 5.3071 21.911 5.5571 20.968 5.6701C21.941 5.08785 22.669 4.17154 23.016 3.09207C22.1019 3.63506 21.1014 4.01727 20.058 4.22207C19.3564 3.47294 18.4271 2.9764 17.4144 2.80955C16.4016 2.6427 15.3621 2.81487 14.4573 3.29933C13.5524 3.78379 12.8328 4.55344 12.4102 5.4888C11.9876 6.4241 11.8856 7.47285 12.12 8.4721C10.2677 8.37905 8.45565 7.89765 6.80145 7.059C5.14725 6.22035 3.68786 5.04325 2.51801 3.60407C2.11801 4.29407 1.88801 5.0941 1.88801 5.9461C1.88757 6.71305 2.07645 7.4683 2.43789 8.1448C2.79934 8.8213 3.32218 9.3981 3.96001 9.8241C3.22029 9.80055 2.49689 9.60065 1.85001 9.2411V9.3011C1.84994 10.3768 2.22205 11.4195 2.9032 12.2521C3.58435 13.0847 4.53259 13.656 5.587 13.8691C4.9008 14.0548 4.18135 14.0821 3.48301 13.9491C3.78051 14.8747 4.36001 15.6841 5.1404 16.264C5.92075 16.8439 6.86295 17.1652 7.835 17.1831C6.18485 18.4785 4.1469 19.1812 2.04901 19.1781C1.6774 19.1782 1.30609 19.1565 0.937012 19.1131C3.06649 20.4823 5.54535 21.2089 8.077 21.2061C16.647 21.2061 21.332 14.1081 21.332 7.9521C21.332 7.7521 21.327 7.5501 21.318 7.3501C22.2293 6.69105 23.0159 5.87495 23.641 4.94007L23.643 4.93707Z"/>
</svg>
