<svg width="24" height="24" viewBox="0 0 24 24" xmlns="http://www.w3.org/2000/svg">
    <path d="M24 12C24 5.37258 18.6274 0 12 0C5.37258 0 0 5.37258 0 12C0 18.6274 5.37258 24 12 24C18.6274 24 24 18.6274 24 12Z" fill="#5865F2"/>
    <path d="M16.2946 7.83748C15.4186 7.44061 14.4938 7.15905 13.5439 7C13.4139 7.22996 13.2962 7.46656 13.1915 7.7088C12.1796 7.55791 11.1506 7.55791 10.1387 7.7088C10.0339 7.46658 9.9163 7.22999 9.7863 7C8.83575 7.16039 7.91034 7.44262 7.03344 7.83956C5.29258 10.3883 4.82066 12.8738 5.05662 15.324C6.07611 16.0694 7.21722 16.6363 8.43033 17C8.70349 16.6364 8.9452 16.2508 9.1529 15.847C8.7584 15.7012 8.37765 15.5213 8.01504 15.3095C8.11047 15.241 8.20381 15.1704 8.294 15.1019C9.3491 15.5929 10.5007 15.8475 11.6667 15.8475C12.8326 15.8475 13.9842 15.5929 15.0393 15.1019C15.1306 15.1756 15.2239 15.2462 15.3183 15.3095C14.955 15.5217 14.5735 15.7019 14.1783 15.8481C14.3858 16.2516 14.6275 16.637 14.9009 17C16.115 16.6377 17.257 16.0711 18.2767 15.325C18.5536 12.4836 17.8037 10.021 16.2946 7.83748ZM9.4518 13.8171C8.79423 13.8171 8.251 13.2266 8.251 12.5002C8.251 11.7738 8.77536 11.1781 9.4497 11.1781C10.124 11.1781 10.663 11.7738 10.6515 12.5002C10.64 13.2266 10.1219 13.8171 9.4518 13.8171ZM13.8815 13.8171C13.2229 13.8171 12.6818 13.2266 12.6818 12.5002C12.6818 11.7738 13.2062 11.1781 13.8815 11.1781C14.5569 11.1781 15.0918 11.7738 15.0802 12.5002C15.0687 13.2266 14.5517 13.8171 13.8815 13.8171Z" fill="white"/>
</svg>
