<svg width="24" height="24" viewBox="0 0 24 24" xmlns="http://www.w3.org/2000/svg">
    <path d="M24 12C24 5.37258 18.6274 0 12 0C5.37258 0 0 5.37258 0 12C0 18.6274 5.37258 24 12 24C18.6274 24 24 18.6274 24 12Z" fill="black"/>
    <path d="M12.8969 12C12.8969 14.2089 11.1294 16 8.948 16C8.43023 16.0007 7.9174 15.8978 7.43877 15.6972C6.96015 15.4965 6.52512 15.2021 6.15851 14.8306C5.79191 14.4592 5.50091 14.018 5.30213 13.5324C5.10335 13.0467 5.00069 12.526 5 12C5 9.79022 6.7675 8 8.948 8C9.46585 7.9992 9.97878 8.10202 10.4575 8.30261C10.9362 8.50317 11.3713 8.7976 11.7381 9.16907C12.1047 9.54051 12.3958 9.98169 12.5946 10.4674C12.7935 10.9532 12.8962 11.474 12.8969 12ZM17.2281 12C17.2281 14.08 16.3444 15.7653 15.2541 15.7653C14.1639 15.7653 13.2801 14.0791 13.2801 12C13.2801 9.92 14.1639 8.23467 15.2541 8.23467C16.3444 8.23467 17.2281 9.92089 17.2281 12ZM19 12C19 13.8631 18.6894 15.3733 18.3052 15.3733C17.922 15.3733 17.6114 13.8622 17.6114 12C17.6114 10.1369 17.922 8.62667 18.3061 8.62667C18.6894 8.62667 19 10.1369 19 12Z" fill="white"/>
</svg>
