<svg width="24" height="24" viewBox="0 0 24 24" xmlns="http://www.w3.org/2000/svg">
    <path d="M24 12C24 5.37258 18.6274 0 12 0C5.37258 0 0 5.37258 0 12C0 18.6274 5.37258 24 12 24C18.6274 24 24 18.6274 24 12Z" fill="#1D9BF0"/>
    <path d="M18 8.18385C17.5538 8.38462 17.0783 8.51769 16.5825 8.58231C17.0925 8.27 17.4818 7.77923 17.6648 7.18769C17.1893 7.47846 16.6643 7.68385 16.1048 7.79846C15.6533 7.30538 15.0098 7 14.3078 7C12.9458 7 11.8493 8.13385 11.8493 9.5238C11.8493 9.7238 11.8658 9.9162 11.9063 10.0992C9.861 9.9969 8.05125 8.99154 6.8355 7.46C6.62325 7.83769 6.49875 8.27 6.49875 8.73538C6.49875 9.6092 6.9375 10.3838 7.5915 10.8323C7.19625 10.8246 6.8085 10.7069 6.48 10.5215C6.48 10.5292 6.48 10.5392 6.48 10.5492C6.48 11.7754 7.33275 12.7938 8.451 13.0285C8.25075 13.0846 8.0325 13.1115 7.806 13.1115C7.6485 13.1115 7.4895 13.1023 7.34025 13.0685C7.659 14.0677 8.5635 14.8023 9.639 14.8262C8.802 15.4977 7.73925 15.9023 6.58875 15.9023C6.387 15.9023 6.1935 15.8931 6 15.8677C7.08975 16.5885 8.38125 17 9.774 17C14.301 17 16.776 13.1538 16.776 9.82C16.776 9.7085 16.7723 9.6008 16.767 9.4938C17.2553 9.1385 17.6655 8.69462 18 8.18385Z" fill="white"/>
</svg>
