<?xml version="1.0" standalone="no"?>
<!DOCTYPE svg PUBLIC "-//W3C//DTD SVG 20010904//EN"
 "http://www.w3.org/TR/2001/REC-SVG-20010904/DTD/svg10.dtd">
<svg version="1.0" xmlns="http://www.w3.org/2000/svg"
 width="384.000000pt" height="384.000000pt" viewBox="0 0 384.000000 384.000000"
 preserveAspectRatio="xMidYMid meet">
<metadata>
Created by potrace 1.14, written by Peter Selinger 2001-2017
</metadata>
<g transform="translate(0.000000,384.000000) scale(0.100000,-0.100000)"
fill="#000000" stroke="none">
<path d="M1180 3473 c-125 -43 -194 -136 -193 -258 0 -74 19 -121 73 -179 66
-72 172 -98 278 -68 l53 15 72 -70 c40 -39 105 -102 145 -140 l73 -69 -15 -35
c-24 -58 -16 -165 17 -221 31 -53 87 -103 132 -118 l31 -10 0 -384 0 -384 -32
-16 -33 -15 -142 138 -143 138 13 31 c7 17 13 59 14 94 3 183 -166 305 -352
255 l-54 -15 -32 32 c-18 17 -78 75 -133 129 -133 130 -125 118 -108 159 29
69 22 152 -20 225 -102 177 -382 170 -473 -13 -51 -101 -33 -222 42 -297 23
-24 60 -51 82 -61 51 -25 152 -30 205 -11 37 13 42 13 59 -3 74 -71 239 -233
254 -250 17 -18 17 -24 3 -73 -58 -207 138 -388 348 -321 l47 15 72 -71 c40
-39 104 -102 143 -139 l70 -68 -14 -40 c-20 -59 -11 -154 22 -209 30 -51 87
-101 131 -116 l31 -10 0 -371 c-1 -204 2 -375 5 -380 3 -6 37 -9 75 -7 l69 3
0 374 0 375 45 23 c57 31 86 58 118 113 22 37 27 57 27 115 0 38 -4 84 -9 101
-7 26 -4 35 16 55 13 13 76 75 140 138 l116 113 35 -11 c101 -34 213 -14 282
50 88 81 110 178 70 304 -6 21 -7 20 236 257 l49 47 40 -14 c55 -19 159 -12
216 15 83 41 144 142 144 240 0 92 -61 185 -150 231 -35 18 -61 23 -121 23
-83 0 -137 -21 -192 -72 -71 -67 -99 -190 -62 -279 12 -29 13 -39 3 -51 -10
-12 -163 -163 -265 -261 -12 -11 -21 -11 -60 4 -92 35 -218 4 -289 -72 -65
-69 -88 -197 -49 -275 14 -30 13 -31 -232 -266 l-41 -40 -34 16 -33 17 0 383
0 382 31 10 c49 16 115 79 140 134 27 58 31 139 10 199 l-14 38 140 137 c77
75 143 138 148 140 5 2 30 -3 57 -11 93 -27 191 -5 263 60 177 159 60 453
-180 453 -156 0 -275 -116 -273 -266 0 -35 7 -75 16 -93 l15 -31 -121 -117
c-66 -65 -133 -129 -148 -143 -25 -25 -27 -25 -63 -9 -42 18 -146 18 -199 -2
l-33 -12 -144 141 -144 140 14 43 c45 136 -29 290 -160 332 -50 16 -138 21
-170 10z"/>
</g>
</svg>
