<?xml version="1.0" standalone="no"?>
<!DOCTYPE svg PUBLIC "-//W3C//DTD SVG 20010904//EN"
 "http://www.w3.org/TR/2001/REC-SVG-20010904/DTD/svg10.dtd">
<svg version="1.0" xmlns="http://www.w3.org/2000/svg"
 width="384.000000pt" height="384.000000pt" viewBox="0 0 384.000000 384.000000"
 preserveAspectRatio="xMidYMid meet">
<metadata>
Created by potrace 1.14, written by Peter Selinger 2001-2017
</metadata>
<g transform="translate(0.000000,384.000000) scale(0.100000,-0.100000)"
fill="#000000" stroke="none">
<path d="M635 3833 c-11 -2 -56 -11 -100 -19 -178 -34 -344 -112 -493 -231
l-42 -34 0 -240 0 -239 23 0 c30 0 36 6 81 73 122 181 340 317 551 343 33 4
607 8 1275 8 963 0 1230 -3 1285 -13 212 -40 406 -168 526 -345 36 -54 49 -65
72 -66 l27 0 0 239 0 239 -49 41 c-27 23 -53 41 -58 41 -5 0 -19 9 -31 20 -46
43 -228 124 -347 154 -33 8 -73 18 -90 23 -31 8 -2594 14 -2630 6z"/>
<path d="M605 2670 c-33 -10 -76 -24 -96 -33 -34 -15 -117 -74 -147 -104 -7
-7 -14 -13 -15 -13 -1 0 -2 24 -2 53 1 28 0 57 -2 63 -3 7 -60 10 -171 10
l-167 -1 -3 -747 -2 -746 170 0 c93 0 171 3 171 6 1 4 3 210 4 457 2 386 5
456 18 493 20 51 50 96 92 135 141 130 366 82 456 -99 l24 -49 3 -472 3 -471
157 -1 c86 0 164 2 173 5 14 4 15 49 15 417 -1 226 2 438 5 469 8 71 37 132
88 184 135 141 348 115 455 -55 47 -74 49 -98 50 -571 l1 -445 173 -2 172 -2
0 512 c-1 474 -2 518 -20 588 -41 160 -142 291 -292 377 -99 56 -267 75 -381
42 -126 -35 -233 -109 -304 -207 l-31 -43 -27 40 c-68 98 -203 189 -320 217
-57 13 -193 9 -250 -7z"/>
<path d="M2370 2642 c0 -9 60 -185 195 -577 48 -137 113 -326 145 -420 32 -93
64 -186 70 -205 7 -19 28 -80 47 -135 19 -55 39 -112 45 -127 l10 -27 222 0
221 1 128 371 c71 205 180 521 242 702 62 182 120 349 129 372 8 23 11 45 7
47 -4 3 -85 5 -179 5 -119 0 -173 -4 -180 -12 -5 -7 -60 -160 -121 -342 -228
-669 -245 -715 -252 -703 -4 7 -16 40 -28 73 -11 33 -59 173 -106 310 -48 138
-113 327 -145 420 -32 94 -65 188 -73 210 l-14 40 -182 2 c-99 1 -181 -1 -181
-5z"/>
<path d="M0 531 l0 -239 49 -41 c27 -23 53 -41 58 -41 5 0 19 -9 31 -20 46
-43 228 -124 347 -154 33 -8 74 -18 90 -23 46 -11 2600 -14 2665 -2 198 35
378 110 520 217 l75 57 3 243 2 242 -28 0 c-23 0 -35 -11 -69 -62 -129 -195
-349 -332 -569 -355 -38 -4 -611 -7 -1274 -7 -954 0 -1220 3 -1275 13 -212 40
-406 168 -526 345 -36 54 -49 65 -71 66 l-28 0 0 -239z"/>
</g>
</svg>
