<svg width="194" height="194" viewBox="0 0 194 194" fill="none" xmlns="http://www.w3.org/2000/svg">
    <path d="M30.8036 177.712C13.6035 169.789 5 153.302 5 128.25V54.9637C5 18.3208 23.4007 0 60.2007 0H133.801C170.599 0 189 18.3208 189 54.9637V128.25C189 153.302 180.396 169.789 163.195 177.712C147.366 162.515 126.648 153.13 104.411 151.414L100.723 81.2653L143.171 123.534C132.448 88.2712 143.171 123.534 132.448 88.2712C126.756 82.6055 119.752 79.0467 112.41 77.592H162.282C129.659 60.2088 162.282 77.592 129.659 60.2088C121.612 60.2088 114.132 62.6246 107.908 66.7653L143.171 31.6515C107.759 42.3307 143.171 31.6515 107.759 42.3307C102.034 48.0322 98.4505 55.0575 97.0076 62.4178C95.5661 55.0575 91.9823 48.0322 86.2563 42.3307C50.8439 31.6515 86.2563 42.3307 50.8439 31.6515L86.1068 66.7639C79.8837 62.6232 72.4046 60.2088 64.3577 60.2088C31.7328 77.592 64.3577 60.2088 31.7328 77.592H81.6008C74.2616 79.0467 67.2574 82.6055 61.5688 88.2712C50.8439 123.533 61.5688 88.2712 50.8439 123.533L93.4474 81.1108L89.5964 151.413C67.3544 153.127 46.6356 162.514 30.8036 177.712Z"
          fill="#2B2A29"/>
    <path fill-rule="evenodd" clip-rule="evenodd"
          d="M96.8792 158.912C127.071 158.912 153.14 173.255 165.296 194H28.4624C40.6178 173.255 66.6873 158.912 96.8792 158.912Z"
          fill="#EBBE40"/>
</svg>
