<svg width="194" height="194" viewBox="0 0 194 194" fill="none" xmlns="http://www.w3.org/2000/svg">
    <g clip-path="url(#clip0_934_10924)">
        <circle cx="97" cy="97" r="97" fill="#FF6879"/>
        <path fill-rule="evenodd" clip-rule="evenodd"
              d="M53.4157 61.8051C51.985 61.8051 51.0977 63.2936 51.8104 64.4841L95.4046 137.308C96.107 138.485 97.8912 138.502 98.6102 137.301L108.661 120.504C109.713 118.749 109.713 116.585 108.661 114.828L84.4609 74.39C84.4605 74.3895 84.4612 74.3907 84.4609 74.39C75.8438 59.9946 86.6099 42 103.842 42H140.584C157.816 42 168.583 59.9922 159.967 74.3876C159.967 74.3884 159.967 74.3892 159.966 74.39L147.949 94.4743C145.115 99.2108 138.838 100.834 133.928 98.1C129.018 95.366 127.336 89.3097 130.17 84.5732L142.188 64.4865L142.189 64.4841C142.902 63.2936 142.015 61.8051 140.584 61.8051H103.842C102.412 61.8051 101.524 63.2936 102.237 64.4841L126.434 104.918C126.435 104.92 126.436 104.921 126.436 104.922C131.159 112.808 131.159 122.525 126.437 130.411C126.436 130.412 126.435 130.413 126.434 130.414L116.388 147.204C107.775 161.59 86.2278 161.609 77.6187 147.199L34.0342 74.39C34.0341 74.3898 34.0343 74.3903 34.0342 74.39C25.4158 59.9945 36.1828 42 53.4157 42H63.9696C69.6384 42 74.2339 46.4335 74.2339 51.9026C74.2339 57.3715 69.6384 61.8051 63.9696 61.8051H53.4157Z"
              fill="white"/>
    </g>
    <defs>
        <clipPath id="clip0_934_10924">
            <rect width="194" height="194" fill="white"/>
        </clipPath>
    </defs>
</svg>
