<svg width="194" height="194" viewBox="0 0 194 194" fill="none" xmlns="http://www.w3.org/2000/svg">
    <g clip-path="url(#clip0_935_10447)">
        <circle cx="97" cy="97" r="97" fill="black"/>
        <path d="M139.705 38.2824C136.252 37.7148 132.715 38.0376 129.417 39.2202C126.12 40.4028 123.169 42.4063 120.837 45.0483C116.385 50.1043 115 56.6866 116.07 63.2814C117.038 69.2306 118.322 75.2675 118.612 80.9983C119.016 89.6285 117.719 98.2546 114.799 106.373C112.156 113.718 108.391 119.414 100.322 120.674C99.7241 120.77 97.5448 120.838 96.9257 120.872C96.308 120.906 94.3508 120.777 93.7456 120.681C85.6766 119.421 81.8774 113.725 79.2415 106.331C76.3209 98.2129 75.0245 89.5882 75.4298 80.9565C75.7185 75.2466 77.0025 69.2028 77.9714 63.241C79.0402 56.6449 77.6549 50.0626 73.2033 45.0066C70.8644 42.3673 67.9063 40.368 64.6027 39.1923C61.299 38.0181 57.7566 37.7036 54.3017 38.2824C43.9535 39.9923 37.0616 49.3002 37.0006 59.0643C36.9728 62.8264 37.9805 66.5217 39.9128 69.7343C43.1331 75.1172 48.419 79.0421 53.0316 83.1172C56.084 85.8428 61.3629 93.5756 63.9517 101.957C65.5174 107.034 66.7959 112.177 68.059 117.37C69.8344 124.606 72.276 140.592 73.8821 147.848C77.0899 162.374 86.9079 165.666 96.7453 166H97.0951C106.932 165.666 116.91 162.367 120.118 147.841C121.718 140.585 124.152 124.592 125.941 117.363C127.212 112.198 128.483 107.027 130.05 101.95C132.638 93.5687 137.916 85.808 140.97 83.1103C145.581 79.0212 150.86 75.1103 154.087 69.7287C156.019 66.5148 157.029 62.8195 156.999 59.0574C156.945 49.2723 150.08 39.9576 139.705 38.2824Z"
              fill="url(#paint0_linear_935_10447)"/>
        <path d="M139.705 38.2824C136.252 37.7148 132.715 38.0376 129.417 39.2202C126.12 40.4028 123.169 42.4063 120.837 45.0483C116.385 50.1043 115 56.6866 116.07 63.2814C117.038 69.2306 118.322 75.2675 118.612 80.9983C119.016 89.6285 117.719 98.2546 114.799 106.373C112.156 113.718 108.391 119.414 100.322 120.674C99.7241 120.77 97.5448 120.838 96.9257 120.872C96.308 120.906 94.3508 120.777 93.7456 120.681C85.6766 119.421 81.8774 113.725 79.2415 106.331C76.3209 98.2129 75.0245 89.5882 75.4298 80.9565C75.7185 75.2466 77.0025 69.2028 77.9714 63.241C79.0402 56.6449 77.6549 50.0626 73.2033 45.0066C70.8644 42.3673 67.9063 40.368 64.6027 39.1923C61.299 38.0181 57.7566 37.7036 54.3017 38.2824C43.9535 39.9923 37.0616 49.3002 37.0006 59.0643C36.9728 62.8264 37.9805 66.5217 39.9128 69.7343C43.1331 75.1172 48.419 79.0421 53.0316 83.1172C56.084 85.8428 61.3629 93.5756 63.9517 101.957C65.5174 107.034 66.7959 112.177 68.059 117.37C69.8344 124.606 72.276 140.592 73.8821 147.848C77.0899 162.374 86.9079 165.666 96.7453 166H97.0951C106.932 165.666 116.91 162.367 120.118 147.841C121.718 140.585 124.152 124.592 125.941 117.363C127.212 112.198 128.483 107.027 130.05 101.95C132.638 93.5687 137.916 85.808 140.97 83.1103C145.581 79.0212 150.86 75.1103 154.087 69.7287C156.019 66.5148 157.029 62.8195 156.999 59.0574C156.945 49.2723 150.08 39.9576 139.705 38.2824Z"
              fill="white" fill-opacity="0.2"/>
    </g>
    <defs>
        <linearGradient id="paint0_linear_935_10447" x1="48.7577" y1="53.1193" x2="279.668" y2="204.413"
                        gradientUnits="userSpaceOnUse">
            <stop stop-color="#11A97D"/>
            <stop offset="1" stop-color="#6610F2"/>
        </linearGradient>
        <clipPath id="clip0_935_10447">
            <rect width="194" height="194" fill="white"/>
        </clipPath>
    </defs>
</svg>
