<svg width="194" height="194" viewBox="0 0 194 194" fill="none" xmlns="http://www.w3.org/2000/svg">
    <g clip-path="url(#clip0_1010_10458)">
        <circle cx="97" cy="97" r="97" fill="#0f131c"/>
        <path d="M132.529 66.0363C143.982 59.5103 155.434 52.9843 166.986 46.4011C166.986 46.7564 166.986 47.003 166.986 47.2495C166.986 73.3886 166.984 99.5277 167 125.667C167 126.338 166.792 126.677 166.185 127.014C163.298 128.617 160.456 130.3 157.593 131.944C155.575 133.102 153.546 134.24 151.526 135.395C148.943 136.873 146.368 138.364 143.784 139.84C141.744 141.004 139.692 142.149 137.651 143.312C135.124 144.75 132.603 146.197 130.08 147.641C128.001 148.83 125.922 150.019 123.842 151.208C121.319 152.651 118.795 154.093 116.271 155.537C114.192 156.726 112.113 157.915 110.035 159.106C107.493 160.563 104.952 162.024 102.41 163.48C100.755 164.427 99.1067 165.386 97.4302 166.294C97.2051 166.416 96.7786 166.365 96.5356 166.232C94.8418 165.306 93.1707 164.339 91.4944 163.382C89.4143 162.194 87.3366 161.003 85.2571 159.814C82.7335 158.371 80.2088 156.93 77.6854 155.487C75.6061 154.298 73.5287 153.105 71.4493 151.916C68.9257 150.473 66.4003 149.034 63.8765 147.591C61.5349 146.253 59.1927 144.916 56.854 143.572C54.555 142.252 52.2627 140.92 49.9626 139.601C47.6827 138.293 45.3953 136.999 43.1138 135.695C40.7923 134.367 38.4753 133.032 36.1541 131.704C33.8728 130.399 31.5889 129.099 29.3053 127.798C28.6383 127.418 27.9594 127.057 27.3073 126.653C27.1631 126.564 27.0786 126.34 27.0236 126.162C26.9773 126.011 27.0135 125.835 27.0135 125.671C27.0134 99.5317 27.0134 73.3926 27.0134 47.2536C27.0134 46.9961 27.0134 46.7386 27.0134 46.3633C28.171 47.0105 29.2564 47.6107 30.3353 48.2221C32.4191 49.4031 34.5005 50.5884 36.5806 51.7759C38.9842 53.1481 41.3832 54.5282 43.7882 55.8981C45.9108 57.1071 48.0406 58.3039 50.1642 59.5113C52.61 60.9018 55.0516 62.2998 57.4969 63.6913C58.9315 64.5076 60.3698 65.3175 61.8463 66.1847C61.8736 66.2813 61.8761 66.3226 61.8864 66.4348C61.878 79.7111 61.8799 92.9156 61.8632 106.12C61.8627 106.563 62.0274 106.818 62.3689 107.021C65.4715 108.866 68.5705 110.716 71.6792 112.551C75.9299 115.059 80.1922 117.548 84.4421 120.057C88.488 122.446 92.5232 124.852 96.5691 127.241C96.7427 127.344 96.9766 127.346 97.2346 127.386C97.4355 127.304 97.5895 127.241 97.7319 127.159C100.965 125.285 104.196 123.409 107.428 121.533C115.649 116.76 123.869 111.983 132.098 107.221C132.494 106.992 132.669 106.753 132.666 106.286C132.619 98.6753 132.583 91.0647 132.556 83.454C132.536 77.7214 132.531 71.9887 132.516 66.2193C132.519 66.1338 132.524 66.0851 132.529 66.0363Z" fill="#00BC7D"/>
        <path d="M61.8937 66.3642C61.8761 66.3238 61.8736 66.2825 61.8909 66.2093C63.2129 65.4209 64.5256 64.656 65.848 63.9079C68.5729 62.3664 71.3003 60.8291 74.0318 59.2991C76.2612 58.0505 78.5031 56.8238 80.7302 55.5712C83.4399 54.0473 86.1356 52.4989 88.8455 50.9753C91.0727 49.7231 93.3125 48.4929 95.5449 47.2499C96.0285 46.9806 96.5047 46.6985 96.9985 46.4141C100.282 48.2439 103.556 50.0795 106.841 51.8945C109.118 53.1527 111.419 54.369 113.696 55.6283C117.203 57.5681 120.693 59.5374 124.2 61.4772C126.477 62.7364 128.771 63.9637 131.056 65.2092C131.52 65.4624 131.975 65.7332 132.482 66.0167C132.524 66.0863 132.519 66.135 132.467 66.2337C132.275 66.3626 132.128 66.4384 131.985 66.5209C120.368 73.2301 108.751 79.9398 97.0822 86.6324C87.4117 81.0569 77.7944 75.496 68.1732 69.9415C66.0871 68.7372 63.9872 67.556 61.8937 66.3642Z" fill="#39D9E5"/>
        <path d="M97.134 86.6485C108.751 79.9389 120.368 73.2292 131.985 66.52C132.128 66.4374 132.275 66.3617 132.469 66.2695C132.531 71.989 132.536 77.7216 132.556 83.4543C132.583 91.0649 132.619 98.6756 132.666 106.286C132.669 106.754 132.494 106.992 132.098 107.222C123.869 111.983 115.649 116.76 107.428 121.533C104.196 123.409 100.965 125.285 97.7319 127.159C97.5895 127.242 97.4355 127.305 97.2185 127.318C97.1477 125.662 97.1438 124.064 97.1433 122.466C97.1398 110.527 97.137 98.5877 97.134 86.6485Z" fill="#005E41"/>
        <path d="M97.0823 86.63C97.1371 98.5861 97.1399 110.525 97.1434 122.464C97.1438 124.063 97.1478 125.661 97.1663 127.326C96.9766 127.345 96.7428 127.342 96.5692 127.24C92.5232 124.851 88.488 122.444 84.4421 120.056C80.1922 117.546 75.93 115.057 71.6793 112.549C68.5705 110.715 65.4716 108.865 62.3689 107.02C62.0274 106.817 61.8627 106.561 61.8633 106.119C61.88 92.9143 61.8781 79.7099 61.8864 66.4336C63.9873 67.5536 66.0871 68.7347 68.1733 69.9391C77.7944 75.4935 87.4117 81.0544 97.0823 86.63Z" fill="white"/>
    </g>
    <defs>
        <clipPath id="clip0_1010_10458">
            <rect width="194" height="194" fill="white"/>
        </clipPath>
    </defs>
</svg>
