<svg width="20" height="20" viewBox="0 0 20 20" fill="currentColor" xmlns="http://www.w3.org/2000/svg">
    <path d="M12.5 8C12.5 8.90728 12.0167 9.70167 11.2935 10.1398C10.8769 10.0482 10.4441 10 10 10C9.55591 10 9.12309 10.0482 8.70649 10.1398C7.9833 9.70167 7.5 8.90728 7.5 8C7.5 6.61929 8.61929 5.5 10 5.5C11.3807 5.5 12.5 6.61929 12.5 8ZM10.8191 11.5744C11.4433 10.757 12.3754 10.1874 13.4423 10.0386C13.7966 9.4416 14 8.74455 14 8C14 5.79086 12.2091 4 10 4C7.79086 4 6 5.79086 6 8C6 9.0648 6.41606 10.0324 7.09447 10.7492C5.2491 11.7725 4 13.7404 4 16H5.5C5.5 13.5147 7.51472 11.5 10 11.5C10.2797 11.5 10.5535 11.5255 10.8191 11.5744Z"/>
    <path d="M14 10.75C14.4142 10.75 14.75 11.0858 14.75 11.5V13.25H16.5C16.9142 13.25 17.25 13.5858 17.25 14C17.25 14.4142 16.9142 14.75 16.5 14.75H14.75V16.5C14.75 16.9142 14.4142 17.25 14 17.25C13.5858 17.25 13.25 16.9142 13.25 16.5V14.75H11.5C11.0858 14.75 10.75 14.4142 10.75 14C10.75 13.5858 11.0858 13.25 11.5 13.25H13.25V11.5C13.25 11.0858 13.5858 10.75 14 10.75Z"/>
</svg>
