<svg width="20" height="20" viewBox="0 0 20 20" fill="currentColor" xmlns="http://www.w3.org/2000/svg">
    <path d="M12.9585 5.5H14C14.2761 5.5 14.5 5.72386 14.5 6V15C14.5 15.2761 14.2761 15.5 14 15.5H6C5.72386 15.5 5.5 15.2761 5.5 15V6C5.5 5.72386 5.72386 5.5 6 5.5H7.04148C7.13724 4.92921 7.39418 4.41308 7.76389 4H6C4.89543 4 4 4.89543 4 6V15C4 16.1046 4.89543 17 6 17H14C15.1046 17 16 16.1046 16 15V6C16 4.89543 15.1046 4 14 4H12.2361C12.6058 4.41308 12.8628 4.92921 12.9585 5.5Z"/>
    <path fill-rule="evenodd" d="M11.4146 5.5C11.2087 4.9174 10.6531 4.5 10 4.5C9.34689 4.5 8.79127 4.9174 8.58535 5.5H11.4146ZM10 3C8.34315 3 7 4.34315 7 6V6.33333C7 6.70152 7.29848 7 7.66667 7H12.3333C12.7015 7 13 6.70152 13 6.33333V6C13 4.34315 11.6569 3 10 3Z"/>
    <path d="M7 9C7 8.72386 7.22386 8.5 7.5 8.5H11.5C11.7761 8.5 12 8.72386 12 9C12 9.27614 11.7761 9.5 11.5 9.5H7.5C7.22386 9.5 7 9.27614 7 9ZM7 11C7 10.7239 7.22386 10.5 7.5 10.5H11.5C11.7761 10.5 12 10.7239 12 11C12 11.2761 11.7761 11.5 11.5 11.5H7.5C7.22386 11.5 7 11.2761 7 11ZM7 13C7 12.7239 7.22386 12.5 7.5 12.5H9.5C9.77614 12.5 10 12.7239 10 13C10 13.2761 9.77614 13.5 9.5 13.5H7.5C7.22386 13.5 7 13.2761 7 13Z"/>
</svg>
