<svg width="20" height="20" viewBox="0 0 20 20" fill="currentColor" xmlns="http://www.w3.org/2000/svg">
    <path
            fill-rule="evenodd"
            d="M11.2935 10.1398C12.0167 9.70167 12.5 8.90728 12.5 8C12.5 6.61929 11.3807 5.5 10 5.5C8.61929 5.5 7.5 6.61929 7.5 8C7.5 8.90728 7.9833 9.70167 8.70649 10.1398C9.12309 10.0482 9.55591 10 10 10C10.4441 10 10.8769 10.0482 11.2935 10.1398ZM12.9055 10.7492C13.5839 10.0324 14 9.0648 14 8C14 5.79086 12.2091 4 10 4C7.79086 4 6 5.79086 6 8C6 9.0648 6.41606 10.0324 7.09447 10.7492C5.2491 11.7725 4 13.7404 4 16H5.5C5.5 13.5147 7.51472 11.5 10 11.5C12.4853 11.5 14.5 13.5147 14.5 16H16C16 13.7404 14.7509 11.7725 12.9055 10.7492Z"
    />
</svg>
