<svg width="20" height="20" viewBox="0 0 20 20" fill="currentColor" xmlns="http://www.w3.org/2000/svg">
    <path d="M10 3.25C10.4142 3.25 10.75 3.58579 10.75 4V11.1893L13.2197 8.71967C13.5126 8.42678 13.9874 8.42678 14.2803 8.71967C14.5732 9.01256 14.5732 9.48744 14.2803 9.78033L10.5303 13.5303C10.2374 13.8232 9.76256 13.8232 9.46967 13.5303L5.71967 9.78033C5.42678 9.48744 5.42678 9.01256 5.71967 8.71967C6.01256 8.42678 6.48744 8.42678 6.78033 8.71967L9.25 11.1893V4C9.25 3.58579 9.58579 3.25 10 3.25ZM4 13C4.41421 13 4.75 13.3358 4.75 13.75V15.25C4.75 15.4489 4.82902 15.6397 4.96967 15.7803C5.11032 15.921 5.30109 16 5.5 16H14.5C14.6989 16 14.8897 15.921 15.0303 15.7803C15.171 15.6397 15.25 15.4489 15.25 15.25V13.75C15.25 13.3358 15.5858 13 16 13C16.4142 13 16.75 13.3358 16.75 13.75V15.25C16.75 15.8467 16.5129 16.419 16.091 16.841C15.669 17.2629 15.0967 17.5 14.5 17.5H5.5C4.90326 17.5 4.33097 17.2629 3.90901 16.841C3.48705 16.419 3.25 15.8467 3.25 15.25V13.75C3.25 13.3358 3.58579 13 4 13Z"/>
</svg>
