<svg width="20" height="20" viewBox="0 0 20 20" fill="currentColor" xmlns="http://www.w3.org/2000/svg">
    <path fill-rule="evenodd" d="M11.4826 4.98176C11.9514 4.51321 12.5871 4.25 13.2499 4.25C13.913 4.25 14.5489 4.5134 15.0177 4.98225C15.4866 5.45111 15.75 6.08701 15.75 6.75007C15.75 7.41292 15.4868 8.04864 15.0182 8.51745C15.018 8.5176 15.0183 8.5173 15.0182 8.51745L13.959 9.5804C13.9317 9.62162 13.8999 9.66073 13.8636 9.69705C13.8279 9.73271 13.7896 9.76402 13.7492 9.791L8.03125 15.5294C7.89053 15.6706 7.69935 15.75 7.49998 15.75H5C4.58579 15.75 4.25 15.4142 4.25 15V12.5C4.25 12.3006 4.32939 12.1095 4.47062 11.9687L10.209 6.25082C10.236 6.21043 10.2673 6.17207 10.303 6.13641C10.3393 6.10009 10.3784 6.06828 10.4196 6.04097L11.4826 4.98176C11.4828 4.98159 11.4824 4.98192 11.4826 4.98176ZM10.8428 7.73687L5.75 12.8115V14.25H7.18853L12.2631 9.15725L10.8428 7.73687ZM13.3219 8.09469L11.9053 6.67811L12.5428 6.04291C12.7303 5.85536 12.9847 5.75 13.2499 5.75C13.5152 5.75 13.7695 5.85536 13.9571 6.04291C14.1446 6.23046 14.25 6.48484 14.25 6.75007C14.25 7.01531 14.1446 7.26968 13.9571 7.45723L13.3219 8.09469Z"/>
    <path d="M10.3611 15C10.3611 14.5858 10.6969 14.25 11.1111 14.25H15C15.4142 14.25 15.75 14.5858 15.75 15C15.75 15.4142 15.4142 15.75 15 15.75H11.1111C10.6969 15.75 10.3611 15.4142 10.3611 15Z"/>
</svg>
