<svg width="20" height="20" viewBox="0 0 20 20" fill="currentColor" xmlns="http://www.w3.org/2000/svg">
    <path d="M14.4725 4H5.53177C4.23269 4 3.50674 5.54839 4.38553 6.55484L7.32755 10.0387C7.56982 10.317 7.70541 10.6741 7.70963 11.0452V13.6774C7.70963 13.8827 7.79014 14.0797 7.93345 14.2249C8.07675 14.37 8.27112 14.4516 8.47379 14.4516C8.67646 14.4516 8.87083 14.37 9.01413 14.2249C9.15744 14.0797 9.23795 13.8827 9.23795 13.6774V11.0452C9.2365 10.3087 8.97954 9.59619 8.512 9.03226L5.56845 5.54839H14.4709L11.5289 9.03226C11.0672 9.59956 10.811 10.3099 10.803 11.0452V15.2258C10.803 15.4311 10.8835 15.6281 11.0268 15.7732C11.1701 15.9184 11.3644 16 11.5671 16C11.7698 16 11.9642 15.9184 12.1075 15.7732C12.2508 15.6281 12.3313 15.4311 12.3313 15.2258V11.0452C12.3245 10.8599 12.3549 10.6753 12.4206 10.5023C12.4862 10.3293 12.5858 10.1716 12.7134 10.0387L15.6554 6.55484C16.4593 5.54839 15.7715 4 14.4725 4Z"/>
</svg>
