<svg width="20" height="20" viewBox="0 0 20 20" fill="currentColor" xmlns="http://www.w3.org/2000/svg">
    <path d="M6 4.75C5.66848 4.75 5.35054 4.8817 5.11612 5.11612C4.8817 5.35054 4.75 5.66848 4.75 6V14C4.75 14.3315 4.8817 14.6495 5.11612 14.8839C5.35054 15.1183 5.66848 15.25 6 15.25H14C14.3315 15.25 14.6495 15.1183 14.8839 14.8839C15.1183 14.6495 15.25 14.3315 15.25 14V6C15.25 5.66848 15.1183 5.35054 14.8839 5.11612C14.6495 4.8817 14.3315 4.75 14 4.75H6ZM4.05546 4.05546C4.57118 3.53973 5.27065 3.25 6 3.25H14C14.7293 3.25 15.4288 3.53973 15.9445 4.05546C16.4603 4.57118 16.75 5.27065 16.75 6V14C16.75 14.7293 16.4603 15.4288 15.9445 15.9445C15.4288 16.4603 14.7293 16.75 14 16.75H6C5.27065 16.75 4.57118 16.4603 4.05546 15.9445C3.53973 15.4288 3.25 14.7293 3.25 14V6C3.25 5.27065 3.53973 4.57118 4.05546 4.05546ZM11.25 7.33333C11.25 6.91912 11.5858 6.58333 12 6.58333H12.0067C12.4209 6.58333 12.7567 6.91912 12.7567 7.33333C12.7567 7.74755 12.4209 8.08333 12.0067 8.08333H12C11.5858 8.08333 11.25 7.74755 11.25 7.33333Z"/>
    <path d="M7.85801 9.86944L4.53033 13.1971C4.23744 13.49 3.76256 13.49 3.46967 13.1971C3.17678 12.9042 3.17678 12.4294 3.46967 12.1365L6.803 8.80313L6.81329 8.79304C7.23524 8.38701 7.75944 8.13696 8.33333 8.13696C8.90722 8.13696 9.43143 8.38701 9.85337 8.79304L9.86366 8.80313L13.197 12.1365C13.4899 12.4294 13.4899 12.9042 13.197 13.1971C12.9041 13.49 12.4292 13.49 12.1363 13.1971L8.80865 9.86944C8.61395 9.68384 8.44919 9.63696 8.33333 9.63696C8.21747 9.63696 8.05271 9.68384 7.85801 9.86944Z"/>
    <path d="M12.5247 11.2027L11.8637 11.8637C11.5708 12.1566 11.0959 12.1566 10.803 11.8637C10.5102 11.5708 10.5102 11.0959 10.803 10.8031L11.4697 10.1364L11.48 10.1263C11.9019 9.72026 12.4262 9.47021 13 9.47021C13.5739 9.47021 14.0981 9.72026 14.5201 10.1263L14.5304 10.1364L16.5304 12.1364C16.8233 12.4293 16.8233 12.9042 16.5304 13.197C16.2375 13.4899 15.7626 13.4899 15.4697 13.197L13.4754 11.2027C13.2807 11.0171 13.1159 10.9702 13 10.9702C12.8842 10.9702 12.7194 11.0171 12.5247 11.2027Z"/>
</svg>
