<svg width="20" height="20" viewBox="0 0 20 20" fill="currentColor" xmlns="http://www.w3.org/2000/svg">
    <path d="M6.42169 9.57806L5.71856 10.2812C4.47589 11.5239 4.47589 13.5386 5.71856 14.7813C6.96124 16.024 8.97601 16.024 10.2187 14.7813L11.9062 13.0938C13.1489 11.8511 13.1489 9.83632 11.9062 8.59365C11.811 8.4984 11.7112 8.41046 11.6076 8.32982L10.5309 9.40652C10.6429 9.47482 10.7487 9.55742 10.8456 9.65431C11.5024 10.3112 11.5024 11.3762 10.8456 12.0331L9.15802 13.7206C8.50113 14.3775 7.43611 14.3775 6.77922 13.7206C6.15438 13.0958 6.1239 12.1017 6.6878 11.4408L6.42169 9.57806Z" />
    <path d="M14.5782 10.4217L15.2813 9.71856C16.524 8.47589 16.524 6.46112 15.2813 5.21845C14.0386 3.97578 12.0239 3.97577 10.7812 5.21845L9.09365 6.90599C7.85098 8.14866 7.85098 10.1634 9.09365 11.4061C9.1889 11.5014 9.28869 11.5893 9.39231 11.67L10.469 10.5933C10.357 10.5249 10.2512 10.4423 10.1543 10.3454C9.49743 9.68856 9.49743 8.62354 10.1543 7.96665L11.8419 6.27911C12.4987 5.62222 13.5638 5.62222 14.2207 6.27911C14.8455 6.90396 14.876 7.8981 14.3121 8.55897L14.5782 10.4217Z" />
</svg>
