<svg width="20" height="20" viewBox="0 0 20 20" fill="currentColor" xmlns="http://www.w3.org/2000/svg">
    <path fill-rule="evenodd" d="M5 5.5H15C15.2761 5.5 15.5 5.72386 15.5 6V14C15.5 14.2761 15.2761 14.5 15 14.5H5C4.72386 14.5 4.5 14.2761 4.5 14V6C4.5 5.72386 4.72386 5.5 5 5.5ZM3 6C3 4.89543 3.89543 4 5 4H15C16.1046 4 17 4.89543 17 6V14C17 15.1046 16.1046 16 15 16H5C3.89543 16 3 15.1046 3 14V6ZM14.45 7.6C14.7814 7.35147 14.8485 6.88137 14.6 6.55C14.3515 6.21863 13.8814 6.15147 13.55 6.4L10 9.0625L6.45 6.4C6.11863 6.15147 5.64853 6.21863 5.4 6.55C5.15147 6.88137 5.21863 7.35147 5.55 7.6L9.55002 10.6L10 10.9375L10.45 10.6L14.45 7.6Z"/>
</svg>
