<svg width="20" height="20" viewBox="0 0 20 20" fill="currentColor" xmlns="http://www.w3.org/2000/svg">
<path d="M4 13C4.41421 13 4.75 13.3358 4.75 13.75V15.25C4.75 15.4489 4.82902 15.6397 4.96967 15.7803C5.11032 15.921 5.30109 16 5.5 16H14.5C14.6989 16 14.8897 15.921 15.0303 15.7803C15.171 15.6397 15.25 15.4489 15.25 15.25V13.75C15.25 13.3358 15.5858 13 16 13C16.4142 13 16.75 13.3358 16.75 13.75V15.25C16.75 15.8467 16.5129 16.419 16.091 16.841C15.669 17.2629 15.0967 17.5 14.5 17.5H5.5C4.90326 17.5 4.33097 17.2629 3.90901 16.841C3.48705 16.419 3.25 15.8467 3.25 15.25V13.75C3.25 13.3358 3.58579 13 4 13Z"/>
<path d="M10 13.75C9.58579 13.75 9.25 13.4142 9.25 13L9.25 5.81066L6.78033 8.28033C6.48744 8.57322 6.01256 8.57322 5.71967 8.28033C5.42678 7.98744 5.42678 7.51256 5.71967 7.21967L9.46967 3.46967C9.76256 3.17678 10.2374 3.17678 10.5303 3.46967L14.2803 7.21967C14.5732 7.51256 14.5732 7.98744 14.2803 8.28033C13.9874 8.57322 13.5126 8.57322 13.2197 8.28033L10.75 5.81066L10.75 13C10.75 13.4142 10.4142 13.75 10 13.75Z"/>
</svg>
