<svg width="20" height="20" viewBox="0 0 20 20" fill="currentColor" xmlns="http://www.w3.org/2000/svg">
    <path d="M3.09415 8.85931C2.96862 9.61459 2.96862 10.3854 3.09415 11.1407C3.86465 11.1218 4.55816 11.4913 4.82759 12.1421C5.09702 12.7929 4.86818 13.5445 4.30973 14.0764C4.75537 14.6995 5.30087 15.2448 5.92421 15.6902C6.45537 15.1317 7.20697 14.9029 7.8578 15.1723C8.50793 15.4417 8.87744 16.1345 8.85854 16.9057C9.61429 17.0314 10.3856 17.0314 11.1413 16.9057C11.1224 16.1352 11.4913 15.4417 12.1421 15.1723C12.7929 14.9029 13.5445 15.1317 14.0764 15.6902C14.6995 15.2445 15.2448 14.699 15.6902 14.0757C15.1317 13.5445 14.9029 12.7929 15.1723 12.1421C15.4417 11.492 16.1345 11.1225 16.9057 11.1414C17.0314 10.3857 17.0314 9.61435 16.9057 8.85861C16.1352 8.8775 15.4417 8.5087 15.1723 7.85788C14.9029 7.20705 15.1317 6.45546 15.6902 5.9236C15.2445 5.30046 14.699 4.7552 14.0757 4.30983C13.5445 4.86828 12.7929 5.09712 12.1421 4.82769C11.492 4.55827 11.1224 3.86545 11.1413 3.09426C10.3856 2.96858 9.61429 2.96858 8.85854 3.09426C8.87744 3.86475 8.50863 4.55827 7.8578 4.82769C7.20697 5.09712 6.45537 4.86828 5.92351 4.30983C5.30036 4.75547 4.7551 5.30097 4.30973 5.9243C4.86818 6.45546 5.09702 7.20705 4.82759 7.85788C4.55816 8.508 3.86534 8.8775 3.09415 8.85931ZM12.1213 12.1213C11.5587 12.6839 10.7957 13 10 13C9.20435 13 8.44129 12.6839 7.87868 12.1213C7.31607 11.5587 7 10.7956 7 10C7 9.20435 7.31607 8.44129 7.87868 7.87868C8.44129 7.31607 9.20435 7 10 7C10.7957 7 11.5587 7.31607 12.1213 7.87868C12.6839 8.44129 13 9.20435 13 10C13 10.7956 12.6839 11.5587 12.1213 12.1213Z"/>
</svg>
