<svg width="20" height="20" viewBox="0 0 20 20" fill="currentColor" xmlns="http://www.w3.org/2000/svg">
    <path d="M10 15.5C13.0376 15.5 15.5 13.0376 15.5 10C15.5 6.96243 13.0376 4.5 10 4.5C6.96243 4.5 4.5 6.96243 4.5 10C4.5 13.0376 6.96243 15.5 10 15.5ZM17 10C17 13.866 13.866 17 10 17C6.13401 17 3 13.866 3 10C3 6.13401 6.13401 3 10 3C13.866 3 17 6.13401 17 10Z"/>
    <path d="M7.49836 12.5024C7.66279 12.2805 7.97593 12.234 8.19778 12.3984C8.71145 12.7791 9.33259 13.0001 10.0001 13.0001C10.6675 13.0001 11.2887 12.7791 11.8023 12.3984C12.0242 12.234 12.3373 12.2805 12.5018 12.5024C12.6662 12.7242 12.6196 13.0373 12.3978 13.2018C11.7214 13.7031 10.8936 14.0001 10.0001 14.0001C9.10652 14.0001 8.27867 13.7031 7.60233 13.2018C7.38048 13.0373 7.33393 12.7242 7.49836 12.5024Z"/>
    <path d="M12.8 8.9499C12.8 9.5295 12.4864 9.9999 12.1 9.9999C11.7136 9.9999 11.4 9.5295 11.4 8.9499C11.4 8.3703 11.7136 7.8999 12.1 7.8999C12.4864 7.8999 12.8 8.3703 12.8 8.9499Z"/>
    <path d="M7.89995 9.9999C8.28655 9.9999 8.59995 9.5298 8.59995 8.9499C8.59995 8.37 8.28655 7.8999 7.89995 7.8999C7.51335 7.8999 7.19995 8.37 7.19995 8.9499C7.19995 9.5298 7.51335 9.9999 7.89995 9.9999Z"/>
</svg>
