<svg width="20" height="20" viewBox="0 0 20 20" fill="currentColor" xmlns="http://www.w3.org/2000/svg">
    <path d="M4.5 9V4.5H9C9.13276 4.5 9.21094 4.50049 9.28143 4.50489C9.34545 4.50889 9.37499 4.51491 9.3862 4.51771L9.39066 4.51893C9.39221 4.51989 9.39552 4.52205 9.40063 4.52597C9.40817 4.53174 9.42118 4.5425 9.43934 4.56066L15.375 10.4963L15.375 10.5L15.375 10.5037L10.5037 15.375L10.5 15.375L10.4963 15.375L4.56066 9.43934C4.5425 9.42118 4.53174 9.40817 4.52597 9.40063C4.52205 9.39552 4.51989 9.39221 4.51893 9.39066L4.51771 9.3862C4.51491 9.37499 4.50889 9.34545 4.50489 9.28143C4.50049 9.21094 4.5 9.13276 4.5 9ZM9 3H4C3.5 3 3 3.5 3 4V9C3 9.5 3 10 3.5 10.5L9.5 16.5C10 17 11 17 11.5 16.5L16.5 11.5C17 11 17 10 16.5 9.5L10.5 3.5C10 3 9.5 3 9 3ZM6.25 7C6.66421 7 7 6.66421 7 6.25C7 5.83579 6.66421 5.5 6.25 5.5C5.83579 5.5 5.5 5.83579 5.5 6.25C5.5 6.66421 5.83579 7 6.25 7Z"/>
</svg>
