<svg width="24" height="24" viewBox="0 0 24 24" xmlns="http://www.w3.org/2000/svg">
    <path d="M24 12C24 5.37258 18.6274 0 12 0C5.37258 0 0 5.37258 0 12C0 18.6274 5.37258 24 12 24C18.6274 24 24 18.6274 24 12Z" fill="#9747FF"/>
    <path d="M14.9585 7.5H16C16.2761 7.5 16.5 7.72386 16.5 8V17C16.5 17.2761 16.2761 17.5 16 17.5H8C7.72386 17.5 7.5 17.2761 7.5 17V8C7.5 7.72386 7.72386 7.5 8 7.5H9.04148C9.13724 6.92921 9.39418 6.41308 9.76389 6H8C6.89543 6 6 6.89543 6 8V17C6 18.1046 6.89543 19 8 19H16C17.1046 19 18 18.1046 18 17V8C18 6.89543 17.1046 6 16 6H14.2361C14.6058 6.41308 14.8628 6.92921 14.9585 7.5Z" fill="white"/>
    <path fill-rule="evenodd" d="M13.4146 7.5C13.2087 6.9174 12.6531 6.5 12 6.5C11.3469 6.5 10.7913 6.9174 10.5854 7.5H13.4146ZM12 5C10.3431 5 9 6.34315 9 8V8.33333C9 8.70152 9.29848 9 9.66667 9H14.3333C14.7015 9 15 8.70152 15 8.33333V8C15 6.34315 13.6569 5 12 5Z" fill="white"/>
    <path d="M9 11C9 10.7239 9.22386 10.5 9.5 10.5H13.5C13.7761 10.5 14 10.7239 14 11C14 11.2761 13.7761 11.5 13.5 11.5H9.5C9.22386 11.5 9 11.2761 9 11ZM9 13C9 12.7239 9.22386 12.5 9.5 12.5H13.5C13.7761 12.5 14 12.7239 14 13C14 13.2761 13.7761 13.5 13.5 13.5H9.5C9.22386 13.5 9 13.2761 9 13ZM9 15C9 14.7239 9.22386 14.5 9.5 14.5H11.5C11.7761 14.5 12 14.7239 12 15C12 15.2761 11.7761 15.5 11.5 15.5H9.5C9.22386 15.5 9 15.2761 9 15Z" fill="white"/>
</svg>
