<svg width="24" height="24" viewBox="0 0 24 24" xmlns="http://www.w3.org/2000/svg">
    <path d="M24 12C24 5.37258 18.6274 0 12 0C5.37258 0 0 5.37258 0 12C0 18.6274 5.37258 24 12 24C18.6274 24 24 18.6274 24 12Z" fill="#3B5998"/>
    <path d="M12 23.9999V15.9999H15L16 12.9999H12V10.4999C12 9.57407 12.7662 8.98946 14.1875 8.98946L16 8.98857V5.99996C15.8039 5.97566 15.3101 5.98172 14.6616 5.98967C14.2727 5.99445 13.8281 5.9999 13.3587 5.9999C10.7448 5.9999 8.95597 7.76126 8.95597 10.4999L9 12.9999H6V15.9999H8.95597V23.6105C9.92807 23.8646 10.9482 23.9999 12 23.9999Z" fill="white"/>
</svg>
