<svg width="24" height="24" viewBox="0 0 24 24" xmlns="http://www.w3.org/2000/svg">
    <path d="M24 12C24 5.37258 18.6274 0 12 0C5.37258 0 0 5.37258 0 12C0 18.6274 5.37258 24 12 24C18.6274 24 24 18.6274 24 12Z" fill="#888888"/>
    <path fill-rule="evenodd" d="M7 7.5H17C17.2761 7.5 17.5 7.72386 17.5 8V16C17.5 16.2761 17.2761 16.5 17 16.5H7C6.72386 16.5 6.5 16.2761 6.5 16V8C6.5 7.72386 6.72386 7.5 7 7.5ZM5 8C5 6.89543 5.89543 6 7 6H17C18.1046 6 19 6.89543 19 8V16C19 17.1046 18.1046 18 17 18H7C5.89543 18 5 17.1046 5 16V8ZM16.45 9.6C16.7814 9.35147 16.8485 8.88137 16.6 8.55C16.3515 8.21863 15.8814 8.15147 15.55 8.4L12 11.0625L8.45 8.4C8.11863 8.15147 7.64853 8.21863 7.4 8.55C7.15147 8.88137 7.21863 9.35147 7.55 9.6L11.55 12.6L12 12.9375L12.45 12.6L16.45 9.6Z" fill="white"/>
</svg>
