<svg width="24" height="24" viewBox="0 0 24 24" xmlns="http://www.w3.org/2000/svg">
    <path d="M24 12C24 5.37258 18.6274 0 12 0C5.37258 0 0 5.37258 0 12C0 18.6274 5.37258 24 12 24C18.6274 24 24 18.6274 24 12Z" fill="#26A5E3"/>
    <path d="M5.82486 11.3049C9.0467 9.8938 11.1945 8.96344 12.2685 8.51396C15.3384 7.23045 15.9755 7.00754 16.3916 7.00007C16.4831 6.99851 16.6868 7.02125 16.8198 7.12941C16.9303 7.22056 16.9614 7.34382 16.9769 7.43028C16.9907 7.51674 17.0097 7.71379 16.9942 7.86761C16.8284 9.6245 16.1084 13.8881 15.7424 15.856C15.5887 16.6886 15.2831 16.9678 14.9879 16.995C14.3456 17.0544 13.8586 16.5687 13.2371 16.1591C12.265 15.5179 11.716 15.119 10.7715 14.4935C9.6803 13.7705 10.3882 13.3731 11.0098 12.7238C11.1721 12.5539 14.0002 9.9679 14.0537 9.7334C14.0607 9.7041 14.0676 9.5947 14.002 9.537C13.9381 9.4792 13.8431 9.499 13.774 9.5146C13.6756 9.5369 12.1234 10.5695 9.1122 12.6124C8.67193 12.9169 8.2731 13.0653 7.91397 13.0575C7.52031 13.049 6.76066 12.8332 6.19606 12.6488C5.50542 12.4226 4.95461 12.303 5.00296 11.9188C5.02713 11.7188 5.3017 11.5141 5.82486 11.3049Z" fill="white"/>
</svg>
