<svg width="24" height="24" viewBox="0 0 24 24" xmlns="http://www.w3.org/2000/svg">
    <path d="M24 12C24 5.37258 18.6274 0 12 0C5.37258 0 0 5.37258 0 12C0 18.6274 5.37258 24 12 24C18.6274 24 24 18.6274 24 12Z" fill="#25D366"/>
    <path d="M15.2069 13.3896C15.0319 13.3021 14.177 12.8839 14.0169 12.8261C13.8576 12.7675 13.7412 12.7386 13.6249 12.9136C13.5094 13.086 13.1751 13.4762 13.0736 13.5917C12.9721 13.7055 12.8706 13.7142 12.6974 13.6355C12.5224 13.548 11.9606 13.3642 11.2956 12.7692C10.7776 12.3055 10.4294 11.7367 10.327 11.5617C10.2255 11.3867 10.3156 11.2905 10.4031 11.203C10.4819 11.1242 10.5781 11.0017 10.6656 10.8967C10.7514 10.7917 10.7794 10.7217 10.8389 10.608C10.8966 10.4855 10.8677 10.3892 10.824 10.3017C10.7802 10.2142 10.432 9.35673 10.2867 9.01548C10.1467 8.67423 10.0024 8.71797 9.89473 8.71797C9.79411 8.70923 9.67773 8.70923 9.56223 8.70923C9.44498 8.70923 9.25598 8.75298 9.09673 8.91923C8.93748 9.09423 8.48773 9.51423 8.48773 10.363C8.48773 11.2117 9.11161 12.0342 9.19823 12.1567C9.28573 12.2705 10.4267 14.0205 12.1732 14.773C12.5897 14.948 12.9135 15.053 13.1672 15.1405C13.5837 15.2717 13.9635 15.2542 14.2636 15.2105C14.5987 15.158 15.2944 14.7905 15.4396 14.3792C15.5884 13.968 15.5884 13.6267 15.5446 13.548C15.5009 13.4692 15.3871 13.4255 15.2121 13.3467" fill="white"/>
    <path d="M7.55581 15.3037L7.37674 15.9191C7.28623 16.2302 7.19252 16.5647 7.10098 16.899C7.43533 16.8075 7.76985 16.7138 8.08091 16.6233L8.6963 16.4442L9.25109 16.7651C10.0585 17.2322 10.9957 17.5 12 17.5C15.0376 17.5 17.5 15.0376 17.5 12C17.5 8.96243 15.0376 6.5 12 6.5C8.96243 6.5 6.5 8.96243 6.5 12C6.5 13.0043 6.7678 13.9415 7.23488 14.7489L7.55581 15.3037ZM6.65712 18.5719C5.73989 18.815 5.00002 19 5.00002 19C5.00002 19 5.18498 18.2601 5.42812 17.3429C5.58473 16.7521 5.76547 16.0877 5.93648 15.5C5.34088 14.4704 5 13.275 5 12C5 8.13401 8.13401 5 12 5C15.866 5 19 8.13401 19 12C19 15.866 15.866 19 12 19C10.725 19 9.52961 18.6591 8.5 18.0635C7.91234 18.2345 7.24793 18.4153 6.65712 18.5719Z" fill="white"/>
</svg>
