<svg width="24" height="24" viewBox="0 0 24 24" xmlns="http://www.w3.org/2000/svg">
    <path d="M24 12C24 5.37258 18.6274 0 12 0C5.37258 0 0 5.37258 0 12C0 18.6274 5.37258 24 12 24C18.6274 24 24 18.6274 24 12Z" fill="url(#paint0_linear_647_8737)"/>
    <path d="M5 8.96217C5 8.32853 5.51367 7.81486 6.14731 7.81486H6.22606C6.8597 7.81486 7.37337 8.32853 7.37337 8.96217C7.37337 9.59582 6.8597 10.1095 6.22606 10.1095H6.14731C5.51367 10.1095 5 9.59582 5 8.96217Z" fill="#202020"/>
    <path d="M7.90185 6.14731C7.90185 5.51367 8.41552 5 9.04917 5H9.12791C9.76155 5 10.2752 5.51367 10.2752 6.14731C10.2752 6.78096 9.76155 7.29462 9.12791 7.29462H9.04917C8.41552 7.29462 7.90185 6.78096 7.90185 6.14731Z" fill="#202020"/>
    <path d="M13.7248 6.14731C13.7248 5.51367 14.2384 5 14.8721 5H14.9508C15.5845 5 16.0982 5.51367 16.0982 6.14731C16.0982 6.78096 15.5845 7.29462 14.9508 7.29462H14.8721C14.2384 7.29462 13.7248 6.78096 13.7248 6.14731Z" fill="#202020"/>
    <path d="M16.6266 8.96217C16.6266 8.32853 17.1403 7.81486 17.7739 7.81486H17.8527C18.4863 7.81486 19 8.32853 19 8.96217C19 9.59582 18.4863 10.1095 17.8527 10.1095H17.7739C17.1403 10.1095 16.6266 9.59582 16.6266 8.96217Z" fill="#202020"/>
    <path d="M13.7248 11.7956C13.7248 11.162 14.2384 10.6483 14.8721 10.6483H14.9508C15.5845 10.6483 16.0982 11.162 16.0982 11.7956C16.0982 12.4293 15.5845 12.9429 14.9508 12.9429H14.8721C14.2384 12.9429 13.7248 12.4293 13.7248 11.7956Z" fill="#202020"/>
    <path d="M10.8133 8.96217C10.8133 8.32853 11.327 7.81486 11.9606 7.81486H12.0394C12.673 7.81486 13.1867 8.32853 13.1867 8.96217C13.1867 9.59582 12.673 10.1095 12.0394 10.1095H11.9606C11.327 10.1095 10.8133 9.59582 10.8133 8.96217Z" fill="#202020"/>
    <path d="M10.8133 14.564C10.8133 13.9304 11.327 13.4167 11.9606 13.4167H12.0394C12.673 13.4167 13.1867 13.9304 13.1867 14.564C13.1867 15.1977 12.673 15.7113 12.0394 15.7113H11.9606C11.327 15.7113 10.8133 15.1977 10.8133 14.564Z" fill="#202020"/>
    <path d="M7.90185 11.7956C7.90185 11.162 8.41552 10.6483 9.04917 10.6483H9.12791C9.76155 10.6483 10.2752 11.162 10.2752 11.7956C10.2752 12.4293 9.76155 12.9429 9.12791 12.9429H9.04917C8.41552 12.9429 7.90185 12.4293 7.90185 11.7956Z" fill="#202020"/>
    <path d="M11.4244 7.95862L10.1353 6.71147V6.68817C10.0239 6.88938 9.8522 7.05472 9.64357 7.16165H9.66979L10.9585 8.4084V8.41189C11.0663 8.22155 11.2283 8.06399 11.4244 7.95862Z" fill="#202020"/>
    <path d="M13.8736 6.71147V6.70403C13.9852 6.89807 14.1533 7.05754 14.3564 7.16165H14.3391L13.0505 8.4084V8.42799C12.9435 8.23174 12.7794 8.06911 12.5796 7.96077H12.5823L13.8736 6.71147Z" fill="#202020"/>
    <path d="M11.6756 10.0661V13.4601C11.7787 13.4319 11.8875 13.4167 12 13.4167C12.116 13.4167 12.2281 13.4328 12.334 13.4628V10.0634C12.2281 10.0934 12.116 10.1095 12 10.1095C11.8875 10.1095 11.7787 10.0944 11.6756 10.0661Z" fill="#202020"/>
    <path d="M11.3971 13.5756L10.1314 12.3518V12.3436C10.0213 12.539 9.85423 12.7 9.6517 12.8058H9.66979L10.9445 14.039C11.0473 13.8464 11.2047 13.6855 11.3971 13.5756Z" fill="#202020"/>
    <path d="M8.04003 11.2298V11.2578C8.15069 11.0566 8.3215 10.891 8.52927 10.7835H8.50888L7.21632 9.53295C7.10236 9.72471 6.93273 9.88162 6.72875 9.98307H6.75071L8.04003 11.2298Z" fill="#202020"/>
    <path d="M11.6756 15.6679V19H12.334V15.6653C12.2281 15.6953 12.116 15.7113 12 15.7113C11.8875 15.7113 11.7787 15.6962 11.6756 15.6679Z" fill="#202020"/>
    <path d="M13.0582 14.0443L14.3418 12.8032H14.3434C14.1468 12.6994 13.984 12.5434 13.8748 12.3544L12.6085 13.5789C12.8001 13.6897 12.9566 13.8513 13.0582 14.0443Z" fill="#202020"/>
    <path d="M15.9676 11.2311V11.2719C15.8564 11.0627 15.6806 10.8908 15.4658 10.7809H15.502L16.7869 9.53843C16.9009 9.7277 17.0692 9.88259 17.2712 9.98307H17.2582L15.9676 11.2311Z" fill="#202020"/>
    <defs>
        <linearGradient id="paint0_linear_647_8737" x1="5.5" y1="2" x2="20" y2="22" gradientUnits="userSpaceOnUse">
            <stop offset="0.473388" stop-color="#EEEEEE"/>
            <stop offset="1" stop-color="#F1E9DC"/>
        </linearGradient>
    </defs>
</svg>
