<svg width="16" height="16" viewBox="0 0 16 16" fill="currentColor" xmlns="http://www.w3.org/2000/svg">
    <path d="M3.75 6.49996C3.6837 6.49996 3.62011 6.5263 3.57322 6.57319C3.52634 6.62007 3.5 6.68366 3.5 6.74996V13.25C3.5 13.388 3.612 13.5 3.75 13.5H12.25C12.3163 13.5 12.3799 13.4736 12.4268 13.4267C12.4737 13.3799 12.5 13.3163 12.5 13.25V6.74996C12.5 6.68366 12.4737 6.62007 12.4268 6.57319C12.3799 6.5263 12.3163 6.49996 12.25 6.49996H11.25C11.0511 6.49996 10.8603 6.42094 10.7197 6.28029C10.579 6.13964 10.5 5.94887 10.5 5.74996C10.5 5.55105 10.579 5.36028 10.7197 5.21963C10.8603 5.07898 11.0511 4.99996 11.25 4.99996H12.25C13.216 4.99996 14 5.78396 14 6.74996V13.25C14 13.7141 13.8156 14.1592 13.4874 14.4874C13.1592 14.8156 12.7141 15 12.25 15H3.75C3.28587 15 2.84075 14.8156 2.51256 14.4874C2.18437 14.1592 2 13.7141 2 13.25V6.74996C2 5.78396 2.784 4.99996 3.75 4.99996H4.75C4.94891 4.99996 5.13968 5.07898 5.28033 5.21963C5.42098 5.36028 5.5 5.55105 5.5 5.74996C5.5 5.94887 5.42098 6.13964 5.28033 6.28029C5.13968 6.42094 4.94891 6.49996 4.75 6.49996H3.75ZM7.823 0.176963C7.84622 0.153681 7.87381 0.135209 7.90418 0.122606C7.93456 0.110003 7.96712 0.103516 8 0.103516C8.03288 0.103516 8.06544 0.110003 8.09582 0.122606C8.12619 0.135209 8.15378 0.153681 8.177 0.176963L11.073 3.07296C11.1081 3.10793 11.1319 3.15251 11.1416 3.20107C11.1513 3.24962 11.1464 3.29996 11.1274 3.34569C11.1084 3.39143 11.0763 3.43051 11.0351 3.45797C10.9939 3.48544 10.9455 3.50005 10.896 3.49996H8.75V9.24996C8.75 9.44888 8.67098 9.63964 8.53033 9.78029C8.38968 9.92095 8.19891 9.99996 8 9.99996C7.80109 9.99996 7.61032 9.92095 7.46967 9.78029C7.32902 9.63964 7.25 9.44888 7.25 9.24996V3.49996H5.104C5.05449 3.50005 5.00607 3.48544 4.96487 3.45797C4.92368 3.43051 4.89157 3.39143 4.87261 3.34569C4.85365 3.29996 4.8487 3.24962 4.85838 3.20107C4.86806 3.15251 4.89195 3.10793 4.927 3.07296L7.823 0.176963Z"/>
</svg>
