<svg width="160" height="44" viewBox="0 0 160 44" fill="currentColor" xmlns="http://www.w3.org/2000/svg">
    <path fill-rule="evenodd" d="M150 4H10C6.68629 4 4 6.68629 4 10V34C4 37.3137 6.68629 40 10 40H150C153.314 40 156 37.3137 156 34V10C156 6.68629 153.314 4 150 4ZM10 0C4.47715 0 0 4.47715 0 10V34C0 39.5228 4.47715 44 10 44H150C155.523 44 160 39.5228 160 34V10C160 4.47715 155.523 0 150 0H10Z"/>
    <path d="M15 30.6114V15.6648H18.6596V16.995C19.1696 16.4569 19.7795 16.0335 20.4894 15.7246C21.1993 15.4057 21.9643 15.2463 22.7842 15.2463C23.8241 15.2463 24.779 15.4904 25.6489 15.9786C26.5288 16.4669 27.2287 17.1196 27.7487 17.9367C28.2786 17.1196 28.9785 16.4669 29.8484 15.9786C30.7183 15.4904 31.6732 15.2463 32.7131 15.2463C33.813 15.2463 34.8079 15.5153 35.6978 16.0534C36.5977 16.5815 37.3127 17.294 37.8426 18.1907C38.3825 19.0776 38.6525 20.069 38.6525 21.1651V30.6114H34.9929V22.1367C34.9929 21.5587 34.8479 21.0306 34.5579 20.5523C34.278 20.0641 33.898 19.6754 33.4181 19.3865C32.9481 19.0875 32.4182 18.9381 31.8282 18.9381C31.2383 18.9381 30.7033 19.0826 30.2234 19.3715C29.7534 19.6505 29.3735 20.0292 29.0835 20.5075C28.7936 20.9858 28.6486 21.5288 28.6486 22.1367V30.6114H24.9889V22.1367C24.9889 21.5288 24.849 20.9858 24.569 20.5075C24.289 20.0292 23.9091 19.6505 23.4291 19.3715C22.9492 19.0826 22.4142 18.9381 21.8243 18.9381C21.2443 18.9381 20.7144 19.0875 20.2344 19.3865C19.7545 19.6754 19.3695 20.0641 19.0796 20.5523C18.7996 21.0306 18.6596 21.5587 18.6596 22.1367V30.6114H15Z"/>
    <path d="M52.6732 15.6648H56.3328V30.6114H52.6732L52.5082 28.758C52.0983 29.4256 51.5533 29.9687 50.8734 30.3872C50.2035 30.7957 49.4086 31 48.4887 31C47.3788 31 46.3389 30.7907 45.369 30.3722C44.3991 29.9537 43.5442 29.3758 42.8043 28.6384C42.0743 27.9011 41.4994 27.0491 41.0794 26.0826C40.6695 25.116 40.4645 24.0797 40.4645 22.9737C40.4645 21.9075 40.6595 20.906 41.0494 19.9694C41.4494 19.0327 42.0043 18.2107 42.7143 17.5032C43.4242 16.7957 44.2441 16.2427 45.174 15.8441C46.1039 15.4456 47.1038 15.2463 48.1737 15.2463C49.1636 15.2463 50.0485 15.4655 50.8284 15.9039C51.6183 16.3423 52.2883 16.9004 52.8382 17.5779L52.6732 15.6648ZM48.3987 27.4875C49.1786 27.4875 49.8685 27.2932 50.4685 26.9046C51.0684 26.516 51.5383 25.9929 51.8783 25.3352C52.2183 24.6676 52.3883 23.9352 52.3883 23.1381C52.3883 22.331 52.2183 21.5986 51.8783 20.9409C51.5383 20.2733 51.0634 19.7452 50.4535 19.3566C49.8535 18.968 49.1686 18.7737 48.3987 18.7737C47.6288 18.7737 46.9238 18.973 46.2839 19.3715C45.654 19.7601 45.149 20.2833 44.7691 20.9409C44.3991 21.5986 44.2141 22.331 44.2141 23.1381C44.2141 23.9452 44.4041 24.6776 44.7841 25.3352C45.164 25.9929 45.669 26.516 46.2989 26.9046C46.9388 27.2932 47.6388 27.4875 48.3987 27.4875Z"/>
    <path d="M59.3215 15.6648H62.9811V30.6114H59.3215V15.6648ZM61.1813 13.7367C60.6414 13.7367 60.1864 13.5623 59.8165 13.2135C59.4465 12.8548 59.2615 12.4064 59.2615 11.8683C59.2615 11.3402 59.4465 10.8968 59.8165 10.5381C60.1864 10.1794 60.6364 10 61.1663 10C61.6963 10 62.1412 10.1794 62.5012 10.5381C62.8711 10.8968 63.0561 11.3402 63.0561 11.8683C63.0561 12.4064 62.8761 12.8548 62.5162 13.2135C62.1562 13.5623 61.7113 13.7367 61.1813 13.7367Z"/>
    <path d="M80.2078 21.1651V30.6114H76.5481V22.1217C76.5481 21.5338 76.4031 21.0007 76.1132 20.5224C75.8232 20.0342 75.4333 19.6505 74.9433 19.3715C74.4634 19.0826 73.9284 18.9381 73.3385 18.9381C72.7485 18.9381 72.2086 19.0826 71.7186 19.3715C71.2387 19.6505 70.8537 20.0342 70.5638 20.5224C70.2838 21.0007 70.1438 21.5338 70.1438 22.1217V30.6114H66.4842L66.4692 15.6648H70.1288L70.1438 16.995C70.6538 16.4569 71.2637 16.0335 71.9736 15.7246C72.6835 15.4057 73.4485 15.2463 74.2684 15.2463C75.3583 15.2463 76.3532 15.5153 77.2531 16.0534C78.153 16.5815 78.8679 17.294 79.3978 18.1907C79.9378 19.0776 80.2078 20.069 80.2078 21.1651Z"/>
    <path d="M91.8062 30.6114H87.0817L81.6223 15.6498H85.5219L89.4515 26.4114L93.3661 15.6498H97.2656L91.8062 30.6114Z"/>
    <path d="M99.4833 15.6648H103.143V30.6114H99.4833V15.6648ZM101.343 13.7367C100.803 13.7367 100.348 13.5623 99.9782 13.2135C99.6083 12.8548 99.4233 12.4064 99.4233 11.8683C99.4233 11.3402 99.6083 10.8968 99.9782 10.5381C100.348 10.1794 100.798 10 101.328 10C101.858 10 102.303 10.1794 102.663 10.5381C103.033 10.8968 103.218 11.3402 103.218 11.8683C103.218 12.4064 103.038 12.8548 102.678 13.2135C102.318 13.5623 101.873 13.7367 101.343 13.7367Z"/>
    <path d="M112.996 31C111.616 31 110.356 30.6463 109.216 29.9388C108.086 29.2313 107.182 28.2797 106.502 27.084C105.832 25.8883 105.497 24.568 105.497 23.1231C105.497 22.037 105.692 21.0206 106.082 20.074C106.472 19.1174 107.007 18.2804 107.686 17.563C108.376 16.8356 109.176 16.2676 110.086 15.8591C110.996 15.4505 111.966 15.2463 112.996 15.2463C114.166 15.2463 115.236 15.4954 116.206 15.9936C117.186 16.4819 118.015 17.1544 118.695 18.0114C119.375 18.8683 119.87 19.8448 120.18 20.9409C120.49 22.037 120.56 23.1829 120.39 24.3786H109.426C109.566 24.9367 109.796 25.4399 110.116 25.8883C110.436 26.3267 110.841 26.6804 111.331 26.9495C111.821 27.2085 112.376 27.3431 112.996 27.353C113.636 27.363 114.216 27.2135 114.736 26.9046C115.266 26.5858 115.706 26.1573 116.056 25.6192L119.79 26.4861C119.18 27.8114 118.27 28.8975 117.061 29.7445C115.851 30.5815 114.496 31 112.996 31ZM109.306 21.6434H116.686C116.576 21.0456 116.341 20.5075 115.981 20.0292C115.631 19.5409 115.196 19.1523 114.676 18.8633C114.156 18.5744 113.596 18.4299 112.996 18.4299C112.396 18.4299 111.841 18.5744 111.331 18.8633C110.821 19.1423 110.386 19.526 110.026 20.0142C109.676 20.4925 109.436 21.0356 109.306 21.6434Z"/>
    <path d="M129.867 30.6114H126.237L121.227 15.6648H124.812L128.067 25.3352L131.306 15.6648H134.921L138.161 25.3352L141.415 15.6648H145L139.991 30.6114H136.361L133.106 20.8961L129.867 30.6114Z"/>
</svg>
