<svg width="190" height="48" viewBox="0 0 190 48" fill="none" xmlns="http://www.w3.org/2000/svg">
    <path d="M37.2904 48L40.0928 41.6534L40.1192 43.7776L33.1926 28.4422H36.3651L40.7008 38.4413C40.7889 38.614 40.8947 38.8817 41.0181 39.2443C41.1414 39.5897 41.2472 39.9351 41.3353 40.2805L40.6479 40.4359C40.7889 40.0733 40.9211 39.7106 41.0445 39.348C41.1855 38.9853 41.3177 38.6226 41.4411 38.26L45.063 28.4422H48.2884L42.5779 42.042L40.2249 48H37.2904Z" fill="#111111"/>
    <path d="M49.8902 42.042V22.8727H52.6132V42.042H49.8902Z" fill="#111111"/>
    <path d="M55.0272 42.042V28.4422H57.7503V42.042H55.0272ZM56.3491 26.2248C55.7675 26.2248 55.3181 26.078 55.0008 25.7844C54.6836 25.4908 54.5249 25.0763 54.5249 24.541C54.5249 24.0401 54.6836 23.6343 55.0008 23.3235C55.3357 23.0126 55.7851 22.8572 56.3491 22.8572C56.9307 22.8572 57.3802 23.004 57.6974 23.2976C58.0147 23.5911 58.1733 24.0056 58.1733 24.541C58.1733 25.0418 58.0059 25.4476 57.671 25.7585C57.3537 26.0693 56.9131 26.2248 56.3491 26.2248Z" fill="#111111"/>
    <path d="M66.5008 42.3011C65.2318 42.3011 64.095 41.9988 63.0903 41.3944C62.1033 40.7727 61.319 39.9351 60.7374 38.8817C60.1558 37.811 59.865 36.5934 59.865 35.2291C59.865 33.8648 60.147 32.656 60.711 31.6025C61.2926 30.5318 62.0769 29.6942 63.0639 29.0898C64.0509 28.4681 65.1701 28.1572 66.4215 28.1572C67.1088 28.1572 67.7698 28.2695 68.4043 28.494C69.0564 28.7012 69.638 28.9948 70.1492 29.3747C70.6603 29.7374 71.4252 30.1432 71.7072 30.5922C72.0068 31.024 72.1566 31.4644 72.1566 31.9134L70.9952 31.9652L71.33 22.8727H74.0866V42.042H71.33L70.9952 38.804H71.8923C71.8923 39.2184 71.7513 39.6329 71.4693 40.0474C71.1873 40.4446 70.44 40.8159 69.9641 41.1613C69.5058 41.5067 68.9683 41.783 68.3514 41.9902C67.7522 42.1974 67.1353 42.3011 66.5008 42.3011ZM66.8709 39.9956C67.6993 39.9956 68.2965 39.8173 69.0652 39.3739C69.8743 38.9071 70.2865 38.492 70.7466 37.6901C71.2404 36.8296 71.3353 36.1444 71.3353 35.2291C71.3353 34.3139 71.2309 33.6485 70.7466 32.7941C70.2872 31.9835 69.8794 31.557 69.0652 31.0844C68.2977 30.639 67.6993 30.4627 66.8709 30.4627C66.0425 30.4627 65.3111 30.67 64.6766 31.0844C64.0421 31.4989 63.5398 32.0688 63.1697 32.7941C62.8172 33.5022 62.6409 34.3139 62.6409 35.2291C62.6409 36.1444 62.8172 36.9647 63.1697 37.6901C63.5398 38.3981 64.0421 38.9594 64.6766 39.3739C65.3111 39.7883 66.0425 39.9956 66.8709 39.9956Z" fill="#111111"/>
    <path d="M83.2213 42.3011C81.7937 42.3011 80.5247 42.0075 79.4143 41.4203C78.3216 40.8159 77.4579 39.9956 76.8234 38.9594C76.2066 37.9232 75.8981 36.7316 75.8981 35.3846C75.8981 34.3139 76.0744 33.3381 76.4269 32.4574C76.7794 31.5766 77.2641 30.8168 77.881 30.1778C78.5155 29.5215 79.2645 29.0207 80.1281 28.6753C81.0094 28.3127 81.9611 28.1313 82.9834 28.1313C83.8823 28.1313 84.7195 28.304 85.495 28.6494C86.2705 28.9775 86.9402 29.4352 87.5042 30.0224C88.0858 30.6095 88.5265 31.3089 88.8261 32.1206C89.1433 32.915 89.2931 33.7871 89.2755 34.737L89.2491 35.8768H77.9074L77.2993 33.7526H86.8961L86.4996 34.193V33.5713C86.4467 33.0014 86.2528 32.4919 85.918 32.0429C85.5831 31.5939 85.1601 31.2399 84.649 30.9808C84.1378 30.7218 83.5826 30.5922 82.9834 30.5922C82.0316 30.5922 81.2297 30.7736 80.5776 31.1362C79.9255 31.4816 79.4319 31.9997 79.0971 32.6905C78.7622 33.364 78.5948 34.2016 78.5948 35.2032C78.5948 36.1531 78.7975 36.982 79.2028 37.6901C79.6082 38.3809 80.181 38.9162 80.9213 39.2961C81.6615 39.6761 82.5163 39.866 83.4857 39.866C84.1731 39.866 84.8076 39.7538 85.3892 39.5293C85.9885 39.3048 86.6318 38.8989 87.3191 38.3118L88.6939 40.2028C88.2709 40.6173 87.751 40.9799 87.1341 41.2908C86.5348 41.6016 85.8915 41.852 85.2041 42.042C84.5344 42.2147 83.8735 42.3011 83.2213 42.3011Z" fill="#111111"/>
    <path d="M0 11.9592C0 10.0466 1.55276 8.49618 3.46819 8.49618H3.70622C5.62165 8.49618 7.17441 10.0466 7.17441 11.9592C7.17441 13.8717 5.62165 15.4221 3.70622 15.4221H3.46818C1.55276 15.4221 0 13.8717 0 11.9592Z" fill="#111111"/>
    <path d="M8.77194 3.46297C8.77194 1.55042 10.3247 0 12.2401 0H12.4782C14.3936 0 15.9463 1.55042 15.9463 3.46297C15.9463 5.37552 14.3936 6.92594 12.4782 6.92594H12.2401C10.3247 6.92594 8.77194 5.37552 8.77194 3.46297Z" fill="#111111"/>
    <path d="M26.3739 3.46297C26.3739 1.55042 27.9267 0 29.8421 0H30.0802C31.9956 0 33.5483 1.55042 33.5483 3.46297C33.5483 5.37552 31.9956 6.92594 30.0802 6.92594H29.8421C27.9267 6.92594 26.3739 5.37552 26.3739 3.46297Z" fill="#111111"/>
    <path d="M35.1459 11.9592C35.1459 10.0466 36.6986 8.49618 38.6141 8.49618H38.8521C40.7675 8.49618 42.3203 10.0466 42.3203 11.9592C42.3203 13.8717 40.7675 15.4221 38.8521 15.4221H38.614C36.6986 15.4221 35.1459 13.8717 35.1459 11.9592Z" fill="#111111"/>
    <path d="M26.3739 20.5114C26.3739 18.5989 27.9267 17.0485 29.8421 17.0485H30.0802C31.9956 17.0485 33.5483 18.5989 33.5483 20.5114C33.5483 22.424 31.9956 23.9744 30.0802 23.9744H29.8421C27.9267 23.9744 26.3739 22.424 26.3739 20.5114Z" fill="#111111"/>
    <path d="M17.5729 11.9592C17.5729 10.0466 19.1257 8.49618 21.0411 8.49618H21.2792C23.1946 8.49618 24.7473 10.0466 24.7473 11.9592C24.7473 13.8717 23.1946 15.4221 21.2792 15.4221H21.0411C19.1257 15.4221 17.5729 13.8717 17.5729 11.9592Z" fill="#111111"/>
    <path d="M17.5729 28.8674C17.5729 26.9549 19.1257 25.4045 21.0411 25.4045H21.2792C23.1946 25.4045 24.7473 26.9549 24.7473 28.8674C24.7473 30.78 23.1946 32.3304 21.2792 32.3304H21.0411C19.1257 32.3304 17.5729 30.78 17.5729 28.8674Z" fill="#111111"/>
    <path d="M8.77194 20.5114C8.77194 18.5989 10.3247 17.0485 12.2401 17.0485H12.4782C14.3936 17.0485 15.9463 18.5989 15.9463 20.5114C15.9463 22.424 14.3936 23.9744 12.4782 23.9744H12.2401C10.3247 23.9744 8.77194 22.424 8.77194 20.5114Z" fill="#111111"/>
    <path d="M19.4202 8.93009L15.5235 5.1658V5.09547C15.1866 5.70278 14.6676 6.20182 14.037 6.52459H14.1162L18.0117 10.2877V10.2982C18.3376 9.72371 18.8273 9.24814 19.4202 8.93009Z" fill="#111111"/>
    <path d="M26.8238 5.1658V5.14333C27.1611 5.729 27.6692 6.21034 28.2833 6.52459H28.2311L24.3356 10.2877V10.3468C24.0122 9.75446 23.5161 9.26358 22.912 8.93658H22.9203L26.8238 5.1658Z" fill="#111111"/>
    <path d="M20.1794 15.2911V25.5355C20.4911 25.4501 20.8201 25.4045 21.1601 25.4045C21.5107 25.4045 21.8496 25.453 22.1699 25.5436V15.283C21.8496 15.3736 21.5107 15.4221 21.1601 15.4221C20.8201 15.4221 20.4911 15.3765 20.1794 15.2911Z" fill="#111111"/>
    <path d="M19.3375 25.8841L15.5116 22.19V22.1653C15.1789 22.7551 14.6737 23.2411 14.0615 23.5604H14.1162L17.9696 27.2828C18.2801 26.7014 18.7561 26.2158 19.3375 25.8841Z" fill="#111111"/>
    <path d="M9.18965 18.8036V18.8881C9.52414 18.2808 10.0405 17.781 10.6686 17.4564H10.6069L6.69967 13.6819C6.35517 14.2607 5.84239 14.7344 5.22579 15.0406H5.29219L9.18965 18.8036Z" fill="#111111"/>
    <path d="M20.1794 32.1994V42.2567H22.1699V32.1913C21.8496 32.2818 21.5107 32.3304 21.1601 32.3304C20.8201 32.3304 20.4911 32.2847 20.1794 32.1994Z" fill="#111111"/>
    <path d="M24.3591 27.2989L28.239 23.5527H28.244C27.6498 23.2393 27.1575 22.7684 26.8274 22.1981L22.9996 25.8938C23.5787 26.2284 24.0518 26.716 24.3591 27.2989Z" fill="#111111"/>
    <path d="M33.1536 18.8075V18.9307C32.8175 18.2993 32.2862 17.7805 31.6367 17.4487H31.7463L35.6305 13.6985C35.9749 14.2698 36.4837 14.7373 37.0944 15.0406H37.0551L33.1536 18.8075Z" fill="#111111"/>
    <path d="M98.4338 34.8571C98.4338 28.8609 103.26 24 109.213 24H179.22C185.174 24 190 28.8609 190 34.8571V34.8571C190 40.8534 185.174 45.7143 179.22 45.7143H109.213C103.26 45.7143 98.4338 40.8534 98.4338 34.8571V34.8571Z" fill="#BB44CC"/>
    <path d="M110.654 40.2445C110.045 40.2445 109.488 40.169 108.982 40.0181C108.485 39.8672 108.041 39.6455 107.647 39.353C107.263 39.0606 106.917 38.7068 106.607 38.2917L107.928 36.7776C108.387 37.4191 108.841 37.8577 109.291 38.0936C109.75 38.32 110.246 38.4332 110.78 38.4332C111.071 38.4332 111.328 38.3955 111.553 38.32C111.787 38.2351 111.97 38.1172 112.101 37.9662C112.232 37.8153 112.298 37.636 112.298 37.4285C112.298 37.2775 112.265 37.1408 112.199 37.0181C112.134 36.886 112.04 36.7728 111.918 36.6785C111.796 36.5747 111.651 36.4851 111.483 36.4096C111.314 36.3247 111.127 36.254 110.921 36.1974C110.715 36.1313 110.49 36.0794 110.246 36.0417C109.722 35.9191 109.263 35.7728 108.869 35.603C108.476 35.4238 108.148 35.2068 107.886 34.9521C107.624 34.6879 107.427 34.3908 107.296 34.0606C107.174 33.7304 107.113 33.3578 107.113 32.9427C107.113 32.5181 107.207 32.1266 107.394 31.7681C107.582 31.4002 107.839 31.0842 108.167 30.82C108.504 30.5559 108.888 30.353 109.319 30.2115C109.759 30.07 110.223 29.9993 110.71 29.9993C111.309 29.9993 111.834 30.07 112.284 30.2115C112.733 30.3436 113.122 30.537 113.45 30.7917C113.787 31.0464 114.068 31.3578 114.293 31.7257L112.958 33.0276C112.761 32.7634 112.546 32.5417 112.312 32.3625C112.087 32.1832 111.839 32.0512 111.567 31.9662C111.305 31.8719 111.033 31.8247 110.752 31.8247C110.443 31.8247 110.176 31.8672 109.951 31.9521C109.726 32.0276 109.549 32.1408 109.417 32.2917C109.296 32.4427 109.235 32.6266 109.235 32.8436C109.235 33.0134 109.277 33.1644 109.361 33.2964C109.445 33.4285 109.567 33.5464 109.726 33.6502C109.886 33.7445 110.078 33.8294 110.303 33.9049C110.527 33.9804 110.776 34.0464 111.047 34.103C111.562 34.2068 112.026 34.3436 112.438 34.5134C112.85 34.6832 113.201 34.8908 113.492 35.136C113.792 35.3719 114.021 35.6549 114.18 35.9851C114.34 36.3059 114.419 36.6691 114.419 37.0747C114.419 37.7445 114.26 38.3153 113.941 38.787C113.623 39.2587 113.183 39.6219 112.621 39.8766C112.059 40.1219 111.403 40.2445 110.654 40.2445Z" fill="white"/>
    <path d="M119.503 40.2445C118.745 40.2445 118.065 40.0794 117.466 39.7492C116.876 39.4096 116.408 38.9474 116.061 38.3624C115.724 37.7775 115.555 37.1077 115.555 36.353C115.555 35.5983 115.724 34.9332 116.061 34.3577C116.408 33.7728 116.876 33.3106 117.466 32.971C118.065 32.6313 118.745 32.4615 119.503 32.4615C120.253 32.4615 120.922 32.6313 121.512 32.971C122.112 33.3106 122.58 33.7728 122.917 34.3577C123.255 34.9332 123.423 35.5983 123.423 36.353C123.423 37.1077 123.255 37.7775 122.917 38.3624C122.58 38.9474 122.112 39.4096 121.512 39.7492C120.922 40.0794 120.253 40.2445 119.503 40.2445ZM119.503 38.4898C119.869 38.4898 120.196 38.4002 120.487 38.2209C120.777 38.0323 121.002 37.7775 121.161 37.4568C121.33 37.1266 121.414 36.7587 121.414 36.353C121.414 35.9379 121.33 35.57 121.161 35.2493C121.002 34.9191 120.777 34.6644 120.487 34.4851C120.196 34.2964 119.869 34.2021 119.503 34.2021C119.129 34.2021 118.796 34.2964 118.506 34.4851C118.215 34.6738 117.986 34.9285 117.817 35.2493C117.649 35.57 117.569 35.9379 117.578 36.353C117.569 36.7587 117.649 37.1266 117.817 37.4568C117.986 37.7775 118.215 38.0323 118.506 38.2209C118.796 38.4002 119.129 38.4898 119.503 38.4898Z" fill="white"/>
    <path d="M128.156 40.2445C127.444 40.2445 126.807 40.0747 126.245 39.7351C125.683 39.3955 125.238 38.9332 124.91 38.3483C124.592 37.7634 124.432 37.0983 124.432 36.353C124.432 35.6172 124.592 34.9568 124.91 34.3719C125.238 33.7776 125.683 33.3106 126.245 32.971C126.807 32.6313 127.444 32.4615 128.156 32.4615C128.821 32.4615 129.429 32.5842 129.982 32.8295C130.535 33.0747 130.966 33.4144 131.275 33.8483L130.179 35.1785C130.048 34.9993 129.884 34.8389 129.687 34.6974C129.49 34.5464 129.275 34.4285 129.041 34.3436C128.816 34.2587 128.582 34.2162 128.338 34.2162C127.954 34.2162 127.612 34.3106 127.313 34.4993C127.022 34.6785 126.793 34.9285 126.624 35.2493C126.456 35.57 126.371 35.9379 126.371 36.353C126.371 36.7587 126.456 37.1219 126.624 37.4426C126.802 37.754 127.041 38.0087 127.341 38.2068C127.64 38.3955 127.978 38.4898 128.352 38.4898C128.596 38.4898 128.825 38.4568 129.041 38.3908C129.256 38.3153 129.458 38.2068 129.645 38.0653C129.842 37.9238 130.02 37.754 130.179 37.5558L131.261 38.886C130.942 39.2917 130.502 39.6219 129.94 39.8766C129.378 40.1219 128.783 40.2445 128.156 40.2445Z" fill="white"/>
    <path d="M132.708 40.103V32.6172H134.703V40.103H132.708ZM133.691 31.0747C133.307 31.0747 133.007 30.9804 132.792 30.7917C132.577 30.603 132.469 30.3342 132.469 29.9851C132.469 29.6644 132.577 29.4049 132.792 29.2068C133.017 28.9993 133.316 28.8955 133.691 28.8955C134.075 28.8955 134.375 28.9946 134.59 29.1927C134.806 29.3814 134.913 29.6455 134.913 29.9851C134.913 30.3153 134.801 30.5795 134.576 30.7776C134.361 30.9757 134.066 31.0747 133.691 31.0747Z" fill="white"/>
    <path d="M139.615 40.2445C138.997 40.2445 138.44 40.0747 137.944 39.7351C137.447 39.3955 137.054 38.9332 136.763 38.3483C136.473 37.7634 136.328 37.0936 136.328 36.3389C136.328 35.5842 136.473 34.9191 136.763 34.3436C137.063 33.7587 137.466 33.3011 137.972 32.971C138.477 32.6313 139.053 32.4615 139.7 32.4615C140.065 32.4615 140.398 32.5181 140.697 32.6313C141.006 32.7351 141.273 32.8813 141.498 33.07C141.732 33.2587 141.929 33.4757 142.088 33.721C142.247 33.9662 142.36 34.2304 142.425 34.5134L142.004 34.4427V32.6172H143.985V40.103H141.976V38.3058L142.425 38.2634C142.35 38.5275 142.229 38.7775 142.06 39.0134C141.892 39.2492 141.681 39.4615 141.428 39.6502C141.184 39.8294 140.908 39.9756 140.599 40.0889C140.29 40.1926 139.962 40.2445 139.615 40.2445ZM140.163 38.504C140.538 38.504 140.866 38.4143 141.147 38.2351C141.428 38.0558 141.643 37.8058 141.793 37.4851C141.952 37.1549 142.032 36.7728 142.032 36.3389C142.032 35.9143 141.952 35.5417 141.793 35.221C141.643 34.9002 141.428 34.6502 141.147 34.471C140.866 34.2823 140.538 34.1879 140.163 34.1879C139.798 34.1879 139.475 34.2823 139.194 34.471C138.922 34.6502 138.707 34.9002 138.548 35.221C138.388 35.5417 138.309 35.9143 138.309 36.3389C138.309 36.7728 138.388 37.1549 138.548 37.4851C138.707 37.8058 138.922 38.0558 139.194 38.2351C139.475 38.4143 139.798 38.504 140.163 38.504Z" fill="white"/>
    <path d="M145.999 40.103V29.6314H147.994V40.103H145.999Z" fill="white"/>
    <path d="M160.804 40.103V30.1974H162.912V40.103H160.804ZM154.608 40.103V30.1974H156.716V40.103H154.608ZM155.451 36.1266L155.465 34.2021H161.886V36.1266H155.451Z" fill="white"/>
    <path d="M167.751 40.2445C167.208 40.2445 166.739 40.1266 166.346 39.8907C165.962 39.6455 165.662 39.3011 165.447 38.8577C165.241 38.4049 165.138 37.8625 165.138 37.2304V32.6172H167.133V36.9049C167.133 37.2445 167.189 37.5417 167.301 37.7964C167.414 38.0417 167.573 38.2304 167.779 38.3624C167.985 38.4945 168.238 38.5606 168.538 38.5606C168.753 38.5606 168.955 38.5275 169.142 38.4615C169.329 38.386 169.489 38.2823 169.62 38.1502C169.751 38.0181 169.854 37.8625 169.929 37.6832C170.004 37.504 170.041 37.3106 170.041 37.103V32.6172H172.036V40.103H170.14L170.069 38.5606L170.435 38.3908C170.322 38.7398 170.135 39.0558 169.873 39.3389C169.61 39.6219 169.297 39.8436 168.931 40.004C168.566 40.1643 168.173 40.2445 167.751 40.2445Z" fill="white"/>
    <path d="M178.329 40.2445C178.001 40.2445 177.683 40.1973 177.374 40.103C177.064 40.0087 176.783 39.8813 176.531 39.7209C176.278 39.5511 176.067 39.3624 175.898 39.1549C175.73 38.9379 175.622 38.7162 175.575 38.4898L176.025 38.32L175.926 40.0747H174.044V29.6314H176.039V34.3719L175.659 34.2162C175.716 33.9898 175.823 33.7728 175.983 33.5653C176.142 33.3483 176.343 33.1596 176.587 32.9993C176.83 32.8295 177.097 32.6974 177.388 32.603C177.678 32.5087 177.978 32.4615 178.287 32.4615C178.933 32.4615 179.509 32.6313 180.015 32.971C180.521 33.3011 180.919 33.7587 181.209 34.3436C181.509 34.9285 181.659 35.5983 181.659 36.353C181.659 37.1077 181.514 37.7775 181.223 38.3624C180.933 38.9474 180.535 39.4096 180.029 39.7492C179.533 40.0794 178.966 40.2445 178.329 40.2445ZM177.851 38.5323C178.226 38.5323 178.549 38.4426 178.821 38.2634C179.102 38.0747 179.322 37.82 179.481 37.4992C179.64 37.1691 179.72 36.787 179.72 36.353C179.72 35.9285 179.64 35.5511 179.481 35.221C179.331 34.8908 179.116 34.636 178.835 34.4568C178.554 34.2776 178.226 34.1879 177.851 34.1879C177.477 34.1879 177.149 34.2776 176.868 34.4568C176.587 34.636 176.367 34.8908 176.207 35.221C176.048 35.5511 175.969 35.9285 175.969 36.353C175.969 36.787 176.048 37.1691 176.207 37.4992C176.367 37.82 176.587 38.0747 176.868 38.2634C177.149 38.4426 177.477 38.5323 177.851 38.5323Z" fill="white"/>
</svg>
