<svg width="190" height="48" viewBox="0 0 190 48" fill="none" xmlns="http://www.w3.org/2000/svg">
    <path d="M37.2904 48L40.0928 41.6534L40.1193 43.7776L33.1926 28.4422H36.3651L40.7009 38.4413C40.789 38.614 40.8948 38.8816 41.0181 39.2443C41.1415 39.5897 41.2473 39.9351 41.3354 40.2805L40.648 40.4359C40.789 40.0732 40.9212 39.7106 41.0446 39.3479C41.1856 38.9853 41.3178 38.6226 41.4411 38.2599L45.0631 28.4422H48.2884L42.5779 42.042L40.225 48H37.2904Z" fill="#111111"/>
    <path d="M49.8902 42.042V22.8727H52.6133V42.042H49.8902Z" fill="#111111"/>
    <path d="M55.0273 42.042V28.4422H57.7504V42.042H55.0273ZM56.3492 26.2247C55.7676 26.2247 55.3181 26.0779 55.0009 25.7843C54.6836 25.4908 54.525 25.0763 54.525 24.5409C54.525 24.0401 54.6836 23.6343 55.0009 23.3234C55.3357 23.0126 55.7852 22.8571 56.3492 22.8571C56.9308 22.8571 57.3802 23.0039 57.6975 23.2975C58.0147 23.5911 58.1734 24.0056 58.1734 24.5409C58.1734 25.0418 58.0059 25.4476 57.6711 25.7584C57.3538 26.0693 56.9132 26.2247 56.3492 26.2247Z" fill="#111111"/>
    <path d="M66.5008 42.301C65.2318 42.301 64.095 41.9988 63.0904 41.3944C62.1034 40.7727 61.3191 39.9351 60.7375 38.8816C60.1558 37.8109 59.865 36.5934 59.865 35.2291C59.865 33.8648 60.147 32.6559 60.711 31.6025C61.2927 30.5318 62.077 29.6942 63.064 29.0898C64.051 28.4681 65.1702 28.1572 66.4215 28.1572C67.1089 28.1572 67.7698 28.2695 68.4043 28.494C69.0565 28.7012 69.6381 28.9948 70.1492 29.3747C70.6603 29.7374 71.4253 30.1432 71.7073 30.5922C72.0069 31.024 72.1567 31.4643 72.1567 31.9133L70.9952 31.9652L71.3301 22.8727H74.0866V42.042H71.3301L70.9952 38.8039H71.8923C71.8923 39.2184 71.7513 39.6329 71.4693 40.0473C71.1873 40.4445 70.44 40.8158 69.9642 41.1612C69.5059 41.5066 68.9683 41.7829 68.3515 41.9902C67.7522 42.1974 67.1353 42.301 66.5008 42.301ZM66.871 39.9955C67.6993 39.9955 68.2966 39.8173 69.0653 39.3738C69.8744 38.907 70.2866 38.492 70.7467 37.69C71.2404 36.8296 71.3354 36.1444 71.3354 35.2291C71.3354 34.3138 71.2309 33.6484 70.7467 32.7941C70.2873 31.9835 69.8795 31.557 69.0653 31.0844C68.2978 30.6389 67.6993 30.4627 66.871 30.4627C66.0426 30.4627 65.3112 30.6699 64.6767 31.0844C64.0422 31.4989 63.5398 32.0688 63.1697 32.7941C62.8172 33.5022 62.641 34.3138 62.641 35.2291C62.641 36.1444 62.8172 36.9647 63.1697 37.69C63.5398 38.3981 64.0422 38.9594 64.6767 39.3738C65.3112 39.7883 66.0426 39.9955 66.871 39.9955Z" fill="#111111"/>
    <path d="M83.2214 42.301C81.7938 42.301 80.5248 42.0074 79.4144 41.4203C78.3216 40.8158 77.458 39.9955 76.8235 38.9594C76.2066 37.9232 75.8982 36.7316 75.8982 35.3845C75.8982 34.3138 76.0744 33.3381 76.4269 32.4573C76.7794 31.5766 77.2641 30.8167 77.881 30.1777C78.5155 29.5215 79.2646 29.0207 80.1282 28.6753C81.0095 28.3126 81.9612 28.1313 82.9835 28.1313C83.8823 28.1313 84.7195 28.304 85.495 28.6494C86.2705 28.9775 86.9403 29.4352 87.5043 30.0223C88.0859 30.6095 88.5265 31.3089 88.8261 32.1206C89.1434 32.915 89.2932 33.7871 89.2756 34.7369L89.2491 35.8767H77.9075L77.2994 33.7526H86.8962L86.4996 34.1929V33.5712C86.4468 33.0013 86.2529 32.4919 85.918 32.0429C85.5831 31.5939 85.1601 31.2398 84.649 30.9808C84.1379 30.7217 83.5827 30.5922 82.9835 30.5922C82.0317 30.5922 81.2298 30.7736 80.5776 31.1362C79.9255 31.4816 79.432 31.9997 79.0971 32.6905C78.7623 33.364 78.5948 34.2016 78.5948 35.2032C78.5948 36.153 78.7975 36.982 79.2029 37.69C79.6083 38.3808 80.1811 38.9162 80.9213 39.2961C81.6616 39.676 82.5164 39.866 83.4858 39.866C84.1731 39.866 84.8076 39.7538 85.3893 39.5293C85.9885 39.3047 86.6318 38.8989 87.3192 38.3117L88.694 40.2028C88.271 40.6172 87.751 40.9799 87.1341 41.2908C86.5349 41.6016 85.8916 41.852 85.2042 42.042C84.5344 42.2147 83.8735 42.301 83.2214 42.301Z" fill="#111111"/>
    <path d="M0 11.9592C0 10.0466 1.55276 8.49618 3.46819 8.49618H3.70622C5.62165 8.49618 7.17441 10.0466 7.17441 11.9592C7.17441 13.8717 5.62165 15.4221 3.70622 15.4221H3.46818C1.55276 15.4221 0 13.8717 0 11.9592Z" fill="#111111"/>
    <path d="M8.77194 3.46297C8.77194 1.55042 10.3247 0 12.2401 0H12.4782C14.3936 0 15.9463 1.55042 15.9463 3.46297C15.9463 5.37552 14.3936 6.92594 12.4782 6.92594H12.2401C10.3247 6.92594 8.77194 5.37552 8.77194 3.46297Z" fill="#111111"/>
    <path d="M26.3739 3.46297C26.3739 1.55042 27.9267 0 29.8421 0H30.0802C31.9956 0 33.5483 1.55042 33.5483 3.46297C33.5483 5.37552 31.9956 6.92594 30.0802 6.92594H29.8421C27.9267 6.92594 26.3739 5.37552 26.3739 3.46297Z" fill="#111111"/>
    <path d="M35.1459 11.9592C35.1459 10.0466 36.6986 8.49618 38.6141 8.49618H38.8521C40.7675 8.49618 42.3203 10.0466 42.3203 11.9592C42.3203 13.8717 40.7675 15.4221 38.8521 15.4221H38.614C36.6986 15.4221 35.1459 13.8717 35.1459 11.9592Z" fill="#111111"/>
    <path d="M26.3739 20.5114C26.3739 18.5989 27.9267 17.0485 29.8421 17.0485H30.0802C31.9956 17.0485 33.5483 18.5989 33.5483 20.5114C33.5483 22.424 31.9956 23.9744 30.0802 23.9744H29.8421C27.9267 23.9744 26.3739 22.424 26.3739 20.5114Z" fill="#111111"/>
    <path d="M17.5729 11.9592C17.5729 10.0466 19.1257 8.49618 21.0411 8.49618H21.2792C23.1946 8.49618 24.7473 10.0466 24.7473 11.9592C24.7473 13.8717 23.1946 15.4221 21.2792 15.4221H21.0411C19.1257 15.4221 17.5729 13.8717 17.5729 11.9592Z" fill="#111111"/>
    <path d="M17.5729 28.8674C17.5729 26.9549 19.1257 25.4045 21.0411 25.4045H21.2792C23.1946 25.4045 24.7473 26.9549 24.7473 28.8674C24.7473 30.78 23.1946 32.3304 21.2792 32.3304H21.0411C19.1257 32.3304 17.5729 30.78 17.5729 28.8674Z" fill="#111111"/>
    <path d="M8.77194 20.5114C8.77194 18.5989 10.3247 17.0485 12.2401 17.0485H12.4782C14.3936 17.0485 15.9463 18.5989 15.9463 20.5114C15.9463 22.424 14.3936 23.9744 12.4782 23.9744H12.2401C10.3247 23.9744 8.77194 22.424 8.77194 20.5114Z" fill="#111111"/>
    <path d="M19.4202 8.93009L15.5235 5.1658V5.09547C15.1866 5.70278 14.6676 6.20182 14.037 6.52459H14.1162L18.0117 10.2877V10.2982C18.3376 9.72371 18.8273 9.24814 19.4202 8.93009Z" fill="#111111"/>
    <path d="M26.8238 5.1658V5.14333C27.1611 5.729 27.6692 6.21034 28.2833 6.52459H28.2311L24.3356 10.2877V10.3468C24.0122 9.75446 23.5161 9.26358 22.912 8.93658H22.9203L26.8238 5.1658Z" fill="#111111"/>
    <path d="M20.1794 15.2911V25.5355C20.4911 25.4501 20.8201 25.4045 21.1601 25.4045C21.5107 25.4045 21.8496 25.453 22.1699 25.5436V15.283C21.8496 15.3736 21.5107 15.4221 21.1601 15.4221C20.8201 15.4221 20.4911 15.3765 20.1794 15.2911Z" fill="#111111"/>
    <path d="M19.3375 25.8841L15.5116 22.19V22.1653C15.1789 22.7551 14.6737 23.2411 14.0615 23.5604H14.1162L17.9696 27.2828C18.2801 26.7014 18.7561 26.2158 19.3375 25.8841Z" fill="#111111"/>
    <path d="M9.18965 18.8036V18.8881C9.52414 18.2808 10.0405 17.781 10.6686 17.4564H10.6069L6.69967 13.6819C6.35517 14.2607 5.84239 14.7344 5.22579 15.0406H5.29219L9.18965 18.8036Z" fill="#111111"/>
    <path d="M20.1794 32.1994V42.2567H22.1699V32.1913C21.8496 32.2818 21.5107 32.3304 21.1601 32.3304C20.8201 32.3304 20.4911 32.2847 20.1794 32.1994Z" fill="#111111"/>
    <path d="M24.3591 27.2989L28.239 23.5527H28.244C27.6498 23.2393 27.1575 22.7684 26.8274 22.1981L22.9996 25.8938C23.5787 26.2284 24.0518 26.716 24.3591 27.2989Z" fill="#111111"/>
    <path d="M33.1536 18.8075V18.9307C32.8175 18.2993 32.2862 17.7805 31.6367 17.4487H31.7463L35.6305 13.6985C35.9749 14.2698 36.4837 14.7373 37.0944 15.0406H37.0551L33.1536 18.8075Z" fill="#111111"/>
    <path d="M98.4337 34.8571C98.4337 28.8609 103.26 24 109.213 24H179.22C185.174 24 190 28.8609 190 34.8571V34.8571C190 40.8534 185.174 45.7143 179.22 45.7143H109.213C103.26 45.7143 98.4337 40.8534 98.4337 34.8571V34.8571Z" fill="url(#paint0_linear_1070_2429)"/>
    <path d="M98.4337 34.8571C98.4337 28.8609 103.26 24 109.213 24H179.22C185.174 24 190 28.8609 190 34.8571V34.8571C190 40.8534 185.174 45.7143 179.22 45.7143H109.213C103.26 45.7143 98.4337 40.8534 98.4337 34.8571V34.8571Z" fill="#00AA88"/>
    <path d="M98.4337 34.8571C98.4337 28.8609 103.26 24 109.213 24H179.22C185.174 24 190 28.8609 190 34.8571V34.8571C190 40.8534 185.174 45.7143 179.22 45.7143H109.213C103.26 45.7143 98.4337 40.8534 98.4337 34.8571V34.8571Z" fill="#BB44CC"/>
    <path d="M110.654 40.2446C110.045 40.2446 109.488 40.1691 108.982 40.0182C108.485 39.8672 108.04 39.6455 107.647 39.3531C107.263 39.0606 106.916 38.7068 106.607 38.2918L107.928 36.7776C108.387 37.4191 108.841 37.8578 109.291 38.0936C109.75 38.3201 110.246 38.4333 110.78 38.4333C111.07 38.4333 111.328 38.3955 111.553 38.3201C111.787 38.2352 111.97 38.1172 112.101 37.9663C112.232 37.8153 112.297 37.6361 112.297 37.4286C112.297 37.2776 112.265 37.1408 112.199 37.0182C112.134 36.8861 112.04 36.7729 111.918 36.6786C111.796 36.5748 111.651 36.4852 111.483 36.4097C111.314 36.3248 111.127 36.254 110.921 36.1974C110.715 36.1314 110.49 36.0795 110.246 36.0418C109.722 35.9191 109.263 35.7729 108.869 35.6031C108.476 35.4238 108.148 35.2069 107.886 34.9521C107.624 34.688 107.427 34.3908 107.296 34.0606C107.174 33.7305 107.113 33.3578 107.113 32.9427C107.113 32.5182 107.207 32.1267 107.394 31.7682C107.581 31.4003 107.839 31.0842 108.167 30.8201C108.504 30.5559 108.888 30.3531 109.319 30.2116C109.759 30.0701 110.223 29.9993 110.71 29.9993C111.309 29.9993 111.834 30.0701 112.283 30.2116C112.733 30.3437 113.122 30.5371 113.45 30.7918C113.787 31.0465 114.068 31.3578 114.293 31.7257L112.958 33.0276C112.761 32.7635 112.546 32.5418 112.312 32.3625C112.087 32.1833 111.839 32.0512 111.567 31.9663C111.305 31.872 111.033 31.8248 110.752 31.8248C110.443 31.8248 110.176 31.8673 109.951 31.9522C109.726 32.0276 109.548 32.1408 109.417 32.2918C109.296 32.4427 109.235 32.6267 109.235 32.8437C109.235 33.0135 109.277 33.1644 109.361 33.2965C109.445 33.4286 109.567 33.5465 109.726 33.6503C109.886 33.7446 110.078 33.8295 110.302 33.905C110.527 33.9805 110.775 34.0465 111.047 34.1031C111.562 34.2069 112.026 34.3437 112.438 34.5135C112.85 34.6833 113.201 34.8908 113.492 35.1361C113.791 35.372 114.021 35.655 114.18 35.9852C114.339 36.3059 114.419 36.6691 114.419 37.0748C114.419 37.7446 114.26 38.3153 113.941 38.787C113.623 39.2587 113.183 39.6219 112.621 39.8767C112.059 40.1219 111.403 40.2446 110.654 40.2446Z" fill="white"/>
    <path d="M119.503 40.2446C118.744 40.2446 118.065 40.0795 117.466 39.7493C116.876 39.4097 116.407 38.9474 116.061 38.3625C115.724 37.7776 115.555 37.1078 115.555 36.3531C115.555 35.5984 115.724 34.9333 116.061 34.3578C116.407 33.7729 116.876 33.3106 117.466 32.971C118.065 32.6314 118.744 32.4616 119.503 32.4616C120.252 32.4616 120.922 32.6314 121.512 32.971C122.112 33.3106 122.58 33.7729 122.917 34.3578C123.254 34.9333 123.423 35.5984 123.423 36.3531C123.423 37.1078 123.254 37.7776 122.917 38.3625C122.58 38.9474 122.112 39.4097 121.512 39.7493C120.922 40.0795 120.252 40.2446 119.503 40.2446ZM119.503 38.4899C119.868 38.4899 120.196 38.4002 120.487 38.221C120.777 38.0323 121.002 37.7776 121.161 37.4569C121.33 37.1267 121.414 36.7587 121.414 36.3531C121.414 35.938 121.33 35.5701 121.161 35.2493C121.002 34.9191 120.777 34.6644 120.487 34.4852C120.196 34.2965 119.868 34.2022 119.503 34.2022C119.128 34.2022 118.796 34.2965 118.506 34.4852C118.215 34.6738 117.986 34.9286 117.817 35.2493C117.649 35.5701 117.569 35.938 117.578 36.3531C117.569 36.7587 117.649 37.1267 117.817 37.4569C117.986 37.7776 118.215 38.0323 118.506 38.221C118.796 38.4002 119.128 38.4899 119.503 38.4899Z" fill="white"/>
    <path d="M128.155 40.2446C127.444 40.2446 126.807 40.0748 126.245 39.7351C125.683 39.3955 125.238 38.9333 124.91 38.3484C124.592 37.7635 124.432 37.0984 124.432 36.3531C124.432 35.6172 124.592 34.9569 124.91 34.372C125.238 33.7776 125.683 33.3106 126.245 32.971C126.807 32.6314 127.444 32.4616 128.155 32.4616C128.821 32.4616 129.429 32.5842 129.982 32.8295C130.535 33.0748 130.965 33.4144 131.275 33.8484L130.179 35.1786C130.048 34.9993 129.884 34.8389 129.687 34.6974C129.49 34.5465 129.275 34.4286 129.041 34.3437C128.816 34.2588 128.582 34.2163 128.338 34.2163C127.954 34.2163 127.612 34.3106 127.312 34.4993C127.022 34.6786 126.793 34.9286 126.624 35.2493C126.455 35.5701 126.371 35.938 126.371 36.3531C126.371 36.7587 126.455 37.1219 126.624 37.4427C126.802 37.754 127.041 38.0087 127.341 38.2068C127.64 38.3955 127.978 38.4899 128.352 38.4899C128.596 38.4899 128.825 38.4568 129.041 38.3908C129.256 38.3153 129.457 38.2069 129.645 38.0653C129.841 37.9238 130.019 37.754 130.179 37.5559L131.261 38.8861C130.942 39.2918 130.502 39.6219 129.94 39.8767C129.378 40.1219 128.783 40.2446 128.155 40.2446Z" fill="white"/>
    <path d="M132.708 40.1031V32.6173H134.703V40.1031H132.708ZM133.691 31.0748C133.307 31.0748 133.007 30.9805 132.792 30.7918C132.576 30.6031 132.469 30.3342 132.469 29.9852C132.469 29.6644 132.576 29.405 132.792 29.2069C133.017 28.9993 133.316 28.8956 133.691 28.8956C134.075 28.8956 134.375 28.9946 134.59 29.1927C134.806 29.3814 134.913 29.6456 134.913 29.9852C134.913 30.3154 134.801 30.5795 134.576 30.7776C134.361 30.9757 134.066 31.0748 133.691 31.0748Z" fill="white"/>
    <path d="M139.615 40.2446C138.997 40.2446 138.44 40.0748 137.943 39.7351C137.447 39.3955 137.054 38.9333 136.763 38.3484C136.473 37.7635 136.328 37.0936 136.328 36.3389C136.328 35.5842 136.473 34.9191 136.763 34.3437C137.063 33.7588 137.466 33.3012 137.972 32.971C138.477 32.6314 139.053 32.4616 139.7 32.4616C140.065 32.4616 140.397 32.5182 140.697 32.6314C141.006 32.7352 141.273 32.8814 141.498 33.0701C141.732 33.2588 141.929 33.4757 142.088 33.721C142.247 33.9663 142.36 34.2305 142.425 34.5135L142.004 34.4427V32.6173H143.985V40.1031H141.976V38.3059L142.425 38.2635C142.35 38.5276 142.229 38.7776 142.06 39.0135C141.891 39.2493 141.681 39.4616 141.428 39.6502C141.184 39.8295 140.908 39.9757 140.599 40.0889C140.29 40.1927 139.962 40.2446 139.615 40.2446ZM140.163 38.504C140.538 38.504 140.866 38.4144 141.147 38.2352C141.428 38.0559 141.643 37.8059 141.793 37.4852C141.952 37.155 142.032 36.7729 142.032 36.3389C142.032 35.9144 141.952 35.5418 141.793 35.221C141.643 34.9003 141.428 34.6503 141.147 34.471C140.866 34.2823 140.538 34.188 140.163 34.188C139.798 34.188 139.475 34.2823 139.194 34.471C138.922 34.6503 138.707 34.9003 138.548 35.221C138.388 35.5418 138.309 35.9144 138.309 36.3389C138.309 36.7729 138.388 37.155 138.548 37.4852C138.707 37.8059 138.922 38.0559 139.194 38.2352C139.475 38.4144 139.798 38.504 140.163 38.504Z" fill="white"/>
    <path d="M145.999 40.1031V29.6314H147.994V40.1031H145.999Z" fill="white"/>
    <path d="M160.804 40.1031V30.1975H162.912V40.1031H160.804ZM154.608 40.1031V30.1975H156.716V40.1031H154.608ZM155.451 36.1267L155.465 34.2022H161.886V36.1267H155.451Z" fill="white"/>
    <path d="M167.751 40.2446C167.208 40.2446 166.739 40.1267 166.346 39.8908C165.962 39.6455 165.662 39.3012 165.447 38.8578C165.241 38.405 165.138 37.8625 165.138 37.2304V32.6173H167.133V36.905C167.133 37.2446 167.189 37.5418 167.301 37.7965C167.414 38.0418 167.573 38.2304 167.779 38.3625C167.985 38.4946 168.238 38.5606 168.538 38.5606C168.753 38.5606 168.955 38.5276 169.142 38.4616C169.329 38.3861 169.488 38.2823 169.62 38.1502C169.751 38.0182 169.854 37.8625 169.929 37.6833C170.004 37.504 170.041 37.3106 170.041 37.1031V32.6173H172.036V40.1031H170.139L170.069 38.5606L170.434 38.3908C170.322 38.7399 170.135 39.0559 169.872 39.3389C169.61 39.6219 169.296 39.8436 168.931 40.004C168.566 40.1644 168.172 40.2446 167.751 40.2446Z" fill="white"/>
    <path d="M178.329 40.2446C178.001 40.2446 177.683 40.1974 177.373 40.1031C177.064 40.0087 176.783 39.8814 176.53 39.721C176.278 39.5512 176.067 39.3625 175.898 39.155C175.73 38.938 175.622 38.7163 175.575 38.4899L176.025 38.3201L175.926 40.0748H174.044V29.6314H176.039V34.372L175.659 34.2163C175.716 33.9899 175.823 33.7729 175.982 33.5654C176.142 33.3484 176.343 33.1597 176.587 32.9993C176.83 32.8295 177.097 32.6974 177.387 32.6031C177.678 32.5088 177.978 32.4616 178.287 32.4616C178.933 32.4616 179.509 32.6314 180.015 32.971C180.521 33.3012 180.919 33.7588 181.209 34.3437C181.509 34.9286 181.659 35.5984 181.659 36.3531C181.659 37.1078 181.513 37.7776 181.223 38.3625C180.933 38.9474 180.535 39.4097 180.029 39.7493C179.532 40.0795 178.966 40.2446 178.329 40.2446ZM177.851 38.5323C178.226 38.5323 178.549 38.4427 178.821 38.2635C179.102 38.0748 179.322 37.8201 179.481 37.4993C179.64 37.1691 179.72 36.787 179.72 36.3531C179.72 35.9286 179.64 35.5512 179.481 35.221C179.331 34.8908 179.116 34.6361 178.835 34.4569C178.554 34.2776 178.226 34.188 177.851 34.188C177.476 34.188 177.149 34.2776 176.868 34.4569C176.587 34.6361 176.367 34.8908 176.207 35.221C176.048 35.5512 175.968 35.9286 175.968 36.3531C175.968 36.787 176.048 37.1691 176.207 37.4993C176.367 37.8201 176.587 38.0748 176.868 38.2635C177.149 38.4427 177.476 38.5323 177.851 38.5323Z" fill="white"/>
    <defs>
        <linearGradient id="paint0_linear_1070_2429" x1="98" y1="24" x2="187" y2="50" gradientUnits="userSpaceOnUse">
            <stop stop-color="#D3F9E5"/>
            <stop offset="1" stop-color="#F3C9F4"/>
        </linearGradient>
    </defs>
</svg>
