<svg width="48" height="48" viewBox="0 0 48 48" fill="none" xmlns="http://www.w3.org/2000/svg">
    <circle cx="24" cy="24" r="24" fill="#1ab394"/>
    <path fill-rule="evenodd" clip-rule="evenodd" d="M24.4221 34.989C24.4223 34.9889 24.4219 34.989 24.4221 34.989ZM30.036 36.6885C27.919 36.6885 25.9638 36.0546 24.4221 34.989C25.4769 34.9155 26.5226 34.7448 27.546 34.479C28.8098 34.8647 30.1458 34.9519 31.449 34.734C31.5005 34.7252 31.5527 34.7207 31.605 34.7205C32.07 34.7205 32.6805 34.989 33.57 35.559V34.623C33.5705 34.4609 33.6139 34.3018 33.6959 34.1619C33.7778 34.0219 33.8953 33.9062 34.0365 33.8265C34.4176 33.6111 34.7776 33.3605 35.112 33.078C36.408 31.98 37.14 30.516 37.14 28.965C37.14 28.4445 37.0575 27.939 36.9015 27.4545C37.2941 26.7244 37.6093 25.9552 37.842 25.1595C38.58 26.28 39 27.5775 39 28.965C39 31.0725 38.0175 33.0375 36.3225 34.4745C36.042 34.713 35.745 34.9335 35.43 35.1375V37.329C35.43 38.0835 34.5615 38.517 33.948 38.0685C33.1995 37.5225 32.598 37.1175 32.148 36.8535C31.9395 36.7335 31.77 36.645 31.5945 36.573C31.083 36.6495 30.5625 36.6885 30.036 36.6885ZM14.787 31.752C14.2389 31.4065 13.7156 31.023 13.221 30.6045C10.545 28.3365 9 25.245 9 21.93C9 15.1605 15.387 9.75 23.1855 9.75C30.984 9.75 37.3725 15.1605 37.3725 21.9315C37.3725 28.701 30.9855 34.1115 23.1855 34.1115C22.3095 34.1115 21.4425 34.044 20.5935 33.909C20.226 33.996 18.756 34.869 16.641 36.414C15.8745 36.975 14.787 36.435 14.787 35.49V31.752ZM18.999 22.3905C18.999 23.4045 18.1665 24.2295 17.139 24.2295C16.1115 24.2295 15.279 23.406 15.279 22.3905C15.279 21.375 16.1115 20.5515 17.139 20.5515C18.1665 20.5515 18.999 21.375 18.999 22.3905ZM25.0455 22.3905C25.0455 23.4045 24.213 24.2295 23.1855 24.2295C22.158 24.2295 21.3255 23.406 21.3255 22.3905C21.3255 21.375 22.158 20.5515 23.1855 20.5515C24.213 20.5515 25.0455 21.375 25.0455 22.3905ZM31.092 22.3905C31.092 23.4045 30.2595 24.2295 29.232 24.2295C28.2045 24.2295 27.372 23.406 27.372 22.3905C27.372 21.375 28.2045 20.5515 29.232 20.5515C30.2595 20.5515 31.092 21.375 31.092 22.3905Z" fill="white"/>
</svg>
