<svg width="48" height="48" viewBox="0 0 48 48" fill="none" xmlns="http://www.w3.org/2000/svg">
    <g clip-path="url(#clip0_1021_10475)">
        <circle cx="24" cy="24" r="24" fill="#0F131C"/>
        <path fill-rule="evenodd" clip-rule="evenodd" d="M24.0325 55.9243C41.6876 55.9243 56 41.631 56 23.9998C56 6.36835 41.6876 -7.9248 24.0325 -7.9248C6.37723 -7.9248 -7.93524 6.36835 -7.93524 23.9998C-7.93524 41.631 6.37723 55.9243 24.0325 55.9243ZM24.0325 38.6317C32.1244 38.6317 38.6842 32.081 38.6842 23.9998C38.6842 15.9187 32.1244 9.36768 24.0325 9.36768C15.9405 9.36768 9.38061 15.9187 9.38061 23.9998C9.38061 32.081 15.9405 38.6317 24.0325 38.6317Z" fill="url(#paint0_radial_1021_10475)"/>
        <path fill-rule="evenodd" clip-rule="evenodd" d="M40.1516 23.9994C40.1516 25.5581 41.2837 26.9885 42.8421 27.076C45.24 27.2106 46.6378 27.3725 46.6378 27.5466C46.6378 27.6562 46.0815 27.7612 45.0688 27.8577C42.7247 28.0805 41.5526 28.192 40.8465 28.6044C40.1404 29.0171 39.1956 30.3757 37.3059 33.0933C34.4197 37.2441 29.6117 39.9617 24.1678 39.9617C18.7296 39.9617 13.9256 37.2494 11.0383 33.1055C9.13676 30.3761 8.18586 29.0112 7.47098 28.5985C6.75597 28.1855 5.59246 28.0854 3.26548 27.8853C2.05845 27.7816 1.38898 27.6671 1.38898 27.5466C1.38898 27.365 2.91139 27.1968 5.5039 27.0586C7.05634 26.9759 8.18398 25.5518 8.18398 23.9994C8.18398 15.1837 15.3402 8.03711 24.1678 8.03711C32.9955 8.03711 40.1516 15.1837 40.1516 23.9994ZM24.1678 10.8131C13.8749 10.8131 11.427 18.0793 11.427 23.0107C11.427 25.4762 12.8966 26.6982 15.8885 26.6982H32.4471C35.4389 26.6982 36.9086 25.4762 36.9086 23.0107C36.9086 18.0793 34.4606 10.8131 24.1678 10.8131ZM23.9362 37.0315C18.8501 37.0315 13.4348 34.6589 13.4348 31.2301C13.4348 29.1363 14.646 28.3948 17.1122 28.3948H30.7603C33.2265 28.3948 34.4378 29.1363 34.4378 31.2301C34.4378 34.8254 29.0224 37.0315 23.9362 37.0315Z" fill="white"/>
    </g>
    <defs>
        <radialGradient id="paint0_radial_1021_10475" cx="0" cy="0" r="1" gradientUnits="userSpaceOnUse" gradientTransform="translate(24.0325 23.9998) rotate(90) scale(31.9246 31.9677)">
            <stop offset="0.473726" stop-color="white" stop-opacity="0.28"/>
            <stop offset="1" stop-color="white" stop-opacity="0"/>
        </radialGradient>
        <clipPath id="clip0_1021_10475">
            <rect width="48" height="48" fill="white"/>
        </clipPath>
    </defs>
</svg>
