<svg width="194" height="194" viewBox="0 0 194 194" fill="none" xmlns="http://www.w3.org/2000/svg">
    <g clip-path="url(#clip0_934_10950)">
        <circle cx="97" cy="97" r="97" fill="#8000FF"/>
        <path fill-rule="evenodd" clip-rule="evenodd"
              d="M130.86 52.3289C130.86 71.2897 115.663 86.6589 96.9164 86.6589C78.171 86.6589 62.9741 71.2897 62.9741 52.3289C62.9741 33.3692 78.171 18 96.9164 18C115.663 18 130.86 33.3692 130.86 52.3289ZM53.8713 74.2543C48.5548 70.8067 36.2047 61.6807 30.9702 52.7461C33.2886 48.6098 41.5212 38.1873 54.2809 29.5837C50.3273 36.2022 44.7109 54.4011 53.8713 74.2543ZM30.9702 141.26C36.2047 132.326 48.5548 123.2 53.8713 119.752C44.7109 139.605 50.3273 157.804 54.2809 164.423C41.5212 155.819 33.2886 145.396 30.9702 141.26ZM23.595 66.8091C39.5437 85.4222 58.7652 93.6947 68.5802 97.0028C46.0062 103.621 29.184 119.889 23.595 127.196C13.3715 100.725 19.5052 76.047 23.595 66.8091ZM163.043 52.7461C157.809 61.6807 145.459 70.8067 140.142 74.2543C149.303 54.4011 143.686 36.2022 139.734 29.5837C152.492 38.1873 160.726 48.6098 163.043 52.7461ZM163.043 141.26C157.809 132.326 145.459 123.2 140.142 119.752C149.303 139.605 143.686 157.804 139.734 164.423C152.492 155.819 160.726 145.396 163.043 141.26ZM170.405 66.8101C154.456 85.4232 135.235 93.6957 125.42 97.0038C147.994 103.622 164.816 119.89 170.405 127.197C180.629 100.726 174.494 76.048 170.405 66.8101ZM130.86 141.67C130.86 160.63 115.663 176 96.9164 176C78.171 176 62.9741 160.63 62.9741 141.67C62.9741 122.71 78.171 107.34 96.9164 107.34C115.663 107.34 130.86 122.71 130.86 141.67Z"
              fill="url(#paint0_linear_934_10950)"/>
    </g>
    <defs>
        <linearGradient id="paint0_linear_934_10950" x1="121.494" y1="188.153" x2="121.494" y2="-48.8464"
                        gradientUnits="userSpaceOnUse">
            <stop stop-color="white"/>
            <stop offset="0.384748" stop-color="#D2A5FF"/>
            <stop offset="1" stop-color="white"/>
        </linearGradient>
        <clipPath id="clip0_934_10950">
            <rect width="194" height="194" fill="white"/>
        </clipPath>
    </defs>
</svg>
