<svg width="194" height="194" viewBox="0 0 194 194" fill="none" xmlns="http://www.w3.org/2000/svg">
    <mask id="mask0_1012_10531" style="mask-type:alpha" maskUnits="userSpaceOnUse" x="0" y="0" width="194" height="194">
        <circle cx="97" cy="97" r="97" fill="#D9D9D9"/>
    </mask>
    <g mask="url(#mask0_1012_10531)">
        <path d="M64.694 64.8613L64.4023 64.8656C64.3678 64.8657 64.3336 64.8732 64.3023 64.8877C64.271 64.9023 64.2432 64.9235 64.2209 64.9499C62.2967 67.1506 60.5137 69.4593 58.8718 71.876C58.483 72.4463 58.1395 73.1398 57.7355 73.7642" stroke="#176D45" stroke-width="2"/>
        <path d="M57.7355 73.7656C50.4133 86.3 48.2213 99.754 51.1593 114.128C53.2246 124.234 58.0509 133.644 66.7139 139.637C70.3131 142.128 75.243 144.915 77.3169 148.832C78.9891 151.986 78.5678 155.846 76.6969 158.847C76.4305 159.273 76.164 159.705 75.8976 160.143C75.8601 160.207 75.8688 160.214 75.9235 160.165C77.4862 158.797 78.7896 157.22 79.8338 155.436" stroke="#789287" stroke-width="2"/>
        <path d="M79.8337 155.436C80.5488 155.768 80.5056 157.03 80.5726 157.708C80.5783 157.766 80.5711 157.822 80.551 157.877C80.525 157.952 80.5467 158.001 80.6158 158.026C80.6474 158.037 80.6744 158.058 80.6928 158.086C80.7111 158.115 80.7197 158.148 80.7173 158.181C80.6496 159.038 80.7526 159.873 81.0263 160.685C81.3049 161.508 80.9982 162.863 81.3525 163.749C81.5253 164.179 81.8025 164.552 82.1842 164.866C82.194 164.874 82.2067 164.878 82.2196 164.877C82.2326 164.877 82.2446 164.871 82.2533 164.861L82.2987 164.816C82.3033 164.811 82.309 164.807 82.3153 164.805C82.3217 164.803 82.3284 164.802 82.335 164.804C82.3416 164.805 82.3479 164.807 82.3532 164.811C82.3586 164.815 82.3628 164.821 82.3657 164.827C82.3743 164.842 82.3765 164.863 82.3722 164.887" stroke="#0F4C39" stroke-width="2"/>
        <path d="M82.3722 164.887C81.3122 166.072 80.1672 167.17 78.9372 168.179C78.9331 168.183 78.9304 168.188 78.9296 168.194C78.9288 168.199 78.93 168.205 78.9329 168.21C78.9739 168.276 78.9588 168.302 79.028 168.248C81.6874 166.144 83.5906 164.615 85.7121 162.34" stroke="#789287" stroke-width="2"/>
        <path d="M85.7121 162.34C85.7683 162.357 85.8014 162.39 85.8115 162.439C85.814 162.454 85.8133 162.469 85.8095 162.484C85.8057 162.499 85.7988 162.512 85.7894 162.524C85.78 162.536 85.7682 162.545 85.7549 162.552C85.7416 162.558 85.727 162.562 85.7121 162.562C85.6344 162.564 85.5847 162.607 85.5631 162.692C85.5449 162.759 85.5044 162.817 85.4486 162.856C85.0395 163.144 84.8048 163.533 84.7443 164.023C84.7359 164.089 84.7471 164.157 84.7767 164.217C84.9647 164.613 85.1764 165.073 85.6516 165.127C85.7139 165.135 85.7767 165.119 85.8266 165.081C86.204 164.806 86.6224 164.695 87.0818 164.746C87.1501 164.754 87.2188 164.737 87.2762 164.699C87.3914 164.62 87.5182 164.613 87.6565 164.68" stroke="#0F4C39" stroke-width="2"/>
        <path d="M87.6564 164.679L82.9187 167.606C82.9124 167.61 82.9075 167.616 82.9048 167.622C82.902 167.628 82.9016 167.635 82.9036 167.641L82.923 167.695C82.924 167.698 82.9256 167.701 82.9278 167.704C82.93 167.706 82.9327 167.708 82.9358 167.71C82.9389 167.711 82.9422 167.712 82.9456 167.712C82.949 167.712 82.9523 167.711 82.9554 167.71C89.0908 164.698 94.4896 161.773 99.9639 157.865" stroke="#789287" stroke-width="2"/>
        <path d="M99.9639 157.865C99.6096 158.384 99.1416 158.779 98.5597 159.051C98.433 159.11 98.3883 159.192 98.4258 159.295C98.4318 159.312 98.4412 159.327 98.4535 159.339C98.4658 159.352 98.4806 159.362 98.497 159.368C98.5134 159.374 98.5309 159.377 98.5484 159.376C98.5659 159.375 98.5831 159.371 98.5986 159.362L98.6742 159.321C98.6961 159.31 98.7206 159.304 98.7455 159.304C98.7703 159.304 98.7947 159.311 98.8162 159.323C98.8378 159.336 98.8559 159.353 98.8689 159.374C98.8818 159.396 98.8892 159.42 98.8902 159.444L98.9054 159.887C98.9065 159.922 98.9206 159.954 98.945 159.979C98.9695 160.003 99.0024 160.018 99.0372 160.019L99.251 160.032C99.2852 160.034 99.3175 160.049 99.3408 160.074C99.3642 160.1 99.377 160.133 99.3763 160.168L99.3742 160.227C99.3738 160.243 99.3769 160.259 99.3833 160.274C99.3897 160.289 99.3992 160.303 99.4113 160.314C99.4234 160.325 99.4377 160.333 99.4533 160.338C99.4689 160.343 99.4854 160.345 99.5016 160.343C99.9712 160.294 100.379 160.427 100.727 160.741C100.738 160.751 100.748 160.764 100.755 160.778C100.761 160.792 100.765 160.807 100.766 160.823C100.767 160.839 100.764 160.854 100.759 160.869C100.754 160.884 100.746 160.898 100.735 160.909L99.9423 161.78C99.8977 161.83 99.9078 161.859 99.9726 161.866C100.684 161.958 101.285 161.855 101.776 161.557C101.984 161.432 102.156 161.41 102.293 161.492" stroke="#0F4C39" stroke-width="2"/>
        <path d="M102.293 161.492C99.8055 163.156 97.244 164.695 94.6084 166.111" stroke="#789287" stroke-width="2"/>
        <path d="M94.6084 166.111C94.3319 166.25 94.1209 166.451 93.9755 166.714" stroke="#176D45" stroke-width="2"/>
        <path d="M93.9755 166.715C90.2251 168.618 86.407 170.377 82.5213 171.993C82.4536 172.022 82.455 172.027 82.5256 172.01C103.872 167.082 127.053 158.553 140.613 140.236C148.596 129.456 151.082 116.316 147.012 103.46C144.046 94.0862 138.736 85.9006 132.108 78.6871C125.443 71.4348 117.679 65.3037 111.278 57.8267C105.677 51.2837 102.176 43.7815 100.776 35.3202C100.478 33.5199 100.243 31.2875 100.07 28.623" stroke="#789287" stroke-width="2"/>
        <path d="M100.07 28.622L99.748 25.3923C99.745 25.3628 99.7316 25.3353 99.7102 25.3147C99.6889 25.2941 99.6609 25.2818 99.6313 25.2799L99.493 25.2734" stroke="#1F7A4B" stroke-width="2"/>
        <path d="M99.493 25.2737C99.7998 19.9246 99.6464 13.5688 99.3374 8.31485C99.3331 8.2414 99.3288 8.2414 99.3245 8.31485C99.1531 11.0499 98.847 14.2184 98.4063 17.8204C97.1814 27.8229 94.1072 36.4168 86.8852 43.6237C82.0179 48.4802 76.1979 52.1679 71.2528 56.938C68.8404 59.2669 66.6541 61.9083 64.694 64.8622" stroke="#789287" stroke-width="2"/>
        <path d="M99.493 25.2734C99.0667 28.681 98.3019 32.0094 97.1987 35.2586C95.4251 40.478 92.4135 45.0385 89.0887 49.3917C85.5501 54.0278 82.0481 58.4565 78.894 63.4966C72.4086 73.8663 69.2675 86.1566 71.9463 98.2373C72.8061 102.109 74.1362 105.893 75.9365 109.59" stroke="#7ECC99" stroke-width="2"/>
        <path d="M75.9365 109.59C77.9543 113.863 80.5208 117.916 83.0938 121.874C85.3751 125.383 87.3792 129.045 89.1061 132.859" stroke="#76BF94" stroke-width="2"/>
        <path d="M89.106 132.859C93.4893 143.218 93.7097 153.661 85.712 162.34" stroke="#6E9E87" stroke-width="2"/>
        <path d="M82.3721 164.886C90.7867 155.569 89.5467 144.402 83.0807 134.572C81.1191 131.589 78.8097 128.549 76.1525 125.451" stroke="#6E9E87" stroke-width="2"/>
        <path d="M76.1525 125.452C72.4208 121.029 69.1054 116.315 66.2062 111.311" stroke="#76BF94" stroke-width="2"/>
        <path d="M66.2063 111.31C61.6415 103.148 58.6904 94.133 58.7531 84.6836" stroke="#7ECC99" stroke-width="2"/>
        <path d="M58.7531 84.6826C59.0253 77.5433 61.0056 70.9363 64.694 64.8613" stroke="#76BF94" stroke-width="2"/>
        <path d="M105.525 114.279H105.451C105.392 114.278 105.384 114.299 105.425 114.342C105.715 114.647 104.723 115.951 104.624 116.077C103.57 117.401 101.887 118.825 101.597 120.631C101.146 123.435 99.5189 124.895 97.082 126.449C96.4188 126.87 96.4836 127.306 95.5568 127.62C95.0585 127.79 94.6559 128.1 94.3491 128.551C94.3088 128.61 94.2562 128.656 94.1914 128.689C93.6103 128.978 93.148 129.16 92.6814 129.65C91.8086 130.566 91.0244 131.4 89.7908 131.653C89.7591 131.66 89.7313 131.679 89.7135 131.706C89.6957 131.733 89.6893 131.766 89.6957 131.798C89.7735 132.207 89.708 132.578 89.4991 132.91C89.492 132.922 89.4822 132.931 89.4706 132.938C89.4591 132.945 89.4462 132.948 89.4329 132.949C89.4197 132.95 89.4066 132.947 89.3948 132.941C89.383 132.936 89.3729 132.927 89.3652 132.917C89.2961 132.827 89.2097 132.808 89.106 132.858" stroke="#0D7946" stroke-width="2"/>
        <path d="M66.2063 111.311L65.8325 111.425C65.805 111.433 65.7805 111.45 65.7625 111.472C65.7444 111.494 65.7334 111.52 65.731 111.548C65.6201 112.761 65.1744 113.75 64.3937 114.517C64.0502 114.854 63.8623 115.132 63.454 115.353C62.9499 115.625 62.4739 115.939 62.026 116.294C61.514 116.701 60.9804 116.91 60.4273 117.221C59.6626 117.647 59.6561 118.87 59.049 119.485C59.0002 119.534 58.936 119.565 58.8675 119.572C58.5694 119.596 58.4232 119.777 58.429 120.114" stroke="#1DA758" stroke-width="2"/>
        <path d="M58.753 84.6827L58.1956 84.6546C58.1644 84.6526 58.1333 84.6608 58.1069 84.6778C58.0805 84.6949 58.0601 84.7201 58.0487 84.7496C55.1279 92.3455 53.3801 99.6064 53.8317 107.678C53.8835 108.602 54.6936 110.845 54.0715 111.579" stroke="#1DA758" stroke-width="2"/>
        <path d="M54.0715 111.581C50.0273 99.7266 52.0148 85.034 57.77 73.8715C57.7988 73.8182 57.7873 73.7829 57.7354 73.7656" stroke="#76BF94" stroke-width="2"/>
        <path d="M100.07 28.623L99.9078 28.6771" stroke="#7ECC99" stroke-width="2"/>
        <path d="M99.9078 28.676C99.7983 28.3217 99.7904 27.9738 99.884 27.6325C99.8881 27.6168 99.8863 27.6001 99.8789 27.5856C99.8716 27.5711 99.8593 27.5598 99.8442 27.5537C99.8292 27.5476 99.8124 27.5472 99.7971 27.5526C99.7817 27.5579 99.7689 27.5687 99.7609 27.5828C99.4239 28.2158 99.6356 28.7235 99.6485 29.2549C99.6687 30.2185 99.8293 31.1604 100.13 32.0807" stroke="#15864B" stroke-width="2"/>
        <path d="M100.13 32.0801C100.716 38.0578 101.923 43.4976 104.462 48.9287" stroke="#7ECC99" stroke-width="2"/>
        <path d="M104.462 48.9297C104.516 49.6556 105.281 50.4484 104.933 51.2067C104.903 51.2695 104.897 51.3412 104.913 51.4098C105.08 52.0536 105.52 52.6239 105.734 53.0841C107.294 56.4686 108.347 58.6628 108.893 59.6667C110.91 63.381 113.565 67.2128 116.856 71.1619C116.893 71.2065 116.914 71.2631 116.914 71.3218L116.918 71.5637C116.92 71.6055 116.903 71.6149 116.867 71.5918C116.727 71.4953 116.605 71.5141 116.501 71.648C116.458 71.7042 116.405 71.7488 116.342 71.7819C115.771 72.0844 115.194 72.3732 114.611 72.6482C114.121 72.8816 113.738 73.251 113.254 73.5318C113.218 73.552 113.201 73.5412 113.203 73.4994L113.205 73.4389C113.205 73.4356 113.204 73.4324 113.202 73.4295C113.201 73.4266 113.198 73.4242 113.196 73.4225C113.193 73.4208 113.189 73.4198 113.186 73.4196C113.183 73.4195 113.18 73.4202 113.177 73.4216L111.096 74.4824C111.067 74.4972 111.041 74.5184 111.021 74.5442C111.001 74.5701 110.988 74.5999 110.982 74.6314C110.828 75.4308 110.552 76.822 109.703 76.8393C109.495 76.8437 109.384 76.9229 109.368 77.077" stroke="#1DA758" stroke-width="2"/>
        <path d="M109.368 77.0762C104.895 72.1707 102.181 66.4616 101.228 59.9489C101.061 58.8154 100.919 57.9678 100.802 57.4061C100.786 57.3327 100.78 57.3334 100.783 57.4083C100.899 60.2527 101.274 63.0612 101.906 65.8337" stroke="#7ECC99" stroke-width="2"/>
        <path d="M101.906 65.8335C101.585 65.7385 101.316 65.8105 101.098 66.0496C101.05 66.1024 101.023 66.1711 101.023 66.2418C100.891 73.5979 101.947 79.8046 105.704 86.1409C105.832 86.3548 105.89 86.6334 105.937 86.8732C105.952 86.9395 105.929 86.9568 105.87 86.9251C105.637 86.7998 105.454 86.8812 105.322 87.1692C104.775 88.3552 104.125 89.3728 103.064 90.2002C102.282 90.8094 101.459 91.361 100.595 91.855C100.344 91.9991 100.117 92.2021 99.9121 92.4642C99.5261 92.9582 99.0718 93.3932 98.549 93.7691" stroke="#1DA758" stroke-width="2"/>
        <path d="M98.549 93.7693C89.6202 85.7889 83.3595 76.5664 85.2736 63.9067C85.2837 63.8347 85.2772 63.8332 85.2542 63.9024C85.018 64.6182 84.8458 65.424 84.7378 66.3198C84.4714 68.5363 84.3612 70.6427 84.4073 72.6388" stroke="#7ECC99" stroke-width="2"/>
        <path d="M84.4073 72.6401L84.3554 71.9617C84.3535 71.9356 84.3437 71.9106 84.3272 71.8899C84.3106 71.8691 84.2881 71.8535 84.2625 71.8451L84.1977 71.8256C84.1892 71.8227 84.1801 71.8216 84.1712 71.8226C84.1622 71.8236 84.1536 71.8266 84.1459 71.8314C84.1382 71.8361 84.1317 71.8426 84.1269 71.8502C84.122 71.8578 84.1189 71.8664 84.1178 71.8753C83.9644 73.0376 83.7008 74.2992 83.5669 75.3384C82.3765 84.643 83.299 93.332 87.9179 101.602C87.9373 101.638 87.9451 101.678 87.94 101.718C87.935 101.758 87.9174 101.796 87.8898 101.824C87.1553 102.591 86.5007 103.391 85.5199 103.825C84.493 104.277 83.5237 104.833 82.612 105.493C82.1173 105.849 81.5751 105.935 81.0631 106.324C80.443 106.793 79.9051 106.975 79.2894 107.34C79.2275 107.377 79.1756 107.427 79.1338 107.489L78.7515 108.059C78.6723 108.177 78.6341 108.166 78.637 108.025L78.6391 107.919C78.6406 107.852 78.6125 107.835 78.5549 107.867L76.5393 108.982C76.4889 109.01 76.4348 109.028 76.3772 109.033C76.2015 109.054 76.0726 109.147 75.9905 109.314C75.9848 109.326 75.9828 109.339 75.9847 109.351C75.9867 109.363 75.9925 109.375 76.0013 109.383L76.0424 109.42C76.0508 109.428 76.0573 109.437 76.0614 109.448C76.0655 109.458 76.067 109.47 76.066 109.481C76.0649 109.492 76.0613 109.503 76.0553 109.513C76.0494 109.523 76.0412 109.531 76.0316 109.537L75.9365 109.591" stroke="#1DA758" stroke-width="2"/>
        <path d="M76.1526 125.451C75.7911 125.414 75.539 125.551 75.3964 125.862C75.3676 125.927 75.3252 125.981 75.269 126.026C74.7872 126.411 74.5561 126.977 74.1262 127.348C73.3081 128.052 72.5297 128.798 71.7908 129.586C71.7465 129.633 71.7217 129.697 71.7217 129.763L71.726 130.211C71.726 130.294 71.7037 130.301 71.659 130.23L71.5056 129.99C71.3803 129.793 71.3105 129.811 71.2961 130.044L71.2442 130.85C71.2401 130.91 71.214 130.966 71.1708 131.008L69.7709 132.401" stroke="#0D7946" stroke-width="2"/>
        <path d="M98.549 93.7695C103.825 98.5072 107.905 101.964 111.898 106.827" stroke="#76BF94" stroke-width="2"/>
        <path d="M111.898 106.826C116.134 112.141 118.843 118.347 118.941 125.204C119.046 132.638 117.132 139.471 112.762 145.54C109.29 150.357 104.926 154.393 99.964 157.865" stroke="#6E9E87" stroke-width="2"/>
        <path d="M87.6564 164.68C95.762 159.055 104.041 151.72 107.856 142.357C111.816 132.633 111.039 123.274 105.525 114.281" stroke="#6E9E87" stroke-width="2"/>
        <path d="M105.525 114.28C101.418 107.438 95.1053 101.523 90.7824 94.2703C86.8484 87.6704 84.7032 80.349 84.4072 72.6387" stroke="#76BF94" stroke-width="2"/>
        <path d="M54.0715 111.58C55.1143 114.635 56.5667 117.479 58.429 120.113" stroke="#7ECC99" stroke-width="2"/>
        <path d="M58.429 120.113C61.6414 124.777 65.5149 128.463 69.7708 132.401" stroke="#76BF94" stroke-width="2"/>
        <path d="M69.7709 132.402C75.9733 138.41 84.794 145.561 79.8338 155.436" stroke="#6E9E87" stroke-width="2"/>
        <path d="M93.9755 166.714C94.1944 166.66 94.4032 166.581 94.602 166.476C96.1646 165.652 97.7424 164.859 99.3353 164.095C99.3632 164.082 99.3869 164.061 99.4036 164.034C99.4204 164.008 99.4296 163.978 99.4304 163.946V163.868C99.4308 163.853 99.427 163.837 99.4194 163.823C99.4118 163.809 99.4006 163.797 99.3871 163.789C99.3735 163.78 99.358 163.776 99.3421 163.775C99.3262 163.775 99.3104 163.779 99.2964 163.786C97.8087 164.603 96.3173 165.412 94.8223 166.215C94.7085 166.277 94.6373 166.242 94.6084 166.111" stroke="#76BF94" stroke-width="2"/>
        <path d="M102.293 161.493C109.742 156.75 116.454 151.129 122.43 144.627C132.756 133.396 138.986 119.738 129.967 105.22C125.8 98.5123 119.485 93.159 114.121 87.4297" stroke="#6E9E87" stroke-width="2"/>
        <path d="M114.121 87.4289C108.37 81.1099 103.915 74.1686 101.906 65.834" stroke="#76BF94" stroke-width="2"/>
        <path d="M109.368 77.0762C110.87 78.7929 112.469 80.4139 114.164 81.9391C117.272 84.7375 120.372 87.5453 123.464 90.3624" stroke="#76BF94" stroke-width="2"/>
        <path d="M123.464 90.3633C130.689 97.324 136.463 105.006 138.371 115.099" stroke="#6E9E87" stroke-width="2"/>
        <path d="M138.371 115.099C139.308 120.821 138.806 126.398 136.865 131.831C136.84 131.898 136.85 131.903 136.893 131.846C143.07 123.643 145.817 113.716 143.88 103.523" stroke="#789287" stroke-width="2"/>
        <path d="M143.88 103.523C141.909 92.7255 135.528 84.6566 127.893 77.0586" stroke="#6E9E87" stroke-width="2"/>
        <path d="M127.893 77.0597C122.263 71.1468 116.091 65.7589 111.001 59.3404C108.485 56.1662 106.305 52.6959 104.462 48.9297" stroke="#76BF94" stroke-width="2"/>
        <path d="M99.9078 28.6758L100.13 32.0805" stroke="#6E9E87" stroke-width="2"/>
        <path d="M114.121 87.4297C113.925 88.1224 113.63 88.7698 113.237 89.3719C113.149 89.5072 113.028 89.6354 112.872 89.7564C112.172 90.2986 111.191 92.1673 110.206 92.0939C110.187 92.093 110.168 92.0976 110.152 92.1072C110.135 92.1167 110.122 92.1307 110.114 92.1475C110.105 92.1643 110.102 92.1831 110.104 92.2017C110.106 92.2202 110.114 92.2375 110.126 92.2516C112.751 95.3344 115.577 98.1364 118.368 101.04C118.409 101.083 118.437 101.137 118.447 101.195C118.458 101.253 118.451 101.314 118.428 101.368C118.405 101.423 118.366 101.469 118.317 101.502C118.267 101.535 118.209 101.552 118.15 101.552C117.262 101.552 116.733 102.407 116.255 103.012C115.799 103.591 114.857 103.974 114.227 104.371C113.862 104.6 113.607 104.98 113.239 105.24C112.76 105.581 111.671 106.117 111.898 106.828" stroke="#0D7946" stroke-width="2"/>
        <path d="M127.893 77.0586L127.582 77.0716C127.571 77.0716 127.56 77.0742 127.551 77.0793C127.541 77.0844 127.533 77.0918 127.526 77.1008C127.52 77.1099 127.516 77.1204 127.514 77.1314C127.513 77.1425 127.514 77.1538 127.517 77.1645C127.632 77.5245 127.587 77.8752 127.381 78.2165C127.364 78.2437 127.341 78.2662 127.314 78.282C127.286 78.2979 127.255 78.3065 127.223 78.3073L127.05 78.3094C127.022 78.3099 126.995 78.3202 126.973 78.3386C126.951 78.357 126.936 78.3825 126.93 78.411C126.826 78.9208 126.223 80.7809 125.633 80.8673C125.623 80.869 125.613 80.8729 125.604 80.8788C125.595 80.8847 125.588 80.8924 125.582 80.9014C125.577 80.9105 125.573 80.9206 125.572 80.9311C125.571 80.9416 125.572 80.9523 125.575 80.9624L125.728 81.4182C125.753 81.4916 125.79 81.5572 125.841 81.6148C126.662 82.5632 127.791 83.6779 128.321 84.8013C128.35 84.8618 128.33 84.8877 128.262 84.8791C127.972 84.8431 127.769 84.8957 127.655 85.0368C127.058 85.7742 126.387 86.4353 125.642 87.02C125.471 87.1554 125.3 87.4189 125.13 87.8107C124.853 88.4566 124.38 88.7872 123.978 89.3402C123.935 89.3993 123.883 89.4475 123.821 89.485L123.425 89.7183C123.411 89.727 123.398 89.7387 123.389 89.7526C123.379 89.7665 123.373 89.7823 123.37 89.7988C123.368 89.8154 123.369 89.8322 123.373 89.8482C123.378 89.8641 123.386 89.8788 123.397 89.8911C123.54 90.0495 123.562 90.2065 123.464 90.3621" stroke="#0D7946" stroke-width="2"/>
        <path d="M143.88 103.524C142.864 103.248 142.685 104.356 142.298 104.902C141.989 105.339 141.667 105.671 141.402 106.168C141.239 106.475 141.039 106.757 140.803 107.015C140.764 107.057 140.711 107.083 140.654 107.089L140.488 107.104C140.47 107.106 140.452 107.111 140.436 107.12C140.42 107.129 140.406 107.141 140.395 107.156C140.384 107.17 140.376 107.187 140.371 107.205C140.367 107.223 140.366 107.241 140.369 107.259C140.76 109.5 140.071 112.213 139.315 114.08C139.161 114.457 138.846 114.797 138.371 115.099" stroke="#0F4C39" stroke-width="2"/>
        <path d="M-11.2339 -19.7148H209.987V201.506H-11.2339V-19.7148ZM64.694 64.8631L64.4023 64.8674C64.3678 64.8674 64.3337 64.875 64.3023 64.8895C64.271 64.9041 64.2432 64.9253 64.2209 64.9517C62.2967 67.1524 60.5137 69.4611 58.8718 71.8778C58.483 72.4481 58.1395 73.1416 57.7355 73.7659C50.4133 86.3003 48.2213 99.7543 51.1594 114.128C53.2247 124.234 58.0509 133.645 66.7139 139.637C70.3131 142.128 75.243 144.915 77.317 148.832C78.9891 151.986 78.5678 155.847 76.6969 158.847C76.4305 159.274 76.1641 159.706 75.8976 160.143C75.8602 160.207 75.8688 160.214 75.9235 160.165C77.4862 158.797 78.7896 157.221 79.8338 155.436C80.5489 155.769 80.5056 157.03 80.5726 157.709C80.5784 157.766 80.5712 157.823 80.551 157.877C80.5251 157.952 80.5467 158.002 80.6158 158.026C80.6474 158.038 80.6745 158.059 80.6928 158.087C80.7112 158.115 80.7198 158.148 80.7174 158.182C80.6497 159.039 80.7526 159.873 81.0263 160.686C81.305 161.509 80.9982 162.863 81.3525 163.749C81.5253 164.18 81.8026 164.552 82.1842 164.866C82.1941 164.874 82.2068 164.879 82.2197 164.878C82.2326 164.877 82.2447 164.871 82.2534 164.862L82.2987 164.816C82.3033 164.811 82.3091 164.808 82.3154 164.806C82.3217 164.804 82.3285 164.803 82.3351 164.804C82.3417 164.805 82.3479 164.808 82.3533 164.812C82.3586 164.816 82.3629 164.821 82.3657 164.827C82.3744 164.843 82.3765 164.863 82.3722 164.888C81.3122 166.073 80.1672 167.17 78.9372 168.18C78.9331 168.184 78.9304 168.189 78.9296 168.194C78.9288 168.2 78.93 168.205 78.9329 168.21C78.974 168.277 78.9588 168.303 79.028 168.249C81.6874 166.145 83.5906 164.615 85.7121 162.341C85.7683 162.358 85.8014 162.391 85.8115 162.44C85.814 162.455 85.8133 162.47 85.8095 162.485C85.8057 162.499 85.7988 162.513 85.7894 162.525C85.78 162.536 85.7682 162.546 85.7549 162.552C85.7415 162.559 85.7269 162.563 85.7121 162.563C85.6343 162.565 85.5846 162.608 85.563 162.693C85.5449 162.76 85.5043 162.818 85.4485 162.857C85.0395 163.145 84.8048 163.534 84.7443 164.023C84.7358 164.09 84.7471 164.157 84.7767 164.218C84.9646 164.613 85.1763 165.073 85.6516 165.127C85.7138 165.136 85.7767 165.119 85.8266 165.082C86.2039 164.807 86.6223 164.695 87.0818 164.747C87.1501 164.754 87.2188 164.737 87.2762 164.7C87.3914 164.62 87.5182 164.614 87.6564 164.68L82.9188 167.608C82.9125 167.611 82.9076 167.617 82.9048 167.623C82.9021 167.629 82.9017 167.636 82.9036 167.642L82.9231 167.696C82.924 167.699 82.9257 167.702 82.9279 167.705C82.9301 167.707 82.9328 167.71 82.9359 167.711C82.9389 167.712 82.9423 167.713 82.9457 167.713C82.949 167.713 82.9524 167.713 82.9555 167.711C89.0909 164.7 94.4896 161.775 99.964 157.866C99.6097 158.385 99.1416 158.78 98.5597 159.052C98.433 159.112 98.3884 159.193 98.4258 159.297C98.4318 159.313 98.4413 159.328 98.4536 159.341C98.4658 159.353 98.4807 159.363 98.497 159.369C98.5134 159.376 98.5309 159.378 98.5484 159.377C98.566 159.376 98.5831 159.372 98.5986 159.364L98.6742 159.323C98.6961 159.311 98.7207 159.305 98.7455 159.305C98.7703 159.306 98.7947 159.312 98.8163 159.324C98.8378 159.337 98.8559 159.354 98.8689 159.376C98.8818 159.397 98.8892 159.421 98.8903 159.446L98.9054 159.889C98.9065 159.923 98.9206 159.955 98.9451 159.98C98.9695 160.004 99.0024 160.019 99.0372 160.02L99.2511 160.033C99.2853 160.035 99.3175 160.05 99.3409 160.075C99.3643 160.101 99.377 160.135 99.3764 160.169L99.3742 160.228C99.3738 160.244 99.3769 160.26 99.3833 160.275C99.3897 160.291 99.3993 160.304 99.4114 160.315C99.4234 160.326 99.4377 160.334 99.4533 160.34C99.4689 160.345 99.4854 160.346 99.5017 160.344C99.9712 160.295 100.379 160.428 100.727 160.742C100.738 160.752 100.748 160.765 100.755 160.779C100.761 160.793 100.765 160.809 100.766 160.824C100.767 160.84 100.764 160.856 100.759 160.87C100.754 160.885 100.746 160.899 100.735 160.91L99.9424 161.781C99.8977 161.831 99.9078 161.86 99.9726 161.867C100.684 161.96 101.285 161.857 101.777 161.559C101.984 161.433 102.156 161.412 102.293 161.494C99.8055 163.157 97.2441 164.697 94.6085 166.113C94.3319 166.251 94.1209 166.452 93.9755 166.715C90.2251 168.618 86.407 170.377 82.5213 171.993C82.4536 172.022 82.455 172.028 82.5256 172.01C103.872 167.083 127.053 158.553 140.613 140.236C148.596 129.456 151.082 116.316 147.012 103.46C144.046 94.0862 138.736 85.9007 132.108 78.6872C125.443 71.4349 117.679 65.3038 111.278 57.8268C105.677 51.2838 102.176 43.7816 100.776 35.3202C100.478 33.5199 100.243 31.2876 100.07 28.6231L99.7479 25.3934C99.7449 25.3639 99.7316 25.3364 99.7102 25.3158C99.6888 25.2953 99.6609 25.283 99.6313 25.2811L99.493 25.2746C99.7998 19.9255 99.6464 13.5698 99.3375 8.31578C99.3332 8.24233 99.3288 8.24233 99.3245 8.31578C99.1531 11.0508 98.8471 14.2193 98.4064 17.8213C97.1814 27.8238 94.1072 36.4177 86.8852 43.6246C82.0179 48.4811 76.1979 52.1689 71.2528 56.9389C68.8404 59.2678 66.6542 61.9092 64.694 64.8631Z" fill="#194038"/>
        <path d="M99.4931 25.2737C99.0667 28.6813 98.302 32.0096 97.1988 35.2588C95.4251 40.4782 92.4136 45.0388 89.0888 49.3919C85.5501 54.028 82.0482 58.4567 78.8941 63.4968C72.4087 73.8665 69.2675 86.1568 71.9464 98.2375C72.8062 102.109 74.1362 105.893 75.9365 109.59C77.9543 113.863 80.5208 117.916 83.0938 121.874C85.3751 125.384 87.3792 129.046 89.1061 132.859C93.4894 143.218 93.7098 153.661 85.7121 162.34C83.5907 164.614 81.6874 166.144 79.028 168.248C78.9589 168.302 78.974 168.276 78.9329 168.209C78.93 168.205 78.9288 168.199 78.9296 168.193C78.9304 168.188 78.9331 168.183 78.9373 168.179C80.1672 167.169 81.3122 166.072 82.3722 164.887C90.7868 155.569 89.5468 144.402 83.0808 134.573C81.1192 131.59 78.8098 128.549 76.1526 125.452C72.4209 121.029 69.1055 116.315 66.2063 111.31C61.6415 103.148 58.6904 94.1329 58.7531 84.6835C59.0253 77.5442 61.0056 70.9371 64.694 64.8622C66.6542 61.9083 68.8405 59.2669 71.2529 56.938C76.1979 52.1679 82.0179 48.4802 86.8852 43.6237C94.1073 36.4168 97.1815 27.8229 98.4064 17.8204C98.8471 14.2184 99.1532 11.0499 99.3246 8.31485C99.3289 8.2414 99.3332 8.2414 99.3375 8.31485C99.6464 13.5688 99.7998 19.9246 99.4931 25.2737Z" fill="#D7E4D5"/>
        <path d="M99.493 25.2754L99.6313 25.2819C99.6609 25.2838 99.6888 25.2961 99.7102 25.3167C99.7315 25.3372 99.7449 25.3647 99.7479 25.3942L100.07 28.6239L99.9078 28.678C99.7983 28.3237 99.7904 27.9758 99.884 27.6345C99.8881 27.6188 99.8863 27.6021 99.879 27.5876C99.8716 27.5731 99.8593 27.5618 99.8442 27.5557C99.8292 27.5496 99.8124 27.5492 99.7971 27.5546C99.7818 27.5599 99.7689 27.5707 99.7609 27.5848C99.4239 28.2178 99.6356 28.7255 99.6485 29.2569C99.6687 30.2204 99.8293 31.1624 100.13 32.0827C100.716 38.0604 101.923 43.5002 104.462 48.9313C104.516 49.6572 105.281 50.45 104.933 51.2083C104.903 51.2711 104.897 51.3428 104.913 51.4114C105.08 52.0552 105.52 52.6255 105.734 53.0857C107.294 56.4702 108.347 58.6644 108.893 59.6683C110.91 63.3826 113.565 67.2144 116.856 71.1635C116.893 71.2081 116.914 71.2647 116.914 71.3234L116.918 71.5653C116.92 71.6071 116.903 71.6165 116.867 71.5934C116.727 71.4969 116.605 71.5157 116.501 71.6496C116.458 71.7058 116.405 71.7504 116.342 71.7835C115.771 72.086 115.194 72.3748 114.611 72.6498C114.121 72.8832 113.738 73.2526 113.254 73.5334C113.218 73.5536 113.201 73.5428 113.203 73.501L113.205 73.4405C113.205 73.4372 113.204 73.434 113.202 73.4311C113.201 73.4283 113.198 73.4258 113.196 73.4241C113.193 73.4224 113.19 73.4214 113.186 73.4212C113.183 73.4211 113.18 73.4218 113.177 73.4233L111.096 74.484C111.067 74.4988 111.041 74.52 111.021 74.5458C111.001 74.5717 110.988 74.6015 110.982 74.6331C110.828 75.4324 110.552 76.8237 109.703 76.8409C109.495 76.8453 109.384 76.9245 109.368 77.0786C104.895 72.1731 102.181 66.464 101.228 59.9513C101.061 58.8178 100.919 57.9702 100.802 57.4085C100.786 57.3351 100.78 57.3358 100.783 57.4107C100.899 60.2552 101.274 63.0636 101.906 65.8361C101.585 65.741 101.316 65.813 101.098 66.0521C101.049 66.105 101.023 66.1736 101.023 66.2444C100.891 73.6004 101.947 79.8071 105.704 86.1434C105.831 86.3573 105.89 86.636 105.937 86.8758C105.952 86.942 105.929 86.9593 105.87 86.9276C105.637 86.8023 105.454 86.8837 105.322 87.1718C104.775 88.3578 104.125 89.3753 103.064 90.2027C102.282 90.812 101.459 91.3636 100.595 91.8576C100.344 92.0016 100.117 92.2047 99.9121 92.4668C99.5261 92.9608 99.0717 93.3957 98.5489 93.7716C89.6202 85.7913 83.3595 76.5687 85.2735 63.909C85.2836 63.837 85.2771 63.8356 85.2541 63.9047C85.0179 64.6205 84.8458 65.4263 84.7378 66.3222C84.4713 68.5387 84.3611 70.645 84.4072 72.6412L84.3554 71.9628C84.3535 71.9368 84.3437 71.9117 84.3271 71.891C84.3106 71.8702 84.2881 71.8546 84.2625 71.8462L84.1977 71.8268C84.1892 71.8238 84.1801 71.8228 84.1711 71.8238C84.1621 71.8247 84.1535 71.8277 84.1458 71.8325C84.1382 71.8373 84.1317 71.8437 84.1268 71.8513C84.122 71.8589 84.1189 71.8675 84.1177 71.8764C83.9644 73.0387 83.7008 74.3004 83.5669 75.3395C82.3765 84.6441 83.299 93.3331 87.9178 101.603C87.9373 101.639 87.945 101.68 87.94 101.72C87.9349 101.76 87.9173 101.797 87.8897 101.825C87.1552 102.592 86.5006 103.392 85.5198 103.826C84.4929 104.278 83.5236 104.834 82.612 105.494C82.1173 105.85 81.575 105.937 81.063 106.325C80.443 106.794 79.905 106.976 79.2893 107.341C79.2274 107.378 79.1756 107.428 79.1338 107.49L78.7514 108.06C78.6722 108.178 78.634 108.167 78.6369 108.026L78.6391 107.92C78.6405 107.854 78.6124 107.836 78.5548 107.868L76.5392 108.983C76.4888 109.012 76.4348 109.029 76.3772 109.035C76.2015 109.055 76.0726 109.148 75.9905 109.315C75.9848 109.327 75.9827 109.34 75.9847 109.352C75.9866 109.365 75.9924 109.376 76.0013 109.385L76.0423 109.421C76.0507 109.429 76.0572 109.438 76.0613 109.449C76.0654 109.46 76.067 109.471 76.0659 109.482C76.0649 109.494 76.0613 109.504 76.0553 109.514C76.0493 109.524 76.0412 109.532 76.0315 109.538L75.9365 109.592C74.1362 105.895 72.8061 102.111 71.9463 98.2393C69.2675 86.1586 72.4086 73.8683 78.894 63.4986C82.0481 58.4585 85.5501 54.0297 89.0887 49.3936C92.4135 45.0405 95.4251 40.48 97.1987 35.2606C98.3019 32.0114 99.0667 28.683 99.493 25.2754Z" fill="#25B45D"/>
        <path d="M99.9078 28.6779L100.13 32.0826C99.8293 31.1623 99.6687 30.2204 99.6485 29.2569C99.6356 28.7254 99.4239 28.2178 99.7609 27.5848C99.7689 27.5706 99.7817 27.5599 99.7971 27.5545C99.8124 27.5492 99.8292 27.5496 99.8442 27.5556C99.8593 27.5617 99.8716 27.5731 99.8789 27.5876C99.8863 27.6021 99.8881 27.6187 99.884 27.6345C99.7904 27.9758 99.7983 28.3236 99.9078 28.6779Z" fill="#055839"/>
        <path d="M100.07 28.623C100.243 31.2875 100.478 33.5199 100.776 35.3202C102.176 43.7815 105.677 51.2837 111.278 57.8267C117.679 65.3037 125.443 71.4348 132.108 78.6871C138.736 85.9006 144.046 94.0862 147.012 103.46C151.082 116.316 148.596 129.456 140.613 140.236C127.053 158.553 103.872 167.082 82.5256 172.01C82.455 172.027 82.4536 172.022 82.5213 171.993C86.407 170.377 90.2251 168.618 93.9755 166.715C94.1944 166.662 94.4032 166.583 94.602 166.478C96.1646 165.654 97.7424 164.86 99.3353 164.097C99.3632 164.083 99.3869 164.062 99.4036 164.036C99.4204 164.01 99.4297 163.979 99.4304 163.948V163.87C99.4308 163.854 99.427 163.838 99.4194 163.824C99.4118 163.81 99.4007 163.799 99.3871 163.79C99.3735 163.782 99.358 163.777 99.3421 163.777C99.3262 163.777 99.3104 163.78 99.2964 163.788C97.8087 164.605 96.3173 165.414 94.8223 166.216C94.7086 166.278 94.6373 166.244 94.6085 166.112C97.2441 164.697 99.8056 163.157 102.293 161.494C109.742 156.751 116.454 151.129 122.43 144.628C132.756 133.396 138.986 119.738 129.967 105.221C125.8 98.5127 119.485 93.1594 114.121 87.4301C108.37 81.1111 103.915 74.1698 101.906 65.8352C101.274 63.0627 100.899 60.2543 100.783 57.4098C100.78 57.3349 100.786 57.3342 100.802 57.4076C100.919 57.9693 101.061 58.8169 101.228 59.9504C102.181 66.4631 104.895 72.1722 109.368 77.0777C110.87 78.7944 112.469 80.4154 114.164 81.9406C117.272 84.739 120.372 87.5468 123.464 90.3639C130.689 97.3245 136.463 105.007 138.371 115.1C139.308 120.822 138.806 126.399 136.865 131.832C136.841 131.9 136.85 131.905 136.893 131.847C143.07 123.644 145.818 113.717 143.88 103.525C141.909 92.7273 135.528 84.6584 127.893 77.0604C122.263 71.1475 116.091 65.7596 111.001 59.3412C108.485 56.1669 106.305 52.6966 104.462 48.9304C101.923 43.4993 100.716 38.0595 100.13 32.0818L99.9078 28.6771L100.07 28.623Z" fill="#D7E4D5"/>
        <path d="M104.462 48.9297C106.305 52.6959 108.485 56.1662 111.001 59.3404C116.091 65.7589 122.263 71.1468 127.893 77.0597L127.582 77.0726C127.571 77.0727 127.56 77.0753 127.551 77.0804C127.541 77.0855 127.533 77.0929 127.526 77.1019C127.52 77.111 127.516 77.1215 127.514 77.1325C127.513 77.1436 127.514 77.1549 127.517 77.1655C127.632 77.5256 127.587 77.8763 127.381 78.2176C127.364 78.2447 127.341 78.2672 127.314 78.2831C127.286 78.2989 127.255 78.3076 127.223 78.3084L127.05 78.3105C127.022 78.311 126.995 78.3213 126.973 78.3397C126.951 78.3581 126.936 78.3836 126.929 78.4121C126.826 78.9219 126.223 80.782 125.633 80.8684C125.623 80.8701 125.613 80.874 125.604 80.8799C125.595 80.8858 125.588 80.8935 125.582 80.9025C125.577 80.9115 125.573 80.9217 125.572 80.9322C125.571 80.9427 125.572 80.9534 125.575 80.9635L125.728 81.4193C125.753 81.4927 125.79 81.5583 125.841 81.6159C126.662 82.5643 127.791 83.679 128.321 84.8024C128.35 84.8629 128.33 84.8888 128.262 84.8802C127.972 84.8442 127.769 84.8967 127.655 85.0379C127.058 85.7753 126.387 86.4364 125.642 87.0211C125.471 87.1565 125.3 87.42 125.13 87.8118C124.853 88.4577 124.38 88.7883 123.978 89.3413C123.935 89.4004 123.883 89.4486 123.821 89.4861L123.425 89.7194C123.411 89.728 123.398 89.7398 123.389 89.7537C123.379 89.7676 123.373 89.7834 123.37 89.7999C123.368 89.8165 123.369 89.8333 123.373 89.8493C123.378 89.8652 123.386 89.8799 123.397 89.8922C123.54 90.0506 123.562 90.2076 123.464 90.3632C120.372 87.5461 117.272 84.7383 114.164 81.9399C112.469 80.4147 110.87 78.7937 109.368 77.077C109.384 76.9229 109.495 76.8437 109.703 76.8393C110.552 76.822 110.828 75.4308 110.982 74.6314C110.988 74.5999 111.001 74.5701 111.021 74.5442C111.041 74.5184 111.067 74.4972 111.096 74.4824L113.177 73.4216C113.18 73.4202 113.183 73.4195 113.186 73.4196C113.189 73.4198 113.193 73.4208 113.196 73.4225C113.198 73.4242 113.201 73.4266 113.202 73.4295C113.204 73.4324 113.205 73.4356 113.205 73.4389L113.203 73.4994C113.201 73.5412 113.218 73.552 113.254 73.5318C113.738 73.251 114.121 72.8816 114.611 72.6482C115.194 72.3732 115.771 72.0844 116.342 71.7819C116.405 71.7488 116.458 71.7042 116.501 71.648C116.605 71.5141 116.727 71.4953 116.867 71.5918C116.903 71.6149 116.92 71.6055 116.918 71.5637L116.914 71.3218C116.914 71.2631 116.893 71.2065 116.856 71.1619C113.565 67.2128 110.91 63.381 108.893 59.6667C108.347 58.6628 107.294 56.4686 105.734 53.0841C105.52 52.6239 105.08 52.0536 104.913 51.4098C104.897 51.3412 104.903 51.2695 104.933 51.2067C105.281 50.4484 104.516 49.6556 104.462 48.9297Z" fill="#149952"/>
        <path d="M98.5489 93.7712C103.824 98.5089 107.905 101.965 111.898 106.828C116.134 112.143 118.843 118.35 118.94 125.207C119.046 132.64 117.132 139.474 112.762 145.542C109.29 150.36 104.926 154.395 99.9639 157.867C94.4896 161.775 89.0908 164.7 82.9554 167.712C82.9523 167.713 82.949 167.714 82.9456 167.714C82.9422 167.714 82.9389 167.713 82.9358 167.711C82.9327 167.71 82.93 167.708 82.9278 167.705C82.9256 167.703 82.924 167.7 82.923 167.696L82.9036 167.642C82.9016 167.636 82.902 167.63 82.9048 167.623C82.9075 167.617 82.9124 167.612 82.9187 167.608L87.6564 164.681C95.762 159.055 104.041 151.721 107.856 142.358C111.816 132.633 111.039 123.275 105.525 114.282C101.418 107.44 95.1053 101.525 90.7824 94.2724C86.8484 87.6725 84.7032 80.3511 84.4072 72.6408C84.3611 70.6446 84.4713 68.5383 84.7377 66.3217C84.8457 65.4259 85.0179 64.6201 85.2541 63.9043C85.2771 63.8352 85.2836 63.8366 85.2735 63.9086C83.3594 76.5683 89.6201 85.7909 98.5489 93.7712Z" fill="#D7E4D5"/>
        <path d="M64.6939 64.8633C61.0055 70.9382 59.0252 77.5453 58.753 84.6846L58.1956 84.6565C58.1644 84.6545 58.1333 84.6626 58.1069 84.6797C58.0805 84.6968 58.0601 84.722 58.0487 84.7515C55.1279 92.3473 53.3801 99.6083 53.8317 107.679C53.8835 108.604 54.6936 110.846 54.0715 111.581C50.0273 99.7271 52.0148 85.0345 57.77 73.872C57.7988 73.8187 57.7873 73.7834 57.7354 73.7661C58.1394 73.1418 58.4829 72.4483 58.8718 71.878C60.5136 69.4612 62.2967 67.1525 64.2208 64.9519C64.2431 64.9255 64.2709 64.9043 64.3022 64.8897C64.3336 64.8751 64.3677 64.8676 64.4023 64.8676L64.6939 64.8633Z" fill="#149952"/>
        <path d="M101.906 65.8355C103.915 74.1701 108.37 81.1114 114.121 87.4304C113.925 88.1232 113.63 88.7706 113.237 89.3726C113.149 89.508 113.028 89.6361 112.872 89.7571C112.172 90.2994 111.191 92.1681 110.206 92.0946C110.187 92.0937 110.168 92.0983 110.152 92.1079C110.135 92.1174 110.122 92.1314 110.114 92.1482C110.105 92.165 110.102 92.1839 110.104 92.2024C110.106 92.2209 110.114 92.2382 110.126 92.2523C112.751 95.3352 115.577 98.1371 118.368 101.041C118.409 101.083 118.437 101.137 118.447 101.196C118.458 101.254 118.451 101.314 118.428 101.369C118.405 101.423 118.366 101.47 118.317 101.503C118.267 101.535 118.209 101.553 118.15 101.553C117.262 101.553 116.733 102.408 116.255 103.013C115.799 103.592 114.857 103.974 114.227 104.372C113.862 104.601 113.607 104.981 113.239 105.24C112.76 105.582 111.671 106.117 111.898 106.828C107.905 101.965 103.825 98.5087 98.549 93.7711C99.0718 93.3951 99.5261 92.9602 99.9121 92.4662C100.117 92.2041 100.344 92.001 100.595 91.857C101.459 91.363 102.282 90.8114 103.064 90.2021C104.125 89.3747 104.775 88.3572 105.322 87.1712C105.454 86.8831 105.637 86.8017 105.87 86.927C105.929 86.9587 105.952 86.9414 105.937 86.8752C105.89 86.6354 105.832 86.3567 105.704 86.1428C101.947 79.8065 100.891 73.5998 101.023 66.2438C101.023 66.173 101.05 66.1044 101.098 66.0515C101.316 65.8124 101.585 65.7404 101.906 65.8355Z" fill="#149952"/>
        <path d="M84.4073 72.6401C84.7032 80.3504 86.8485 87.6718 90.7825 94.2717C95.1054 101.524 101.418 107.439 105.525 114.281H105.451C105.392 114.28 105.384 114.3 105.425 114.344C105.715 114.648 104.723 115.953 104.624 116.078C103.57 117.403 101.887 118.826 101.597 120.632C101.146 123.437 99.519 124.897 97.0821 126.45C96.4189 126.872 96.4837 127.308 95.5569 127.621C95.0586 127.791 94.656 128.101 94.3492 128.552C94.3089 128.611 94.2563 128.657 94.1915 128.691C93.6104 128.98 93.1481 129.161 92.6814 129.652C91.8087 130.568 91.0245 131.402 89.7909 131.655C89.7592 131.661 89.7314 131.68 89.7136 131.707C89.6958 131.734 89.6894 131.768 89.6958 131.799C89.7736 132.208 89.7081 132.579 89.4992 132.912C89.4921 132.923 89.4823 132.933 89.4707 132.939C89.4592 132.946 89.4463 132.95 89.433 132.951C89.4198 132.951 89.4067 132.949 89.3949 132.943C89.3831 132.937 89.373 132.929 89.3653 132.918C89.2962 132.829 89.2098 132.81 89.1061 132.86C87.3792 129.046 85.3751 125.384 83.0938 121.875C80.5208 117.917 77.9543 113.864 75.9365 109.591L76.0316 109.537C76.0412 109.531 76.0494 109.523 76.0553 109.513C76.0613 109.503 76.0649 109.492 76.066 109.481C76.067 109.47 76.0655 109.458 76.0614 109.448C76.0573 109.437 76.0508 109.428 76.0424 109.42L76.0013 109.383C75.9925 109.375 75.9867 109.363 75.9847 109.351C75.9828 109.339 75.9848 109.326 75.9905 109.314C76.0726 109.147 76.2015 109.054 76.3772 109.033C76.4348 109.028 76.4889 109.01 76.5393 108.982L78.5549 107.867C78.6125 107.835 78.6406 107.852 78.6391 107.919L78.637 108.025C78.6341 108.166 78.6723 108.177 78.7515 108.059L79.1338 107.489C79.1756 107.427 79.2275 107.377 79.2894 107.34C79.9051 106.975 80.443 106.793 81.0631 106.324C81.5751 105.935 82.1173 105.849 82.612 105.493C83.5237 104.833 84.493 104.277 85.5199 103.825C86.5007 103.391 87.1553 102.591 87.8898 101.824C87.9174 101.796 87.935 101.758 87.94 101.718C87.9451 101.678 87.9373 101.638 87.9179 101.602C83.299 93.332 82.3765 84.643 83.5669 75.3384C83.7008 74.2992 83.9644 73.0376 84.1178 71.8753C84.1189 71.8664 84.122 71.8578 84.1269 71.8502C84.1317 71.8426 84.1382 71.8361 84.1459 71.8314C84.1536 71.8266 84.1622 71.8236 84.1712 71.8226C84.1801 71.8216 84.1892 71.8227 84.1977 71.8256L84.2625 71.8451C84.2881 71.8535 84.3106 71.8691 84.3272 71.8899C84.3437 71.9106 84.3535 71.9356 84.3554 71.9617L84.4073 72.6401Z" fill="#149952"/>
        <path d="M57.7355 73.7656C57.7873 73.7829 57.7988 73.8182 57.77 73.8715C52.0148 85.034 50.0273 99.7266 54.0715 111.581C55.1142 114.635 56.5667 117.48 58.4289 120.114C61.6414 124.778 65.5149 128.464 69.7708 132.402C75.9732 138.41 84.7939 145.561 79.8338 155.436C78.7896 157.22 77.4862 158.797 75.9235 160.165C75.8688 160.214 75.8601 160.207 75.8976 160.143C76.164 159.705 76.4305 159.273 76.6969 158.847C78.5678 155.846 78.9891 151.986 77.3169 148.832C75.243 144.915 70.3131 142.128 66.7139 139.637C58.0509 133.644 53.2246 124.234 51.1593 114.128C48.2213 99.754 50.4133 86.3 57.7355 73.7656Z" fill="#D7E4D5"/>
        <path d="M127.893 77.0605C135.528 84.6585 141.909 92.7275 143.88 103.525C142.864 103.248 142.685 104.357 142.298 104.903C141.989 105.34 141.667 105.672 141.402 106.169C141.239 106.476 141.04 106.758 140.803 107.016C140.764 107.058 140.711 107.084 140.654 107.09L140.488 107.105C140.47 107.106 140.452 107.112 140.436 107.121C140.42 107.13 140.406 107.142 140.395 107.157C140.384 107.171 140.376 107.188 140.371 107.206C140.367 107.224 140.366 107.242 140.369 107.26C140.76 109.5 140.071 112.214 139.315 114.08C139.161 114.458 138.846 114.798 138.371 115.1C136.463 105.007 130.689 97.3247 123.464 90.364C123.562 90.2085 123.54 90.0515 123.397 89.8931C123.386 89.8807 123.378 89.8661 123.373 89.8501C123.369 89.8342 123.368 89.8173 123.37 89.8008C123.373 89.7843 123.379 89.7685 123.389 89.7546C123.398 89.7406 123.411 89.7289 123.425 89.7202L123.821 89.4869C123.883 89.4495 123.935 89.4012 123.978 89.3422C124.38 88.7891 124.853 88.4586 125.13 87.8126C125.3 87.4209 125.471 87.1573 125.642 87.022C126.387 86.4372 127.058 85.7761 127.655 85.0387C127.769 84.8976 127.972 84.845 128.262 84.881C128.33 84.8897 128.35 84.8638 128.321 84.8033C127.791 83.6799 126.662 82.5651 125.841 81.6167C125.79 81.5591 125.753 81.4936 125.728 81.4202L125.575 80.9643C125.572 80.9542 125.571 80.9436 125.572 80.933C125.573 80.9225 125.577 80.9124 125.582 80.9034C125.588 80.8943 125.595 80.8866 125.604 80.8807C125.613 80.8748 125.623 80.8709 125.633 80.8693C126.223 80.7828 126.826 78.9228 126.93 78.4129C126.936 78.3845 126.951 78.359 126.973 78.3406C126.995 78.3222 127.022 78.3119 127.05 78.3114L127.223 78.3092C127.255 78.3085 127.286 78.2998 127.314 78.284C127.341 78.2681 127.364 78.2456 127.381 78.2185C127.587 77.8772 127.632 77.5265 127.517 77.1664C127.514 77.1557 127.513 77.1444 127.514 77.1334C127.516 77.1223 127.52 77.1118 127.526 77.1028C127.533 77.0937 127.541 77.0864 127.551 77.0813C127.56 77.0762 127.571 77.0735 127.582 77.0735L127.893 77.0605Z" fill="#055839"/>
        <path d="M58.753 84.6846C58.6903 94.134 61.6413 103.149 66.2062 111.311L65.8324 111.426C65.8049 111.434 65.7804 111.45 65.7624 111.472C65.7443 111.494 65.7333 111.521 65.7309 111.549C65.62 112.761 65.1743 113.751 64.3936 114.517C64.0501 114.854 63.8622 115.133 63.4539 115.353C62.9498 115.625 62.4738 115.939 62.0259 116.295C61.5139 116.701 60.9803 116.911 60.4272 117.222C59.6625 117.647 59.656 118.87 59.0489 119.486C59.0001 119.535 58.9359 119.565 58.8675 119.572C58.5693 119.597 58.4231 119.777 58.4289 120.114C56.5667 117.48 55.1142 114.636 54.0715 111.581C54.6936 110.847 53.8835 108.604 53.8317 107.679C53.3801 99.6084 55.1279 92.3474 58.0487 84.7516C58.0601 84.722 58.0805 84.6969 58.1069 84.6798C58.1333 84.6627 58.1644 84.6546 58.1956 84.6565L58.753 84.6846Z" fill="#25B45D"/>
        <path d="M114.121 87.4297C119.485 93.159 125.8 98.5123 129.967 105.22C138.986 119.738 132.756 133.396 122.429 144.627C116.454 151.129 109.742 156.75 102.293 161.493C102.156 161.411 101.984 161.433 101.776 161.558C101.285 161.856 100.684 161.959 99.9726 161.867C99.9078 161.86 99.8977 161.831 99.9423 161.781L100.735 160.91C100.746 160.898 100.754 160.885 100.759 160.87C100.764 160.855 100.767 160.84 100.766 160.824C100.765 160.808 100.761 160.793 100.755 160.779C100.748 160.765 100.738 160.752 100.727 160.741C100.379 160.427 99.9712 160.295 99.5016 160.344C99.4854 160.346 99.4689 160.344 99.4533 160.339C99.4377 160.334 99.4234 160.326 99.4113 160.315C99.3992 160.304 99.3897 160.29 99.3833 160.275C99.3769 160.26 99.3738 160.244 99.3742 160.227L99.3763 160.169C99.377 160.134 99.3642 160.1 99.3408 160.075C99.3175 160.05 99.2852 160.034 99.251 160.033L99.0372 160.02C99.0024 160.018 98.9695 160.004 98.945 159.979C98.9206 159.955 98.9065 159.922 98.9054 159.888L98.8902 159.445C98.8892 159.42 98.8818 159.396 98.8689 159.375C98.8559 159.354 98.8378 159.336 98.8162 159.324C98.7947 159.312 98.7703 159.305 98.7455 159.305C98.7206 159.304 98.6961 159.31 98.6742 159.322L98.5986 159.363C98.5831 159.371 98.5659 159.376 98.5484 159.377C98.5309 159.378 98.5134 159.375 98.497 159.369C98.4806 159.362 98.4658 159.353 98.4535 159.34C98.4412 159.328 98.4318 159.313 98.4258 159.296C98.3883 159.192 98.433 159.111 98.5597 159.052C99.1416 158.78 99.6096 158.384 99.9639 157.866C104.926 154.394 109.29 150.359 112.762 145.541C117.132 139.473 119.046 132.639 118.941 125.206C118.843 118.349 116.134 112.142 111.898 106.828C111.671 106.117 112.76 105.581 113.239 105.24C113.607 104.98 113.862 104.6 114.227 104.371C114.857 103.974 115.799 103.591 116.255 103.012C116.733 102.407 117.262 101.552 118.15 101.552C118.209 101.552 118.267 101.535 118.317 101.502C118.366 101.469 118.405 101.423 118.428 101.368C118.451 101.314 118.458 101.253 118.447 101.195C118.437 101.137 118.409 101.083 118.368 101.04C115.577 98.1364 112.751 95.3344 110.126 92.2516C110.114 92.2375 110.106 92.2202 110.104 92.2017C110.102 92.1831 110.105 92.1643 110.114 92.1475C110.122 92.1307 110.135 92.1167 110.152 92.1072C110.168 92.0976 110.187 92.093 110.206 92.0939C111.191 92.1673 112.172 90.2986 112.872 89.7564C113.028 89.6354 113.149 89.5072 113.237 89.3719C113.63 88.7698 113.925 88.1224 114.121 87.4297Z" fill="#055839"/>
        <path d="M143.88 103.524C145.818 113.717 143.07 123.643 136.893 131.846C136.85 131.904 136.841 131.899 136.865 131.831C138.807 126.399 139.308 120.821 138.371 115.099C138.846 114.797 139.161 114.457 139.315 114.08C140.071 112.213 140.76 109.5 140.369 107.259C140.366 107.241 140.367 107.223 140.371 107.205C140.376 107.187 140.384 107.17 140.395 107.156C140.406 107.141 140.42 107.129 140.436 107.12C140.452 107.111 140.47 107.106 140.488 107.104L140.654 107.089C140.712 107.083 140.765 107.057 140.803 107.015C141.04 106.757 141.239 106.475 141.402 106.168C141.668 105.671 141.989 105.339 142.298 104.902C142.685 104.356 142.864 103.248 143.88 103.524Z" fill="#194038"/>
        <path d="M66.2063 111.311C69.1055 116.315 72.4209 121.029 76.1526 125.452C75.7911 125.415 75.539 125.552 75.3964 125.863C75.3676 125.928 75.3251 125.982 75.269 126.027C74.7872 126.411 74.5561 126.977 74.1261 127.349C73.3081 128.053 72.5296 128.799 71.7908 129.587C71.7464 129.634 71.7217 129.698 71.7217 129.764L71.726 130.212C71.726 130.295 71.7037 130.302 71.659 130.231L71.5056 129.991C71.3803 129.794 71.3105 129.812 71.2961 130.045L71.2442 130.851C71.2401 130.911 71.214 130.967 71.1708 131.009L69.7709 132.402C65.515 128.464 61.6414 124.778 58.429 120.114C58.4232 119.777 58.5694 119.596 58.8675 119.572C58.936 119.565 59.0002 119.534 59.049 119.485C59.6561 118.87 59.6626 117.647 60.4273 117.221C60.9804 116.91 61.514 116.701 62.026 116.294C62.4739 115.939 62.9499 115.625 63.454 115.353C63.8623 115.132 64.0502 114.854 64.3937 114.517C65.1744 113.75 65.6201 112.761 65.731 111.548C65.7334 111.52 65.7444 111.494 65.7625 111.472C65.7805 111.45 65.805 111.433 65.8325 111.425L66.2063 111.311Z" fill="#149952"/>
        <path d="M105.525 114.281C111.039 123.274 111.816 132.633 107.856 142.357C104.041 151.72 95.7621 159.055 87.6565 164.68C87.5182 164.614 87.3914 164.621 87.2762 164.7C87.2188 164.737 87.1501 164.754 87.0818 164.747C86.6224 164.695 86.204 164.807 85.8266 165.082C85.7767 165.12 85.7139 165.136 85.6516 165.127C85.1764 165.073 84.9647 164.613 84.7767 164.218C84.7471 164.157 84.7359 164.09 84.7443 164.024C84.8048 163.534 85.0395 163.145 85.4486 162.857C85.5044 162.818 85.5449 162.76 85.5631 162.693C85.5847 162.608 85.6344 162.565 85.7121 162.563C85.727 162.563 85.7416 162.559 85.7549 162.553C85.7682 162.546 85.78 162.536 85.7894 162.525C85.7988 162.513 85.8057 162.5 85.8095 162.485C85.8133 162.47 85.814 162.455 85.8115 162.44C85.8014 162.391 85.7683 162.358 85.7121 162.341C93.7098 153.662 93.4894 143.219 89.106 132.86C89.2097 132.81 89.2962 132.829 89.3653 132.919C89.3729 132.929 89.3831 132.938 89.3949 132.943C89.4067 132.949 89.4198 132.952 89.433 132.951C89.4463 132.95 89.4592 132.947 89.4707 132.94C89.4823 132.933 89.4921 132.924 89.4992 132.912C89.7081 132.58 89.7736 132.209 89.6958 131.8C89.6894 131.768 89.6958 131.735 89.7136 131.708C89.7314 131.681 89.7592 131.662 89.7909 131.655C91.0244 131.402 91.8087 130.568 92.6814 129.652C93.1481 129.162 93.6104 128.98 94.1915 128.691C94.2563 128.658 94.3089 128.612 94.3492 128.553C94.656 128.102 95.0586 127.791 95.5569 127.622C96.4837 127.308 96.4189 126.872 97.0821 126.451C99.519 124.897 101.146 123.437 101.597 120.633C101.887 118.827 103.57 117.403 104.624 116.079C104.723 115.953 105.715 114.649 105.425 114.344C105.384 114.301 105.392 114.28 105.451 114.281H105.525Z" fill="#055839"/>
        <path d="M76.1526 125.453C78.8098 128.551 81.1192 131.592 83.0808 134.574C89.5468 144.404 90.7868 155.571 82.3722 164.888C82.3766 164.864 82.3744 164.844 82.3658 164.828C82.3629 164.822 82.3586 164.817 82.3533 164.813C82.348 164.809 82.3417 164.806 82.3351 164.805C82.3285 164.804 82.3218 164.804 82.3154 164.806C82.3091 164.809 82.3034 164.812 82.2988 164.817L82.2534 164.863C82.2447 164.872 82.2326 164.878 82.2197 164.879C82.2068 164.88 82.1941 164.875 82.1843 164.867C81.8026 164.553 81.5254 164.181 81.3525 163.75C80.9982 162.864 81.305 161.51 81.0263 160.687C80.7527 159.874 80.6497 159.04 80.7174 158.183C80.7198 158.149 80.7112 158.116 80.6929 158.088C80.6745 158.06 80.6475 158.038 80.6159 158.027C80.5467 158.003 80.5251 157.953 80.5511 157.878C80.5712 157.823 80.5784 157.767 80.5727 157.71C80.5057 157.031 80.5489 155.77 79.8338 155.437C84.794 145.562 75.9733 138.411 69.7709 132.403L71.1708 131.01C71.214 130.968 71.2401 130.912 71.2442 130.852L71.2961 130.046C71.3105 129.813 71.3803 129.795 71.5056 129.992L71.659 130.232C71.7037 130.303 71.726 130.296 71.726 130.213L71.7217 129.765C71.7217 129.699 71.7465 129.635 71.7908 129.588C72.5297 128.8 73.3081 128.054 74.1262 127.35C74.5561 126.979 74.7872 126.412 75.269 126.028C75.3252 125.983 75.3676 125.929 75.3964 125.864C75.539 125.553 75.7911 125.416 76.1526 125.453Z" fill="#055839"/>
        <path d="M93.9755 166.716C94.1209 166.452 94.3319 166.251 94.6084 166.113C94.6373 166.244 94.7085 166.278 94.8223 166.217C96.3173 165.414 97.8087 164.605 99.2964 163.788C99.3104 163.781 99.3262 163.777 99.3421 163.777C99.358 163.778 99.3735 163.782 99.3871 163.791C99.4006 163.799 99.4118 163.811 99.4194 163.825C99.427 163.839 99.4308 163.854 99.4304 163.87V163.948C99.4296 163.98 99.4204 164.01 99.4036 164.036C99.3869 164.063 99.3632 164.084 99.3353 164.097C97.7424 164.861 96.1646 165.654 94.602 166.478C94.4032 166.583 94.1944 166.662 93.9755 166.716Z" fill="#149952"/>
    </g>
</svg>
