<svg width="194" height="194" viewBox="0 0 194 194" fill="none" xmlns="http://www.w3.org/2000/svg">
    <g clip-path="url(#clip0_934_11035)">
        <circle cx="97" cy="97" r="97" fill="black"/>
        <path d="M171.959 162.952C174.511 165.501 174.511 169.581 171.959 172.13C170.771 173.32 169.07 174 167.371 174C165.67 174 163.971 173.32 162.781 172.13L146.633 155.813C132.696 167.542 115.357 174 97.0009 174C76.4333 174 57.0559 166.012 42.6082 151.393C27.9897 136.775 20 117.568 20 96.9999C20 76.4321 27.9897 57.0544 42.6082 42.6066C57.2249 27.988 76.4333 20 97.0009 20C115.188 20 132.356 26.289 146.124 37.6768C148.334 39.2068 150.033 41.2474 151.394 43.457C153.263 46.5171 154.283 50.0858 154.283 53.6546C154.283 54.3361 154.283 55.1846 154.112 55.8642C154.112 56.3748 153.943 56.8836 153.943 57.3942C153.943 57.5651 153.943 57.565 153.943 57.734C153.943 57.9048 153.772 58.2446 153.772 58.4155C153.603 58.7553 153.603 59.264 153.432 59.6038C152.922 61.1338 152.242 62.4949 151.563 63.8541C151.394 64.1939 151.223 64.3647 151.052 64.7045C150.883 65.0443 150.543 65.3841 150.372 65.7239C147.314 69.8033 143.064 73.0323 139.154 76.4321C136.265 78.9833 131.166 86.2917 128.785 94.1107C127.255 98.8697 126.067 103.8 124.877 108.559C123.176 115.358 120.797 130.486 119.268 137.285C116.208 150.885 106.69 154.114 97.3407 154.453H97.0009C97.0009 154.453 97.0009 154.453 96.8301 154.453C87.4812 154.114 78.1323 151.054 75.0723 137.454C73.5441 130.657 71.1637 115.527 69.4648 108.728C68.2746 103.8 67.0844 99.0405 65.5544 94.2797C63.005 86.4607 58.0753 79.1523 55.1861 76.6029C52.4659 74.2225 49.5767 71.8439 46.8566 69.2926C53.3163 57.565 63.8554 48.385 76.4333 43.626C78.9827 47.8762 79.6623 52.975 78.9827 57.9048C78.1323 63.5143 76.7731 69.1237 76.6023 74.5623C76.2625 82.7211 77.4527 90.8817 80.1729 98.5299C82.7222 105.499 86.291 110.768 93.9409 111.959C94.4497 112.127 96.3195 112.128 97.0009 112.128C97.5097 112.128 99.7193 111.959 100.23 111.959C107.88 110.768 111.618 105.33 113.998 98.3591C116.718 90.7109 118.077 82.5521 117.567 74.3933C117.227 68.9528 116.039 63.3434 115.188 57.734C114.338 52.6352 115.017 47.7054 117.567 43.457C118.248 42.4358 118.928 41.5872 119.607 40.566C120.458 39.7174 121.137 38.867 122.157 38.1874C114.338 34.7876 105.839 33.0886 97.0009 33.0886C61.6458 33.0886 33.0885 61.6445 33.0885 96.9999C33.0885 132.356 61.6458 160.913 97.0009 160.913C132.356 160.913 160.912 132.356 160.912 96.9999C160.912 87.3111 158.873 78.3019 154.962 70.1431C155.642 69.2927 156.322 68.2733 157.003 67.2539C159.552 63.1745 160.743 58.5844 160.743 53.8254C169.41 66.4035 174 81.3619 174 96.9999C174 115.358 167.54 132.695 155.813 146.634L171.959 162.952Z"
              fill="white"/>
    </g>
    <defs>
        <clipPath id="clip0_934_11035">
            <rect width="194" height="194" fill="white"/>
        </clipPath>
    </defs>
</svg>
