<svg width="194" height="194" viewBox="0 0 194 194" fill="none" xmlns="http://www.w3.org/2000/svg">
    <g clip-path="url(#clip0_934_10920)">
        <circle cx="97" cy="97" r="97" fill="#129960"/>
        <path fill-rule="evenodd" clip-rule="evenodd"
              d="M152.721 65.2331C154.612 62.0643 155.589 58.4366 155.558 54.7298C155.511 45.0976 148.814 35.9409 138.661 34.2936C131.81 33.1527 124.865 35.6561 120.246 40.9469C115.905 45.9212 114.556 52.4004 115.595 58.8963C115.825 60.3213 116.073 61.7509 116.321 63.1797C117.093 67.6282 117.864 72.069 118.075 76.3377C118.246 79.8713 118.121 83.404 117.718 86.9051C110.821 86.0015 103.922 85.5743 96.9926 85.5743C90.0945 85.5743 83.2116 85.9857 76.3139 86.8893C75.8951 83.3724 75.7707 79.8396 75.9416 76.2902C76.1533 72.0294 76.9254 67.5769 77.6983 63.1196C77.9454 61.6945 78.1926 60.2688 78.4216 58.8488C79.4605 52.3529 78.1115 45.8737 73.7717 40.8994C69.1367 35.6245 62.1758 33.121 55.3245 34.2778C45.2328 35.9725 38.505 45.1292 38.4436 54.7456C38.4121 58.4524 39.3889 62.0801 41.2802 65.2489C43.8447 69.5609 47.7481 72.9264 51.5379 76.194C52.3981 76.9357 53.2525 77.6723 54.0841 78.4139C56.1155 80.251 59.1842 84.4175 61.7264 89.5026C50.6588 92.0377 39.4975 95.8878 28.1189 101.226C10.2769 109.622 7.40918 132.086 25.7011 139.341C35.777 143.097 45.7601 137.282 50.5809 127.507C63.277 101.796 87.2886 99.0715 96.9926 99.0715C100.93 99.0715 107.255 99.5154 114.2 101.781C111.627 108.783 107.938 114.168 100.233 115.388C99.7905 115.46 98.4835 115.513 97.6036 115.549C97.3114 115.561 97.0662 115.571 96.9155 115.579C96.3111 115.61 94.4036 115.483 93.815 115.388C88.0481 114.486 84.5143 111.222 82.0334 106.691C77.8171 107.991 73.3214 110.05 69.0123 113.202C69.9086 117.165 70.9461 123.076 71.9471 128.778C72.8507 133.927 73.7247 138.905 74.4383 142.13C77.5692 156.436 87.1493 159.667 96.7447 160H97.0864C101.876 159.842 106.713 158.938 110.743 156.308C114.757 153.662 117.982 149.275 119.547 142.13C120.237 138.983 121.083 134.169 121.964 129.158C123.082 122.79 124.257 116.105 125.237 112.125L125.271 111.988C126.499 106.948 127.731 101.894 129.252 96.9487C131.778 88.6948 136.941 81.0588 139.917 78.3972C140.773 77.631 141.653 76.8711 142.539 76.1063C146.305 72.8553 150.173 69.5163 152.721 65.2331ZM143.422 127.492C148.258 137.267 158.241 143.081 168.302 139.327C186.593 132.071 183.726 109.607 165.853 101.211C156.273 96.7114 146.848 93.2894 137.515 90.8027C136.275 93.1312 135.113 95.777 134.26 98.5494C133.021 102.637 131.935 106.898 130.912 111.08C135.593 115.089 139.934 120.427 143.422 127.492Z"
              fill="white"/>
    </g>
    <defs>
        <clipPath id="clip0_934_10920">
            <rect width="194" height="194" fill="white"/>
        </clipPath>
    </defs>
</svg>
