<svg width="48" height="48" viewBox="0 0 48 48" fill="none" xmlns="http://www.w3.org/2000/svg">
    <g clip-path="url(#clip0_1003_11037)">
        <circle cx="24" cy="24" r="24" fill="url(#paint0_linear_1003_11037)"/>
        <path d="M6.68042 17.23C6.68042 15.6166 7.94502 14.3086 9.50495 14.3086H9.69885C11.2588 14.3086 12.5232 15.6166 12.5232 17.23C12.5232 18.8434 11.2588 20.1513 9.69885 20.1513H9.50495C7.94502 20.1513 6.68042 18.8434 6.68042 17.23Z" fill="black"/>
        <path d="M13.9839 10.2399C13.9839 8.68409 15.2483 7.42285 16.8082 7.42285H17.0021C18.562 7.42285 19.8266 8.68409 19.8266 10.2399C19.8266 11.7957 18.562 13.0569 17.0021 13.0569H16.8082C15.2483 13.0569 13.9839 11.7957 13.9839 10.2399Z" fill="black"/>
        <path d="M28.1734 10.2399C28.1734 8.68409 29.4832 7.42285 31.0988 7.42285H31.2995C32.915 7.42285 34.2248 8.68409 34.2248 10.2399C34.2248 11.7957 32.915 13.0569 31.2995 13.0569H31.0988C29.4832 13.0569 28.1734 11.7957 28.1734 10.2399Z" fill="black"/>
        <path d="M35.2682 17.23C35.2682 15.6166 36.578 14.3086 38.1935 14.3086H38.3943C40.0098 14.3086 41.3196 15.6166 41.3196 17.23C41.3196 18.8434 40.0098 20.1513 38.3943 20.1513H38.1935C36.578 20.1513 35.2682 18.8434 35.2682 17.23Z" fill="black"/>
        <path d="M28.1734 24.1168C28.1734 22.5033 29.4832 21.1953 31.0988 21.1953H31.2995C32.915 21.1953 34.2248 22.5033 34.2248 24.1168C34.2248 25.7302 32.915 27.0381 31.2995 27.0381H31.0988C29.4832 27.0381 28.1734 25.7302 28.1734 24.1168Z" fill="black"/>
        <path d="M21.0787 17.23C21.0787 15.6166 22.3884 14.3086 24.004 14.3086H24.2048C25.8204 14.3086 27.1301 15.6166 27.1301 17.23C27.1301 18.8434 25.8204 20.1513 24.2048 20.1513H24.004C22.3884 20.1513 21.0787 18.8434 21.0787 17.23Z" fill="black"/>
        <path d="M21.0787 31.1071C21.0787 29.5512 22.3884 28.29 24.004 28.29H24.2048C25.8204 28.29 27.1301 29.5512 27.1301 31.1071C27.1301 32.6629 25.8204 33.9241 24.2048 33.9241H24.004C22.3884 33.9241 21.0787 32.6629 21.0787 31.1071Z" fill="black"/>
        <path d="M13.9839 24.1168C13.9839 22.5033 15.2483 21.1953 16.8082 21.1953H17.0021C18.562 21.1953 19.8266 22.5033 19.8266 24.1168C19.8266 25.7302 18.562 27.0381 17.0021 27.0381H16.8082C15.2483 27.0381 13.9839 25.7302 13.9839 24.1168Z" fill="black"/>
        <path d="M22.748 14.8264L19.425 11.6559V11.5967C19.1377 12.1082 18.6951 12.5285 18.1573 12.8004H18.2247L21.547 15.9699V15.9787C21.8249 15.4948 22.2425 15.0942 22.748 14.8264Z" fill="black"/>
        <path d="M28.6521 11.6156V11.5967C28.9271 12.09 29.3417 12.4953 29.8428 12.7599H29.8002L26.6221 15.9289V15.9787C26.3583 15.4799 25.9536 15.0665 25.4607 14.7911H25.4674L28.6521 11.6156Z" fill="black"/>
        <path d="M23.374 19.9502V28.4921C23.6028 28.421 23.8442 28.3828 24.0936 28.3828C24.3509 28.3828 24.5997 28.4235 24.8347 28.4988V19.9434C24.5997 20.0188 24.3509 20.0593 24.0936 20.0593C23.8442 20.0593 23.6028 20.0213 23.374 19.9502Z" fill="black"/>
        <path d="M22.5393 28.61L19.3617 25.5973V25.5771C19.0853 26.0581 18.6659 26.4546 18.1573 26.7148H18.2027L21.4031 29.7505C21.6611 29.2762 22.0564 28.8804 22.5393 28.61Z" fill="black"/>
        <path d="M14.2538 22.7971V22.8648C14.5231 22.3778 14.9389 21.9772 15.4446 21.7171H15.3948L12.2491 18.6914C11.9719 19.1555 11.5589 19.5352 11.0625 19.7806H11.116L14.2538 22.7971Z" fill="black"/>
        <path d="M23.374 33.7217V42.0616H24.8347V33.7148C24.5997 33.7898 24.3509 33.8302 24.0936 33.8302C23.8442 33.8302 23.6028 33.7925 23.374 33.7217Z" fill="black"/>
        <path d="M26.5966 29.7505L29.8386 26.6854H29.8428C29.3463 26.4291 28.9348 26.0438 28.6592 25.5771L25.4607 28.601C25.9444 28.8745 26.34 29.2735 26.5966 29.7505Z" fill="black"/>
        <path d="M33.8313 22.7665V22.8648C33.5485 22.3612 33.1018 21.9475 32.5555 21.6827H32.6477L35.9146 18.6914C36.2043 19.1471 36.6325 19.5202 37.1462 19.762H37.113L33.8313 22.7665Z" fill="black"/>
    </g>
    <defs>
        <linearGradient id="paint0_linear_1003_11037" x1="14" y1="1.5" x2="35" y2="45.5" gradientUnits="userSpaceOnUse">
            <stop stop-color="#F1F1D6"/>
            <stop offset="1" stop-color="#CDD5C7"/>
        </linearGradient>
        <clipPath id="clip0_1003_11037">
            <rect width="48" height="48" fill="white"/>
        </clipPath>
    </defs>
</svg>
