<svg width="194" height="194" viewBox="0 0 194 194" fill="none" xmlns="http://www.w3.org/2000/svg">
    <g clip-path="url(#clip0_934_10968)">
        <circle cx="97" cy="97" r="97" fill="#F5F5EF"/>
        <path d="M27 69.6385C27 63.1176 32.1111 57.8313 38.4158 57.8313H39.1995C45.5041 57.8313 50.6145 63.1176 50.6145 69.6385C50.6145 76.1594 45.5041 81.4458 39.1995 81.4458H38.4158C32.1111 81.4458 27 76.1594 27 69.6385Z"
              fill="black"/>
        <path d="M56.5181 41.3855C56.5181 35.0975 61.6284 30 67.933 30H68.7167C75.0214 30 80.1325 35.0975 80.1325 41.3855C80.1325 47.6736 75.0214 52.7711 68.7167 52.7711H67.933C61.6284 52.7711 56.5181 47.6736 56.5181 41.3855Z"
              fill="black"/>
        <path d="M113.867 41.3855C113.867 35.0975 119.161 30 125.691 30H126.502C133.031 30 138.325 35.0975 138.325 41.3855C138.325 47.6736 133.031 52.7711 126.502 52.7711H125.691C119.161 52.7711 113.867 47.6736 113.867 41.3855Z"
              fill="black"/>
        <path d="M142.542 69.6385C142.542 63.1176 147.836 57.8313 154.365 57.8313H155.177C161.706 57.8313 167 63.1176 167 69.6385C167 76.1594 161.706 81.4458 155.177 81.4458H154.365C147.836 81.4458 142.542 76.1594 142.542 69.6385Z"
              fill="black"/>
        <path d="M113.867 97.4703C113.867 90.9491 119.161 85.6626 125.691 85.6626H126.502C133.031 85.6626 138.325 90.9491 138.325 97.4703C138.325 103.991 133.031 109.277 126.502 109.277H125.691C119.161 109.277 113.867 103.991 113.867 97.4703Z"
              fill="black"/>
        <path d="M85.1929 69.6385C85.1929 63.1176 90.4863 57.8313 97.016 57.8313H97.8276C104.357 57.8313 109.651 63.1176 109.651 69.6385C109.651 76.1594 104.357 81.4458 97.8276 81.4458H97.016C90.4863 81.4458 85.1929 76.1594 85.1929 69.6385Z"
              fill="black"/>
        <path d="M85.1929 125.723C85.1929 119.435 90.4863 114.337 97.016 114.337H97.8276C104.357 114.337 109.651 119.435 109.651 125.723C109.651 132.011 104.357 137.108 97.8276 137.108H97.016C90.4863 137.108 85.1929 132.011 85.1929 125.723Z"
              fill="black"/>
        <path d="M56.5181 97.4703C56.5181 90.9491 61.6284 85.6626 67.933 85.6626H68.7167C75.0214 85.6626 80.1325 90.9491 80.1325 97.4703C80.1325 103.991 75.0214 109.277 68.7167 109.277H67.933C61.6284 109.277 56.5181 103.991 56.5181 97.4703Z"
              fill="black"/>
        <path d="M91.9397 59.921L78.5092 47.107V46.8674C77.3481 48.9347 75.5592 50.6335 73.3855 51.7323H73.6582L87.0855 64.5424V64.5783C88.2087 62.6224 89.8967 61.0031 91.9397 59.921Z"
              fill="black"/>
        <path d="M115.802 46.9438V46.8674C116.914 48.8612 118.589 50.4993 120.614 51.5686H120.442L107.598 64.377V64.5783C106.532 62.5622 104.896 60.8915 102.904 59.7784H102.931L115.802 46.9438Z"
              fill="black"/>
        <path d="M94.4697 80.6301V115.154C95.3946 114.866 96.37 114.712 97.3781 114.712C98.4182 114.712 99.4235 114.876 100.373 115.181V80.6025C99.4235 80.9074 98.4182 81.0713 97.3781 81.0713C96.37 81.0713 95.3946 80.9176 94.4697 80.6301Z"
              fill="black"/>
        <path d="M91.0963 115.631L78.2536 103.455V103.374C77.1362 105.317 75.4412 106.92 73.3855 107.971H73.5694L86.504 120.241C87.5468 118.324 89.1444 116.724 91.0963 115.631Z"
              fill="black"/>
        <path d="M57.609 92.1363V92.4097C58.6975 90.4414 60.378 88.8223 62.4218 87.7712H62.2206L49.507 75.5422C48.3864 77.4181 46.7174 78.9524 44.7109 79.9445H44.9273L57.609 92.1363Z"
              fill="black"/>
        <path d="M94.4697 136.293V170H100.373V136.265C99.4235 136.568 98.4182 136.731 97.3781 136.731C96.37 136.731 95.3946 136.579 94.4697 136.293Z"
              fill="black"/>
        <path d="M107.495 120.241L120.598 107.853H120.614C118.608 106.817 116.945 105.26 115.831 103.374L102.904 115.595C104.859 116.701 106.457 118.313 107.495 120.241Z"
              fill="black"/>
        <path d="M136.735 92.0126V92.4097C135.592 90.3744 133.786 88.7022 131.578 87.6322H131.951L145.155 75.5422C146.326 77.3839 148.056 78.8918 150.133 79.8692H149.998L136.735 92.0126Z"
              fill="black"/>
    </g>
    <defs>
        <clipPath id="clip0_934_10968">
            <rect width="194" height="194" fill="white"/>
        </clipPath>
    </defs>
</svg>
